<?xml version="1.0" standalone="no"?>
<!DOCTYPE svg PUBLIC "-//W3C//DTD SVG 20010904//EN"
 "http://www.w3.org/TR/2001/REC-SVG-20010904/DTD/svg10.dtd">
<svg version="1.0" xmlns="http://www.w3.org/2000/svg"
 width="1901.000000pt" height="938.000000pt" viewBox="0 0 1901.000000 938.000000"
 preserveAspectRatio="xMidYMid meet">

<g transform="translate(0.000000,938.000000) scale(0.100000,-0.100000)"
fill="#000000" stroke="none">
<path d="M0 4690 l0 -4690 4769 0 c4619 0 5016 2 5256 29 66 8 63 8 -55 10
-106 1 -351 17 -400 25 -8 1 -28 8 -43 14 -16 7 -37 12 -47 12 -10 0 -25 9
-33 20 -8 11 -16 18 -18 16 -2 -2 -10 2 -17 10 -11 12 -10 14 3 14 9 0 13 5
10 10 -4 6 -10 8 -15 5 -4 -3 -10 4 -13 15 -3 11 -1 17 4 14 11 -6 6 32 -5 43
-4 4 -12 1 -17 -7 -9 -12 -9 -11 -4 5 10 28 12 85 3 85 -4 0 -4 8 -1 17 5 12
2 15 -8 11 -10 -4 -15 1 -15 13 0 11 3 19 7 19 13 0 4 65 -11 78 -11 10 -12
12 -1 6 10 -5 13 -3 8 8 -3 9 0 21 6 27 15 15 -5 14 -23 -1 -12 -11 -12 -10
-1 5 7 9 10 17 5 17 -4 0 -3 5 4 12 16 16 15 31 -1 25 -8 -3 -14 1 -14 9 0 7
5 10 10 7 7 -4 7 1 2 13 -4 10 -8 36 -9 56 0 20 -7 43 -14 50 -14 14 -16 32
-2 23 13 -8 13 36 0 69 -7 19 -6 26 2 26 7 0 4 6 -7 13 -10 8 -15 19 -11 25 3
6 2 13 -4 17 -5 3 -10 21 -10 40 0 19 -5 46 -11 62 -7 20 -7 29 1 31 8 3 8 8
0 17 -8 10 -7 17 3 26 19 18 10 50 -11 41 -14 -5 -15 -3 -5 10 7 8 10 17 8 20
-3 3 -1 16 4 30 7 20 6 28 -9 38 -15 11 -16 16 -4 38 7 14 10 30 6 36 -3 6 -9
1 -12 -11 -4 -17 -9 -20 -20 -13 -10 6 -11 10 -3 10 9 0 12 18 10 64 -1 46 -5
62 -14 59 -7 -3 -13 2 -13 11 0 9 4 16 9 16 10 0 9 32 -3 98 -5 23 -14 42 -21
42 -9 0 -10 11 -5 42 6 28 4 45 -3 50 -6 3 -12 17 -13 30 -17 127 -20 174 -12
179 5 3 2 11 -6 18 -15 13 -11 40 8 53 7 5 4 8 -6 8 -15 0 -15 3 -3 27 8 14
11 39 8 53 -3 15 0 31 6 34 6 4 8 12 5 18 -4 6 -2 8 3 5 9 -6 24 13 27 34 2
15 41 79 48 79 5 0 8 9 8 20 0 11 4 20 10 20 5 0 13 12 16 26 5 18 10 22 17
15 17 -17 27 -13 27 8 0 11 9 22 19 26 13 4 18 11 14 22 -5 12 -2 15 9 10 10
-3 19 0 22 9 3 9 10 13 15 10 5 -3 16 6 26 20 12 18 23 24 36 21 14 -4 23 1
28 16 5 14 17 22 32 22 15 0 23 5 21 13 -1 8 1 11 6 8 11 -6 92 14 92 24 0 4
21 6 47 4 29 -2 50 2 55 9 6 9 8 9 8 0 0 -8 14 -10 43 -7 97 11 137 11 137 0
0 -6 5 -4 11 4 8 12 12 12 16 2 4 -10 8 -10 20 -1 9 8 17 9 21 3 4 -6 18 -11
32 -12 13 0 30 -9 37 -18 7 -10 13 -12 13 -6 0 7 7 12 15 12 8 0 15 -4 15 -9
0 -4 12 -8 28 -8 33 -1 59 -7 68 -16 4 -4 16 -7 26 -7 10 0 18 -4 18 -10 0 -5
10 -10 23 -10 13 0 28 -5 35 -12 13 -13 79 -38 101 -38 8 0 22 -6 30 -13 9 -7
36 -21 61 -31 25 -10 59 -24 75 -31 49 -23 181 -64 217 -68 18 -2 46 -9 61
-16 16 -6 47 -13 70 -17 41 -5 42 -5 17 11 l-25 15 30 -6 c17 -3 53 -11 80
-18 28 -7 129 -13 225 -14 141 -2 192 1 265 16 211 45 376 135 535 292 59 58
125 132 147 165 101 150 160 315 170 472 l6 93 184 0 c171 0 184 -1 179 -18
-2 -9 -7 -114 -11 -232 -10 -351 -27 -579 -66 -895 -25 -197 -61 -366 -76
-351 -9 8 -45 -43 -38 -53 3 -5 1 -12 -4 -15 -5 -3 -7 -15 -4 -25 5 -21 -17
-61 -58 -105 -25 -26 -31 -27 -71 -20 -61 12 -70 9 -142 -38 l-65 -42 22 -30
c11 -17 24 -33 27 -36 9 -8 4 -70 -6 -80 -11 -11 -56 -15 -117 -12 -33 2 -40
7 -50 31 -7 18 -20 31 -35 34 -28 5 -28 5 -78 -168 -20 -66 -53 -174 -74 -240
-21 -66 -50 -174 -64 -240 -79 -368 -98 -449 -124 -542 l-29 -103 1473 0 1474
0 0 30 c0 17 5 30 10 30 6 0 10 -13 10 -30 l0 -30 2175 0 2175 0 0 4690 0
4690 -9505 0 -9505 0 0 -4690z m18520 4520 c0 -7 -145 -10 -415 -10 -402 0
-416 -1 -435 -20 -18 -18 -20 -33 -20 -180 0 -147 2 -162 20 -180 19 -19 33
-20 435 -20 270 0 415 -3 415 -10 0 -7 -146 -10 -419 -10 l-419 0 -27 32 -26
31 3 164 3 165 28 24 28 24 415 0 c269 0 414 -3 414 -10z m55 0 c44 -17 142
-99 155 -131 8 -18 11 -67 8 -139 -4 -142 -12 -151 -127 -158 -56 -3 -81 -1
-81 7 0 7 26 11 75 11 110 0 115 7 115 158 -1 76 -5 122 -13 133 -29 37 -129
109 -152 109 -14 0 -25 5 -25 10 0 13 12 13 45 0z m-18064 -30 c10 -6 19 -17
19 -25 0 -12 -4 -13 -19 -3 -15 9 -25 9 -45 0 -14 -6 -26 -16 -26 -21 0 -15
39 -33 55 -27 24 9 27 -12 5 -24 -17 -9 -27 -8 -45 4 -30 19 -35 20 -35 3 0
-8 -11 -20 -25 -27 -46 -25 -27 -134 20 -116 28 10 30 37 4 58 l-24 20 30 -5
c16 -3 38 -1 47 4 14 7 18 6 18 -6 0 -8 -4 -15 -9 -15 -17 0 -22 -33 -8 -48
12 -11 19 -11 36 -3 17 9 21 21 21 57 0 38 4 46 25 56 17 7 25 19 25 36 0 21
2 22 15 12 8 -7 15 -18 15 -26 0 -20 19 -27 35 -14 25 21 18 54 -15 73 -16 10
-30 25 -30 34 0 14 2 14 23 -1 12 -9 32 -21 45 -28 15 -8 22 -20 22 -39 0 -19
8 -34 25 -45 21 -14 25 -24 25 -65 0 -41 -4 -51 -25 -65 -17 -11 -25 -26 -25
-44 0 -22 -9 -32 -50 -54 -40 -22 -53 -25 -70 -16 -11 6 -20 17 -20 25 0 12 4
13 19 3 15 -9 25 -9 45 0 14 6 26 16 26 21 0 15 -39 33 -55 27 -23 -9 -27 12
-5 24 17 9 26 7 50 -10 29 -20 30 -21 30 -2 0 10 11 25 25 32 46 25 27 134
-20 116 -28 -10 -30 -37 -4 -58 l24 -20 -30 5 c-16 3 -38 1 -47 -4 -14 -7 -18
-6 -18 6 0 8 4 15 9 15 16 0 22 33 8 48 -12 11 -18 12 -36 0 -16 -10 -21 -23
-21 -56 0 -36 -4 -44 -25 -54 -17 -7 -25 -19 -25 -36 0 -21 -2 -22 -15 -12 -8
7 -15 18 -15 26 0 20 -19 27 -35 14 -25 -21 -18 -54 15 -73 17 -10 30 -25 30
-34 0 -14 -2 -14 -22 1 -13 9 -33 21 -45 28 -16 8 -23 20 -23 39 0 19 -8 34
-25 45 -21 14 -25 24 -25 65 0 41 4 51 25 65 17 11 25 26 25 43 0 23 9 33 48
54 55 31 48 30 73 17z m865 -81 c10 -17 -23 -46 -37 -32 -7 7 -9 19 -6 27 7
18 33 21 43 5z m-348 -15 c24 -16 29 -53 10 -72 -9 -9 -8 -15 6 -25 26 -19 18
-68 -14 -84 -14 -7 -49 -13 -77 -13 l-53 0 0 105 0 105 53 0 c31 0 61 -6 75
-16z m92 -44 c0 -7 6 -7 19 0 28 14 31 13 31 -12 1 -20 2 -21 11 -6 15 26 74
34 104 14 22 -15 25 -23 25 -80 l0 -63 -59 -1 c-65 -1 -85 11 -79 49 3 24 18
35 61 44 15 3 27 9 27 14 0 10 -112 7 -129 -3 -6 -4 -11 -30 -11 -57 0 -47 -2
-50 -22 -47 -21 3 -23 9 -26 67 -2 35 -1 70 2 77 6 16 46 19 46 4z m258 -72
c3 -78 3 -78 -23 -78 -25 0 -25 1 -25 81 0 78 1 80 23 77 20 -3 22 -9 25 -80z
m62 66 c0 -14 2 -14 22 0 51 36 78 8 78 -80 0 -57 -2 -64 -20 -64 -17 0 -20 7
-20 43 0 48 -22 89 -39 72 -5 -5 -11 -32 -13 -60 -3 -43 -6 -50 -25 -53 -22
-3 -23 -1 -23 77 0 74 2 81 20 81 11 0 20 -7 20 -16z m166 -11 c15 -68 17 -69
29 -23 8 34 16 46 32 48 18 3 24 -5 36 -45 l14 -48 9 45 c8 35 14 46 32 48 27
4 27 -9 4 -93 -15 -52 -20 -60 -44 -63 -22 -3 -27 1 -33 30 -11 52 -18 55 -30
12 -8 -31 -16 -40 -36 -42 -24 -3 -27 2 -46 70 -22 80 -21 88 7 88 13 0 22 -9
26 -27z m304 7 c16 -16 20 -33 20 -80 0 -57 -1 -60 -25 -60 -14 0 -25 5 -25
12 0 9 -3 9 -12 0 -30 -30 -83 -3 -76 39 3 24 18 35 61 44 47 10 32 27 -18 19
-40 -6 -44 -4 -39 11 14 36 84 45 114 15z m79 -17 c6 -21 11 -44 11 -51 0 -28
19 0 25 39 7 41 23 56 50 46 12 -5 10 -18 -13 -82 -24 -68 -29 -75 -54 -75
-24 0 -29 7 -49 68 -12 37 -24 73 -27 80 -2 7 5 12 21 12 22 0 28 -7 36 -37z
m205 26 c20 -9 46 -52 46 -75 0 -2 -22 -4 -50 -4 -39 0 -50 -3 -50 -16 0 -14
7 -15 45 -10 49 8 54 3 28 -26 -22 -24 -77 -24 -103 2 -31 31 -27 93 6 119 31
24 43 26 78 10z m6534 -20 c-10 -5 -19 -20 -19 -32 -1 -18 -2 -18 -6 -4 -5 20
13 47 31 47 6 0 3 -5 -6 -11z m1602 7 c0 -2 -7 -7 -16 -10 -8 -3 -12 -2 -9 4
6 10 25 14 25 6z m220 0 c0 -2 -7 -7 -16 -10 -8 -3 -12 -2 -9 4 6 10 25 14 25
6z m6338 -7 c-10 -5 -18 -19 -18 -29 0 -10 8 -24 18 -30 15 -10 15 -10 -3 -8
-39 6 -29 78 10 78 6 -1 2 -5 -7 -11z m80 0 c-10 -5 -18 -19 -18 -29 0 -10 8
-24 18 -30 15 -10 15 -10 -3 -8 -39 6 -29 78 10 78 6 -1 2 -5 -7 -11z m86 2
c3 -5 -2 -8 -12 -7 -12 1 -17 -6 -17 -23 0 -32 23 -39 34 -9 6 15 10 17 10 7
1 -9 -6 -22 -14 -29 -30 -25 -61 30 -33 58 14 14 25 15 32 3z m926 -1 c0 -5
-8 -10 -17 -10 -17 -1 -17 -1 0 -11 27 -16 22 -49 -7 -49 -14 0 -28 5 -31 10
-3 6 4 10 16 10 l21 0 -22 18 c-13 11 -20 24 -16 30 9 15 56 16 56 2z m80 0
c0 -5 -4 -10 -10 -10 -14 0 -13 -33 2 -48 9 -9 5 -12 -20 -12 -18 0 -32 5 -32
10 0 6 5 10 10 10 6 0 10 9 10 20 0 11 -4 20 -10 20 -5 0 -10 5 -10 10 0 6 14
10 30 10 17 0 30 -4 30 -10z m70 0 c0 -5 -7 -10 -15 -10 -8 0 -15 -9 -15 -20
0 -11 4 -20 10 -20 5 0 7 7 3 16 -4 12 -2 15 8 12 23 -8 17 -43 -8 -46 -29 -4
-48 30 -33 58 11 20 50 28 50 10z m51 -2 c0 -10 2 -10 6 0 10 26 23 10 23 -28
0 -22 -4 -40 -10 -40 -5 0 -10 6 -11 13 0 10 -2 10 -6 0 -10 -27 -23 -11 -23
27 0 22 5 40 10 40 6 0 10 -6 11 -12z m189 2 c0 -5 -4 -10 -10 -10 -5 0 -10
-9 -10 -20 0 -11 5 -20 10 -20 6 0 10 -4 10 -10 0 -5 -14 -10 -32 -10 -25 0
-29 3 -20 12 15 15 16 48 2 48 -5 0 -10 5 -10 10 0 6 14 10 30 10 17 0 30 -4
30 -10z m49 -7 c10 -17 10 -17 11 0 0 9 5 17 10 17 6 0 10 -18 10 -40 0 -42
-12 -52 -29 -22 -10 16 -10 16 -11 0 0 -10 -4 -18 -10 -18 -5 0 -10 18 -10 40
0 42 12 52 29 23z m-11447 -11 c3 -9 1 -26 -3 -37 -6 -15 -8 -11 -8 18 -1 40
4 48 11 19z m91 -45 c18 -4 17 -5 -5 -6 -26 -1 -28 2 -26 37 1 36 1 36 5 5 3
-23 10 -33 26 -36z m360 0 c18 -4 17 -5 -5 -6 -26 -1 -28 2 -26 37 1 36 1 36
5 5 3 -23 10 -33 26 -36z m1390 1 c7 -4 -1 -7 -18 -7 -16 0 -24 3 -17 6 6 2
13 19 13 36 l2 32 4 -30 c3 -16 10 -33 16 -37z m1238 -1 c-12 -12 -41 -2 -40
15 0 10 2 10 6 1 10 -26 33 -13 34 20 2 31 2 32 6 3 3 -16 0 -33 -6 -39z m396
26 c-3 -10 -5 -4 -5 12 0 17 2 24 5 18 2 -7 2 -21 0 -30z m39 -19 c-3 -8 -13
-13 -23 -13 -17 1 -17 2 0 6 11 3 17 15 18 36 1 25 3 27 6 9 3 -13 2 -30 -1
-38z m132 -7 c12 -3 10 -5 -5 -6 -20 -1 -23 3 -21 37 1 36 1 36 5 5 3 -19 11
-34 21 -36z m1103 0 c-12 -12 -41 -2 -40 15 0 10 2 10 6 1 10 -26 33 -13 34
20 2 31 2 32 6 3 3 -16 0 -33 -6 -39z m229 28 c0 -19 -2 -35 -4 -35 -2 0 -6
16 -8 35 -2 19 0 35 4 35 4 0 8 -16 8 -35z m115 5 c7 0 16 8 18 18 4 15 5 15
6 -1 0 -11 -7 -21 -18 -24 -11 -3 -22 -12 -24 -22 -3 -9 -5 2 -5 24 0 22 2 32
5 23 2 -10 11 -18 18 -18z m4420 20 c3 -5 1 -10 -4 -10 -6 0 -11 5 -11 10 0 6
2 10 4 10 3 0 8 -4 11 -10z m79 -32 c-3 -10 2 -18 13 -21 14 -4 13 -5 -4 -6
-20 -1 -23 4 -23 37 0 27 3 33 10 22 5 -8 7 -23 4 -32z m63 10 c-3 -7 -5 -2
-5 12 0 14 2 19 5 13 2 -7 2 -19 0 -25z m50 0 c-3 -7 -5 -2 -5 12 0 14 2 19 5
13 2 -7 2 -19 0 -25z m139 14 c1 -7 0 -8 -3 -2 -2 5 -9 8 -14 4 -5 -3 -9 0 -9
6 0 15 23 7 26 -8z m301 -39 c7 -3 13 8 16 24 4 28 4 28 3 -2 -1 -23 -6 -30
-21 -30 -16 0 -20 7 -22 35 -1 33 -1 33 5 6 4 -16 12 -31 19 -33z m66 25 c-8
-46 -13 -48 -13 -5 0 21 4 37 10 37 5 0 7 -14 3 -32z m37 -4 c0 -19 -4 -33 -8
-30 -8 5 -4 66 4 66 2 0 4 -16 4 -36z m60 1 c0 -19 -2 -35 -4 -35 -2 0 -6 16
-8 35 -2 19 0 35 4 35 4 0 8 -16 8 -35z m-6933 -7 c-3 -7 -5 -2 -5 12 0 14 2
19 5 13 2 -7 2 -19 0 -25z m-2848 13 c18 -12 6 -41 -16 -40 -17 1 -17 2 0 6 9
2 17 8 17 13 0 5 -8 14 -17 19 -10 6 -13 10 -8 11 6 0 16 -4 24 -9z m3051 -1
c8 -5 11 -10 5 -10 -5 0 -17 5 -25 10 -8 5 -10 10 -5 10 6 0 17 -5 25 -10z
m1469 -35 c0 -5 -4 -3 -9 5 -5 8 -9 22 -9 30 0 16 17 -16 18 -35z m-4672 29
c-3 -3 -12 -4 -19 -1 -8 3 -5 6 6 6 11 1 17 -2 13 -5z m1170 0 c-3 -3 -12 -4
-19 -1 -8 3 -5 6 6 6 11 1 17 -2 13 -5z m70 0 c-3 -3 -12 -4 -19 -1 -8 3 -5 6
6 6 11 1 17 -2 13 -5z m383 -9 c0 -20 -28 -31 -42 -17 -8 8 -4 9 12 5 19 -5
22 -3 17 10 -4 10 -2 17 3 17 6 0 10 -7 10 -15z m1117 -7 c-3 -8 -6 -5 -6 6
-1 11 2 17 5 13 3 -3 4 -12 1 -19z m1550 16 c-3 -3 -12 -4 -19 -1 -8 3 -5 6 6
6 11 1 17 -2 13 -5z m4840 -26 c-3 -7 -5 -2 -5 12 0 14 2 19 5 13 2 -7 2 -19
0 -25z m353 5 c0 -15 -2 -15 -9 -4 -5 8 -16 11 -25 8 -9 -4 -16 -2 -16 3 0 6
11 10 25 10 17 0 25 -5 25 -17z m-9555 -11 c-3 -3 -11 0 -18 7 -9 10 -8 11 6
5 10 -3 15 -9 12 -12z m3050 0 c-3 -3 -11 0 -18 7 -9 10 -8 11 6 5 10 -3 15
-9 12 -12z m1540 8 c-3 -5 -14 -10 -23 -9 -14 0 -13 2 3 9 27 11 27 11 20 0z
m-3202 -7 c-7 -2 -19 -2 -25 0 -7 3 -2 5 12 5 14 0 19 -2 13 -5z m1884 1 c-3
-3 -12 -4 -19 -1 -8 3 -5 6 6 6 11 1 17 -2 13 -5z m-10164 -391 c-15 -3 -23
-12 -23 -24 0 -10 -7 -19 -15 -19 -8 0 -15 9 -15 19 0 12 -8 21 -22 24 -13 2
4 4 37 4 33 0 50 -2 38 -4z m18390 0 c-15 -3 -23 -12 -23 -24 0 -10 -7 -19
-15 -19 -8 0 -15 9 -15 19 0 12 -8 21 -22 24 -13 2 4 4 37 4 33 0 50 -2 38 -4z
m-7739 -1189 c21 -20 20 -43 -1 -66 -31 -35 -83 -12 -83 37 0 40 54 59 84 29z
m607 6 c39 -21 16 -90 -30 -90 -14 0 -51 37 -51 50 0 13 37 50 51 50 6 0 19
-5 30 -10z m383 -3 c28 -20 18 -69 -16 -81 -22 -8 -32 -6 -48 9 -24 22 -25 42
-3 67 19 21 42 23 67 5z m458 -4 c25 -23 22 -50 -7 -69 -37 -24 -75 -6 -75 35
0 47 47 66 82 34z m-6324 -40 l-3 -38 -92 -3 -93 -3 0 -49 0 -50 85 0 85 0 0
-40 0 -40 -85 0 -85 0 0 -55 0 -55 95 0 95 0 0 -35 0 -35 -135 0 -135 0 0 220
0 220 136 0 135 0 -3 -37z m942 -183 l0 -220 -45 0 -45 0 0 185 c0 178 -1 185
-20 185 -16 0 -20 7 -20 35 l0 35 65 0 65 0 0 -220z m1590 145 l0 -74 38 25
c29 20 45 25 75 21 82 -11 107 -62 107 -222 l0 -115 -45 0 -45 0 0 115 c0 112
-1 115 -26 131 -19 13 -32 15 -52 8 -41 -14 -52 -48 -52 -156 l0 -98 -40 0
-40 0 0 220 0 220 40 0 40 0 0 -75z m1060 57 c49 -24 80 -75 80 -129 0 -100
-54 -150 -170 -160 l-70 -6 0 -63 0 -64 -45 0 -45 0 0 220 0 220 108 0 c82 0
115 -4 142 -18z m1480 -62 l0 -79 25 23 c67 62 179 35 226 -54 21 -41 17 -139
-7 -180 -47 -80 -145 -105 -218 -55 -34 23 -36 23 -36 5 0 -16 -7 -20 -35 -20
l-34 0 -3 178 c-2 97 -2 196 0 220 3 42 3 42 43 42 l39 0 0 -80z m620 -140 l0
-220 -40 0 -40 0 -1 53 c0 28 0 111 1 184 1 130 1 131 -22 135 -18 2 -24 10
-26 36 l-3 32 65 0 66 0 0 -220z m-3410 155 l0 -45 50 0 50 0 0 -35 0 -35 -50
0 -50 0 0 -83 c0 -95 7 -107 62 -107 37 0 38 -1 38 -35 0 -43 -13 -50 -77 -40
-31 4 -55 16 -75 35 -27 27 -28 32 -28 129 l0 101 -30 0 c-28 0 -30 3 -30 35
0 32 2 35 30 35 29 0 30 2 30 45 l0 45 40 0 40 0 0 -45z m3790 0 l0 -45 50 0
50 0 0 -35 0 -35 -50 0 -50 0 0 -83 c0 -95 7 -107 62 -107 38 0 38 0 38 -41
l0 -42 -57 7 c-105 12 -123 38 -123 177 0 88 0 89 -25 89 -22 0 -25 4 -25 35
0 31 3 35 25 35 23 0 25 4 25 45 l0 45 40 0 40 0 0 -45z m-5361 -62 c38 -28
71 -99 71 -154 0 -60 -35 -126 -80 -151 -44 -24 -130 -20 -160 7 -20 18 -20
18 -20 -58 l0 -77 -45 0 -45 0 0 225 0 225 35 0 c32 0 35 -2 35 -31 0 -31 0
-31 18 -10 45 53 135 65 191 24z m541 17 c41 -11 94 -61 109 -103 29 -76 -5
-176 -74 -214 -49 -28 -131 -30 -182 -7 -103 50 -125 201 -40 284 47 46 114
60 187 40z m668 -17 c45 -33 72 -82 72 -129 l0 -44 -120 0 c-132 0 -144 -7
-95 -55 31 -32 86 -34 115 -5 13 13 33 20 61 20 l41 0 -19 -32 c-42 -73 -139
-100 -220 -61 -79 37 -112 160 -66 249 40 78 162 108 231 57z m1150 0 c44 -33
65 -69 70 -122 l5 -51 -122 0 c-134 0 -145 -7 -96 -55 31 -32 86 -34 115 -5
23 23 90 28 90 6 0 -20 -38 -65 -70 -81 -45 -23 -131 -19 -170 8 -52 34 -75
82 -75 152 0 76 30 129 89 157 51 23 126 19 164 -9z m902 5 c65 -33 90 -76 90
-153 0 -106 -57 -166 -165 -173 -55 -4 -70 -1 -108 22 -54 31 -80 80 -80 151
0 78 33 129 103 159 50 22 109 19 160 -6z m368 -2 c26 -13 52 -52 52 -76 0
-19 -69 -11 -90 10 -32 32 -100 24 -100 -11 0 -22 29 -39 67 -39 16 0 49 -10
73 -22 57 -29 72 -70 46 -124 -20 -43 -65 -64 -136 -64 -76 0 -140 42 -140 92
0 27 66 25 89 -3 30 -37 121 -24 121 17 0 18 -31 31 -92 39 -67 9 -108 45
-108 95 0 46 29 86 73 99 40 13 108 6 145 -13z m330 0 c26 -13 52 -52 52 -76
0 -19 -69 -11 -90 10 -32 32 -100 24 -100 -11 0 -22 29 -39 67 -39 16 0 49
-10 73 -22 57 -29 72 -70 46 -124 -20 -43 -65 -64 -136 -64 -76 0 -140 42
-140 92 0 27 66 25 89 -3 30 -37 121 -24 121 17 0 18 -31 31 -92 39 -67 9
-108 45 -108 95 0 46 29 86 73 99 40 13 108 6 145 -13z m2000 -3 c44 -33 65
-69 70 -122 l5 -51 -122 0 c-134 0 -145 -7 -96 -55 31 -32 86 -34 115 -5 23
23 90 28 90 6 0 -20 -38 -65 -70 -81 -45 -23 -131 -19 -170 8 -52 34 -75 82
-75 152 0 76 30 129 89 157 51 23 126 19 164 -9z m329 8 c41 -19 63 -45 63
-75 0 -24 -65 -21 -90 4 -33 33 -100 22 -100 -17 0 -17 32 -30 94 -38 120 -16
147 -146 40 -191 -93 -39 -224 7 -224 78 0 27 66 25 89 -3 30 -37 121 -24 121
17 0 18 -31 31 -94 39 -64 9 -106 48 -106 98 0 87 108 133 207 88z m-6827 -51
c37 -65 35 -66 76 13 24 46 26 47 70 47 25 0 43 -3 41 -7 -2 -5 -23 -41 -47
-81 l-42 -74 56 -84 56 -84 -49 0 -50 0 -36 60 c-20 33 -40 58 -45 55 -4 -3
-22 -30 -39 -60 -31 -54 -32 -55 -77 -55 -25 0 -43 3 -41 8 3 4 24 39 47 77
23 39 44 73 46 76 2 3 -17 39 -41 78 -25 40 -45 77 -45 82 0 5 19 9 43 9 42 0
44 -1 77 -60z m1338 29 l3 -26 29 28 c19 19 39 29 59 29 29 0 31 -3 31 -35 0
-31 -3 -35 -34 -41 -60 -11 -71 -33 -74 -150 l-4 -104 -38 0 -39 0 -3 118 c-2
64 -2 139 0 165 3 48 4 48 35 45 26 -2 33 -8 35 -29z m3382 -134 l0 -165 -40
0 -40 0 0 130 0 130 -25 0 c-22 0 -25 4 -25 35 l0 35 65 0 65 0 0 -165z m620
0 l0 -165 -45 0 -45 0 0 130 c0 123 -1 130 -20 130 -16 0 -20 7 -20 35 l0 35
65 0 65 0 0 -165z m380 0 l0 -165 -45 0 -45 0 0 130 0 130 -25 0 c-22 0 -25 4
-25 35 l0 35 70 0 70 0 0 -165z m450 0 l0 -165 -40 0 -40 0 0 130 0 130 -25 0
c-22 0 -25 4 -25 35 l0 35 65 0 65 0 0 -165z m-4098 -442 c24 -21 23 -45 -2
-68 -30 -27 -74 -10 -78 30 -6 48 43 72 80 38z m1662 1 c21 -20 20 -43 -1 -66
-31 -35 -83 -12 -83 37 0 40 54 59 84 29z m1977 6 c39 -21 16 -90 -30 -90 -14
0 -51 37 -51 50 0 13 37 50 51 50 6 0 19 -5 30 -10z m-5164 -15 c48 -20 71
-41 94 -87 30 -58 26 -68 -25 -68 -39 0 -45 3 -56 29 -32 79 -174 79 -216 -1
-11 -20 -18 -55 -18 -88 0 -96 49 -150 136 -150 41 0 95 32 110 65 9 21 18 25
55 25 41 0 44 -2 37 -22 -32 -104 -110 -154 -230 -146 -78 5 -137 41 -174 108
-20 37 -24 59 -25 120 0 108 41 178 125 214 46 20 141 20 187 1z m-1267 -25
c0 -27 -3 -30 -29 -30 -32 0 -61 -22 -61 -46 0 -10 13 -14 45 -14 43 0 45 -1
45 -30 0 -29 -2 -30 -45 -30 l-45 0 0 -130 0 -130 -40 0 -40 0 0 130 c0 123
-1 130 -20 130 -16 0 -20 7 -20 30 0 23 4 30 20 30 13 0 20 7 20 20 0 28 26
77 47 89 10 6 42 11 71 11 51 0 52 0 52 -30z m511 -182 c41 -116 76 -216 78
-220 1 -5 -18 -8 -45 -6 -47 3 -47 3 -64 53 l-17 50 -96 3 -96 3 -17 -56 -18
-55 -43 0 c-24 0 -43 3 -43 8 0 4 32 103 72 220 l72 212 72 0 72 0 73 -212z
m229 -8 l0 -220 -45 0 -45 0 0 220 0 220 45 0 45 0 0 -220z m800 145 l0 -76
22 20 c49 46 134 34 169 -23 16 -26 19 -51 19 -158 l0 -128 -40 0 -40 0 0 101
c0 95 -9 135 -34 151 -20 14 -56 8 -76 -12 -18 -18 -20 -33 -20 -130 l0 -110
-45 0 -45 0 0 220 0 220 45 0 45 0 0 -75z m3370 -2 l0 -76 26 24 c36 34 112
34 148 0 36 -34 46 -78 46 -203 l0 -108 -45 0 -45 0 0 110 c0 97 -2 112 -20
130 -28 28 -64 25 -89 -6 -18 -23 -21 -41 -21 -130 l0 -104 -45 0 -45 0 0 220
0 220 45 0 45 0 0 -77z m690 62 c16 -8 36 -25 44 -37 21 -30 21 -116 0 -139
-15 -17 -15 -20 10 -49 31 -37 36 -111 10 -148 -30 -43 -65 -52 -194 -52
l-120 0 0 220 0 220 110 0 c79 0 119 -4 140 -15z m-3320 -50 l0 -45 50 0 50 0
0 -35 0 -35 -50 0 -50 0 0 -76 c0 -97 9 -114 60 -114 l40 0 0 -41 0 -42 -56 7
c-31 3 -65 11 -76 17 -32 17 -48 71 -48 164 0 84 0 85 -25 85 -22 0 -25 4 -25
35 0 31 3 35 25 35 23 0 25 4 25 45 l0 45 40 0 40 0 0 -45z m260 0 l0 -45 50
0 50 0 0 -35 0 -35 -50 0 -50 0 0 -76 c0 -97 9 -114 60 -114 l40 0 0 -41 0
-42 -56 7 c-31 3 -65 11 -76 17 -32 17 -48 71 -48 164 0 84 0 85 -25 85 -22 0
-25 4 -25 35 0 31 3 35 25 35 23 0 25 4 25 45 l0 45 40 0 40 0 0 -45z m2120 0
l0 -45 50 0 50 0 0 -35 0 -35 -50 0 -50 0 0 -83 c0 -95 7 -107 63 -107 38 0
38 0 35 -37 -3 -38 -3 -38 -49 -37 -60 0 -104 19 -119 52 -7 15 -15 69 -18
120 -5 89 -6 92 -28 92 -21 0 -24 5 -24 34 0 30 3 35 28 38 24 3 27 7 30 46 3
42 3 42 43 42 l39 0 0 -45z m-5000 -57 c64 -33 84 -66 88 -146 3 -57 0 -72
-20 -101 -38 -57 -71 -75 -143 -79 -55 -4 -70 -1 -108 22 -54 31 -80 80 -80
151 0 78 33 129 103 159 50 22 109 19 160 -6z m3506 -9 c34 -32 44 -78 44
-201 l0 -108 -45 0 -45 0 0 110 c0 97 -2 112 -20 130 -23 23 -58 26 -86 6 -16
-13 -19 -29 -22 -130 l-4 -116 -44 0 -44 0 0 165 0 165 35 0 c33 0 35 -2 35
-32 1 -28 2 -30 11 -15 34 58 135 73 185 26z m311 20 c15 -6 38 -20 51 -31
l22 -21 0 26 c0 24 4 27 36 27 l36 0 -4 -177 c-3 -153 -6 -182 -22 -209 -32
-54 -69 -69 -171 -69 l-90 0 -3 39 -3 38 49 -7 c91 -12 152 18 152 75 l0 21
-26 -20 c-36 -28 -117 -29 -161 -1 -109 66 -87 274 33 310 41 12 68 12 101 -1z
m3308 -3 c54 -23 65 -56 65 -201 l0 -125 -40 0 -40 0 0 101 c0 95 -9 135 -34
151 -20 14 -56 8 -76 -12 -18 -18 -20 -33 -20 -130 l0 -110 -45 0 -45 0 0 165
0 165 35 0 c33 0 35 -2 35 -31 l0 -32 21 27 c36 46 84 57 144 32z m1613 -13
c44 -33 65 -69 70 -122 l5 -51 -122 0 c-134 0 -145 -7 -96 -55 31 -32 86 -34
115 -5 23 23 90 28 90 6 0 -20 -38 -65 -70 -81 -45 -23 -131 -19 -170 8 -52
34 -75 82 -75 152 0 76 30 129 89 157 51 23 126 19 164 -9z m-6326 -21 l33
-32 4 -130 3 -130 -36 0 c-30 0 -36 3 -36 22 l0 21 -25 -23 c-60 -57 -179 -26
-198 51 -18 79 36 129 141 129 55 0 62 2 62 20 0 30 -36 43 -106 38 l-64 -4 0
39 0 39 95 -4 c92 -3 96 -4 127 -36z m738 -127 l0 -165 -46 0 -45 0 1 103 c2
161 2 157 -20 157 -16 0 -20 7 -20 35 l0 35 65 0 65 0 0 -165z m1100 60 c15
-55 30 -113 34 -129 4 -15 9 -26 11 -24 3 2 14 49 25 104 11 54 22 109 25 122
5 19 12 22 53 22 l49 0 30 -127 c16 -71 33 -121 36 -113 3 8 18 68 32 133 l27
117 39 0 c21 0 39 -3 39 -7 -1 -5 -17 -78 -38 -163 l-37 -155 -62 -3 -62 -3
-10 38 c-6 21 -17 67 -25 102 -8 34 -16 65 -18 67 -2 2 -12 -36 -22 -84 -27
-134 -19 -123 -89 -120 l-62 3 -37 135 c-58 211 -57 192 -7 188 l43 -3 26
-100z m560 -60 l0 -165 -40 0 -40 0 0 130 0 130 -25 0 c-22 0 -25 4 -25 35 l0
35 65 0 65 0 0 -165z m1360 136 l0 -29 29 29 c20 19 40 29 60 29 29 0 31 -3
31 -35 0 -31 -3 -35 -34 -41 -60 -11 -71 -33 -74 -150 l-4 -104 -44 0 -44 0 0
158 c0 87 3 162 7 165 3 4 21 7 40 7 30 0 33 -3 33 -29z m388 9 c45 -28 52
-53 52 -191 l0 -119 -35 0 c-29 0 -35 4 -36 23 0 12 -3 16 -6 9 -8 -20 -59
-42 -98 -42 -71 0 -114 41 -115 108 0 70 46 102 151 102 32 0 59 3 59 8 0 4
-7 18 -16 31 -15 21 -23 22 -88 19 -68 -3 -71 -2 -74 20 -7 47 2 52 90 52 65
0 90 -4 116 -20z m242 -145 l0 -165 -45 0 -45 0 0 129 c0 127 -1 130 -22 133
-23 3 -34 28 -24 54 4 10 23 14 71 14 l65 0 0 -165z m549 88 c11 -43 26 -102
32 -130 7 -29 15 -53 19 -53 3 0 16 56 29 125 l23 126 50 -3 51 -3 27 -117
c15 -65 29 -120 32 -123 3 -3 15 38 28 92 38 172 32 158 73 161 28 2 37 -1 37
-12 0 -8 -16 -83 -36 -166 l-36 -150 -62 0 -63 0 -24 105 c-12 58 -26 100 -30
93 -3 -7 -14 -55 -24 -105 l-17 -93 -64 0 c-35 0 -64 2 -64 5 0 3 -18 70 -40
150 -22 80 -40 152 -40 160 0 11 11 15 39 15 l39 0 21 -77z m667 62 c51 -21
64 -61 64 -200 l0 -115 -35 0 c-29 0 -35 4 -35 21 0 20 -1 20 -31 -5 -50 -42
-151 -29 -179 23 -13 26 -13 87 1 113 15 28 70 48 134 48 48 0 55 2 55 20 0
29 -34 42 -103 39 l-62 -3 -3 37 -3 37 81 0 c48 0 95 -6 116 -15z m210 -30 c7
-22 25 -80 39 -128 15 -49 30 -86 33 -82 4 3 21 61 38 128 l30 122 43 3 c41 3
43 2 38 -20 -3 -13 -23 -87 -44 -165 l-38 -143 -70 0 -70 0 -48 154 c-26 85
-47 159 -47 165 0 8 15 11 42 9 39 -3 42 -6 54 -43z m-131 -374 c259 -17 456
-34 451 -38 -3 -3 -350 -5 -773 -4 -736 1 -1123 -7 -1503 -29 -214 -13 -532
-38 -582 -46 -37 -6 -38 -5 -38 24 0 27 3 30 43 36 85 12 549 45 792 56 138 6
284 12 325 14 147 7 1138 -4 1285 -13z m128 -58 c-13 -2 -35 -2 -50 0 -16 2
-5 4 22 4 28 0 40 -2 28 -4z m602 -33 c0 -18 -5 -25 -18 -23 -10 0 -94 8 -185
18 -92 9 -210 20 -262 24 -71 6 -24 8 185 7 l280 -1 0 -25z m-8235 -342 c0
-56 6 -72 30 -80 33 -12 50 10 50 67 0 29 5 57 10 60 15 9 13 -118 -2 -133
-21 -21 -75 -15 -92 10 -18 25 -22 128 -6 128 6 0 10 -24 10 -52z m290 -23 c0
-43 -4 -75 -10 -75 -6 0 -10 26 -10 59 0 33 -3 66 -6 75 -4 11 -1 16 10 16 13
0 16 -13 16 -75z m400 51 c0 -19 4 -23 20 -19 32 8 50 -15 50 -63 0 -56 -18
-57 -22 -1 -2 34 -7 42 -23 42 -16 0 -21 -8 -23 -42 -5 -72 -22 -48 -22 32 0
43 4 75 10 75 6 0 10 -11 10 -24z m260 0 c0 -19 4 -23 20 -19 32 8 50 -15 50
-63 0 -56 -18 -57 -22 -1 -2 34 -7 42 -23 42 -16 0 -21 -8 -23 -42 -5 -72 -22
-48 -22 32 0 43 4 75 10 75 6 0 10 -11 10 -24z m1150 14 c0 -5 -7 -10 -15 -10
-8 0 -15 -4 -15 -10 0 -5 7 -10 15 -10 8 0 15 -4 15 -10 0 -5 -7 -10 -15 -10
-11 0 -15 -12 -15 -45 0 -25 -4 -45 -9 -45 -16 0 -19 103 -4 128 14 22 43 31
43 12z m166 -59 c13 -35 24 -67 24 -72 0 -17 -18 -9 -23 11 -4 15 -14 20 -42
20 -28 0 -38 -5 -42 -20 -3 -11 -9 -20 -14 -20 -13 0 -11 8 11 70 12 30 23 61
25 68 11 30 38 4 61 -57z m84 -12 c0 -55 -3 -69 -15 -69 -12 0 -15 14 -15 68
0 38 3 72 6 75 16 16 24 -9 24 -74z m270 66 c0 -8 -4 -15 -10 -15 -5 0 -10 7
-10 15 0 8 5 15 10 15 6 0 10 -7 10 -15z m150 -9 c0 -19 4 -23 20 -19 32 8 50
-15 50 -63 0 -56 -18 -57 -22 -1 -2 34 -7 42 -23 42 -16 0 -21 -8 -23 -42 -5
-72 -22 -48 -22 32 0 43 4 75 10 75 6 0 10 -11 10 -24z m124 3 c-3 -5 -10 -7
-15 -3 -5 3 -7 10 -3 15 3 5 10 7 15 3 5 -3 7 -10 3 -15z m300 5 c19 -19 20
-36 4 -52 -9 -9 -9 -12 0 -12 18 0 15 -57 -4 -64 -9 -3 -31 -6 -50 -6 l-34 0
0 75 0 75 34 0 c19 0 42 -7 50 -16z m267 3 c-1 -12 -15 -9 -19 4 -3 6 1 10 8
8 6 -3 11 -8 11 -12z m823 -113 c33 -24 55 -2 58 61 4 71 23 72 23 1 0 -64
-16 -86 -61 -86 -43 0 -64 30 -64 91 0 67 14 70 20 4 4 -40 11 -61 24 -71z
m686 52 l0 -73 -42 1 c-35 1 -45 6 -57 27 -13 24 -13 29 3 54 14 21 24 26 47
23 22 -4 29 -1 29 12 0 15 8 30 17 30 2 0 3 -33 3 -74z m1160 1 l0 -74 -41 -1
c-50 -2 -69 11 -69 49 0 39 26 62 62 55 25 -5 28 -3 28 19 0 14 5 25 10 25 6
0 10 -31 10 -73z m390 65 c0 -13 -12 -22 -22 -16 -10 6 -1 24 13 24 5 0 9 -4
9 -8z m170 -7 c0 -8 -4 -15 -10 -15 -5 0 -10 7 -10 15 0 8 5 15 10 15 6 0 10
-7 10 -15z m471 2 c-1 -12 -15 -9 -19 4 -3 6 1 10 8 8 6 -3 11 -8 11 -12z
m149 -11 c0 -19 4 -23 20 -19 32 8 50 -15 50 -63 0 -56 -18 -57 -22 -1 -2 34
-7 42 -23 42 -16 0 -21 -8 -23 -42 -5 -72 -22 -48 -22 32 0 43 4 75 10 75 6 0
10 -11 10 -24z m-6440 -1 c0 -8 7 -15 15 -15 8 0 15 -4 15 -10 0 -5 -7 -10
-15 -10 -10 0 -15 -11 -15 -35 0 -24 5 -35 15 -35 8 0 15 -5 15 -11 0 -6 -10
-9 -22 -7 -19 2 -24 10 -26 43 -2 22 -9 44 -15 48 -9 6 -9 10 1 14 6 2 12 11
12 19 0 8 5 14 10 14 6 0 10 -7 10 -15z m1810 0 c0 -8 9 -15 20 -15 11 0 20
-4 20 -10 0 -5 -9 -10 -20 -10 -16 0 -20 -7 -20 -31 0 -22 5 -32 20 -36 26 -7
26 -23 0 -23 -30 0 -47 51 -41 123 1 21 21 23 21 2z m3750 0 c0 -8 9 -15 20
-15 11 0 20 -4 20 -10 0 -5 -9 -10 -20 -10 -16 0 -20 -7 -20 -31 0 -22 5 -32
20 -36 26 -7 26 -23 0 -23 -30 0 -47 51 -41 123 1 21 21 23 21 2z m320 0 c0
-8 9 -15 20 -15 11 0 20 -4 20 -10 0 -5 -9 -10 -20 -10 -16 0 -20 -7 -20 -31
0 -22 5 -32 20 -36 26 -7 26 -23 0 -23 -30 0 -47 51 -41 123 1 21 21 23 21 2z
m470 0 c0 -8 9 -15 20 -15 11 0 20 -4 20 -10 0 -5 -9 -10 -20 -10 -16 0 -20
-7 -20 -31 0 -22 5 -32 20 -36 26 -7 26 -23 0 -23 -30 0 -47 51 -41 123 1 21
21 23 21 2z m-7003 -26 c15 -13 18 -99 4 -99 -6 0 -11 19 -13 43 -2 34 -7 42
-23 42 -16 0 -21 -8 -23 -42 -4 -61 -22 -53 -22 10 0 51 0 52 32 54 17 1 38
-2 45 -8z m191 -1 c7 -7 12 -20 12 -30 0 -14 -8 -18 -40 -18 -42 0 -50 -9 -26
-29 11 -9 20 -9 35 -2 28 15 36 14 21 -4 -15 -18 -61 -20 -78 -3 -17 17 -15
64 4 82 18 19 55 21 72 4z m103 2 c14 -8 19 -21 19 -54 l0 -44 -42 2 c-39 1
-43 3 -43 26 0 19 7 27 33 36 35 11 33 24 -5 24 -12 0 -23 5 -23 10 0 13 36
13 61 0z m119 -5 c11 -13 8 -14 -18 -9 -42 8 -51 -13 -10 -24 26 -6 33 -13 33
-33 0 -20 -6 -25 -31 -27 -20 -2 -36 3 -45 14 -13 16 -12 17 6 10 33 -13 50
-12 50 4 0 8 -10 16 -23 18 -43 6 -42 62 1 62 14 0 30 -7 37 -15z m508 3 c7
-7 12 -20 12 -30 0 -14 -8 -18 -40 -18 -42 0 -50 -9 -26 -29 11 -9 20 -9 35
-2 28 15 36 14 21 -4 -15 -18 -61 -20 -78 -3 -17 17 -15 64 4 82 18 19 55 21
72 4z m106 -34 c-5 -20 17 -54 35 -54 16 0 32 29 29 52 -2 17 -11 24 -31 26
-32 4 -27 22 7 22 31 0 46 -18 46 -56 0 -39 -21 -58 -60 -52 -26 4 -30 1 -30
-19 0 -13 -4 -23 -10 -23 -11 0 -14 133 -3 143 11 11 23 -16 17 -39z m208 29
c22 -20 23 -56 2 -77 -23 -24 -70 -20 -88 6 -21 30 -20 44 4 68 24 24 57 26
82 3z m62 -28 c7 -37 26 -49 26 -16 0 57 36 70 46 16 8 -46 21 -44 29 5 4 22
11 40 17 40 6 0 7 -11 4 -26 -4 -15 -10 -39 -13 -55 -9 -46 -38 -38 -50 14
l-10 42 -8 -42 c-11 -60 -39 -59 -54 1 -13 54 -14 69 -2 62 5 -3 12 -22 15
-41z m230 29 c28 -28 20 -44 -24 -44 -28 0 -40 -4 -40 -14 0 -18 30 -30 44
-16 5 5 16 10 24 10 12 0 12 -3 2 -15 -16 -19 -64 -19 -80 0 -7 8 -12 26 -12
40 0 50 52 74 86 39z m70 5 c8 13 36 15 36 2 0 -5 -9 -11 -20 -14 -16 -4 -20
-14 -20 -46 0 -23 -4 -41 -10 -41 -6 0 -10 26 -10 58 0 35 4 52 9 43 6 -9 11
-10 15 -2z m188 -6 c38 -34 15 -93 -36 -93 -39 0 -58 19 -58 57 0 47 57 70 94
36z m444 -28 c8 -45 20 -45 28 0 4 20 13 35 21 35 8 0 17 -15 21 -35 6 -34 24
-49 24 -21 0 22 20 69 26 63 4 -3 1 -29 -6 -56 -9 -38 -17 -51 -30 -51 -14 0
-20 11 -26 43 l-8 42 -9 -42 c-13 -59 -39 -58 -55 2 -15 55 -15 68 -2 60 5 -3
12 -21 16 -40z m174 -10 c0 -30 -4 -55 -10 -55 -5 0 -10 18 -10 39 0 22 -3 46
-6 55 -4 11 -1 16 10 16 13 0 16 -11 16 -55z m280 0 c0 -30 -4 -55 -10 -55 -5
0 -10 20 -10 45 0 25 -4 45 -10 45 -5 0 -10 5 -10 10 0 6 9 10 20 10 18 0 20
-7 20 -55z m117 44 c15 -13 18 -99 4 -99 -6 0 -11 19 -13 43 -2 34 -7 42 -23
42 -16 0 -21 -8 -23 -42 -4 -61 -22 -53 -22 10 0 51 0 52 32 54 17 1 38 -2 45
-8z m257 0 c8 13 36 15 36 2 0 -5 -9 -11 -20 -14 -16 -4 -20 -14 -20 -46 0
-23 -4 -41 -10 -41 -6 0 -10 26 -10 58 0 35 4 52 9 43 6 -9 11 -10 15 -2z
m117 1 c14 -8 19 -21 19 -54 l0 -44 -42 2 c-33 1 -44 5 -46 19 -5 25 16 47 45
47 14 0 21 4 18 10 -3 6 -17 10 -31 10 -13 0 -24 5 -24 10 0 13 36 13 61 0z
m79 -45 c0 -30 -4 -55 -10 -55 -5 0 -10 20 -10 45 0 25 -4 45 -10 45 -5 0 -10
5 -10 10 0 6 9 10 20 10 18 0 20 -7 20 -55z m119 36 c14 -24 14 -91 2 -91 -6
0 -11 19 -13 42 -2 33 -8 44 -22 46 -24 5 -36 -14 -36 -55 0 -18 -4 -33 -10
-33 -10 0 -15 92 -5 101 2 3 20 6 39 7 26 2 38 -2 45 -17z m61 -28 l13 -48 10
43 c13 54 35 53 52 -3 l12 -40 8 43 c4 23 12 45 16 48 12 7 11 -23 -2 -68 -12
-46 -37 -50 -46 -8 -8 44 -20 45 -27 4 -10 -49 -35 -41 -52 16 -16 53 -17 60
-5 60 5 0 14 -21 21 -47z m218 35 c7 -7 12 -31 12 -54 l0 -42 -42 2 c-39 1
-43 3 -43 26 0 19 7 27 33 36 35 11 33 24 -5 24 -12 0 -23 5 -23 10 0 14 54
12 68 -2z m62 -25 c19 -57 26 -59 39 -9 6 25 16 46 21 46 13 0 13 3 -5 -58
-20 -67 -46 -71 -64 -11 -7 23 -15 47 -18 55 -3 8 -1 14 5 14 6 0 16 -17 22
-37z m174 21 c28 -28 20 -44 -24 -44 -28 0 -40 -4 -40 -14 0 -18 30 -30 44
-16 5 5 16 10 24 10 12 0 12 -3 2 -15 -16 -19 -64 -19 -80 0 -7 8 -12 26 -12
40 0 50 52 74 86 39z m396 -4 c15 -23 12 -66 -5 -80 -8 -7 -28 -10 -45 -8 -26
4 -30 1 -30 -19 0 -13 -4 -23 -10 -23 -6 0 -10 31 -10 74 l0 74 45 -2 c28 -1
50 -7 55 -16z m140 -38 c0 -72 -12 -92 -55 -92 -19 0 -35 5 -35 11 0 6 7 8 16
5 17 -7 54 10 54 24 0 5 -13 7 -28 4 -34 -7 -62 16 -62 51 0 36 26 56 71 53
l39 -3 0 -53z m66 49 c8 7 17 9 21 5 4 -3 -3 -13 -15 -22 -15 -11 -22 -25 -22
-50 0 -19 -4 -34 -10 -34 -11 0 -14 93 -3 104 4 4 9 2 11 -4 3 -8 8 -7 18 1z
m122 -3 c7 -7 12 -31 12 -54 l0 -42 -42 2 c-33 1 -44 5 -46 19 -5 25 16 47 45
47 14 0 21 4 18 10 -3 6 -17 10 -31 10 -13 0 -24 5 -24 10 0 14 54 12 68 -2z
m260 0 c7 -7 12 -20 12 -30 0 -14 -8 -18 -40 -18 -42 0 -52 -13 -22 -29 11 -6
24 -6 36 1 20 11 31 5 21 -11 -3 -6 -22 -11 -40 -11 -36 0 -55 20 -55 59 0 41
59 68 88 39z m111 -39 l14 -44 15 45 c16 50 20 56 28 48 7 -7 -25 -118 -38
-135 -12 -15 -48 -18 -48 -4 0 5 10 11 22 14 16 5 19 9 11 19 -18 23 -43 110
-31 106 7 -3 18 -24 27 -49z m173 34 c38 -34 15 -93 -36 -93 -39 0 -58 19 -58
57 0 47 57 70 94 36z m68 -29 c0 -41 2 -45 23 -42 18 2 23 10 25 46 5 61 22
52 22 -12 l0 -54 -42 2 -43 1 -3 53 c-2 31 1 52 7 52 6 0 11 -20 11 -46z m136
37 c8 7 17 9 21 5 4 -3 -3 -13 -15 -22 -15 -11 -22 -25 -22 -50 0 -19 -4 -34
-10 -34 -11 0 -14 93 -3 104 4 4 9 2 11 -4 3 -8 8 -7 18 1z m194 -11 c15 -23
12 -66 -5 -80 -8 -7 -28 -10 -45 -8 -26 4 -30 1 -30 -19 0 -13 -4 -23 -10 -23
-6 0 -10 31 -10 74 l0 74 45 -2 c28 -1 50 -7 55 -16z m64 9 c8 13 36 15 36 2
0 -5 -9 -11 -20 -14 -16 -4 -20 -14 -20 -46 0 -23 -4 -41 -10 -41 -6 0 -10 26
-10 58 0 35 4 52 9 43 6 -9 11 -10 15 -2z m148 -6 c10 -9 18 -26 18 -39 0 -57
-81 -73 -109 -23 -13 24 -13 29 2 53 20 30 61 35 89 9z m198 -21 c0 -41 15
-63 36 -55 9 3 14 21 14 49 0 24 5 44 10 44 6 0 10 -24 10 -53 l0 -53 -37 -2
c-21 -2 -40 2 -44 10 -12 18 -11 98 1 98 6 0 10 -17 10 -38z m190 23 c7 -9 9
-19 5 -23 -4 -4 -10 -1 -12 6 -7 17 -50 15 -57 -4 -10 -27 -7 -43 13 -54 15
-7 24 -6 36 6 18 19 30 13 22 -11 -4 -9 -19 -15 -41 -15 -37 0 -56 20 -56 59
0 43 63 69 90 36z m150 -40 c0 -30 -4 -55 -10 -55 -5 0 -10 18 -10 39 0 22 -3
46 -6 55 -4 11 -1 16 10 16 13 0 16 -11 16 -55z m60 0 c14 -43 13 -43 41 30
17 44 21 17 6 -35 -22 -77 -56 -61 -74 35 -8 42 11 21 27 -30z m110 0 c0 -30
-4 -55 -10 -55 -5 0 -10 18 -10 39 0 22 -3 46 -6 55 -4 11 -1 16 10 16 13 0
16 -11 16 -55z m149 4 l14 -44 15 45 c17 51 20 56 28 48 6 -7 -25 -117 -39
-135 -11 -15 -47 -17 -47 -3 0 6 9 10 21 10 16 0 19 4 14 18 -35 83 -44 113
-33 110 6 -2 18 -24 27 -49z m151 4 l13 -48 10 43 c13 54 35 53 52 -3 l12 -40
8 43 c4 23 12 45 16 48 12 7 11 -23 -2 -68 -12 -46 -37 -50 -46 -8 -8 44 -20
45 -27 4 -10 -49 -35 -41 -52 16 -16 53 -17 60 -5 60 5 0 14 -21 21 -47z m180
-8 c0 -30 -4 -55 -10 -55 -5 0 -10 20 -10 45 0 25 -4 45 -10 45 -5 0 -10 5
-10 10 0 6 9 10 20 10 18 0 20 -7 20 -55z m-3010 -45 c0 -5 -4 -10 -10 -10 -5
0 -10 5 -10 10 0 6 5 10 10 10 6 0 10 -4 10 -10z m-2016 -196 c19 -19 20 -36
4 -52 -9 -9 -9 -12 0 -12 18 0 15 -57 -4 -64 -9 -3 -31 -6 -50 -6 l-34 0 0 75
0 75 34 0 c19 0 42 -7 50 -16z m267 3 c-1 -12 -15 -9 -19 4 -3 6 1 10 8 8 6
-3 11 -8 11 -12z m889 -11 c0 -19 4 -23 20 -19 32 8 50 -15 50 -63 0 -56 -18
-57 -22 -1 -2 34 -7 42 -23 42 -16 0 -21 -8 -23 -42 -5 -72 -22 -48 -22 32 0
43 4 75 10 75 6 0 10 -11 10 -24z m938 -33 c11 -32 23 -66 27 -75 4 -11 3 -18
-5 -18 -6 0 -14 9 -17 20 -4 16 -14 20 -43 20 -29 0 -39 -4 -43 -20 -3 -11
-10 -20 -15 -20 -6 0 1 34 15 75 32 96 52 101 81 18z m82 -18 c0 -43 -4 -75
-10 -75 -6 0 -10 32 -10 75 0 43 4 75 10 75 6 0 10 -32 10 -75z m250 31 c22 5
31 1 39 -14 14 -26 14 -92 1 -92 -5 0 -10 13 -10 29 0 42 -9 61 -30 61 -21 0
-30 -19 -30 -61 0 -16 -4 -29 -10 -29 -12 0 -14 133 -2 144 4 4 8 -4 10 -18 3
-22 7 -25 32 -20z m-1350 19 c0 -8 7 -15 15 -15 8 0 15 -4 15 -10 0 -5 -7 -10
-15 -10 -10 0 -15 -11 -15 -35 0 -24 5 -35 15 -35 8 0 15 -5 15 -11 0 -6 -10
-9 -22 -7 -19 2 -24 10 -26 43 -2 22 -9 44 -15 48 -9 6 -9 10 1 14 6 2 12 11
12 19 0 8 5 14 10 14 6 0 10 -7 10 -15z m1570 1 c0 -7 10 -17 23 -21 l22 -8
-22 -4 c-18 -3 -23 -11 -23 -38 0 -25 5 -34 23 -40 19 -6 20 -8 4 -12 -33 -9
-47 5 -47 46 0 22 -6 42 -12 45 -10 5 -10 7 0 12 6 3 12 12 12 20 0 8 5 14 10
14 6 0 10 -6 10 -14z m-2566 -27 c8 13 36 15 36 2 0 -5 -9 -11 -20 -14 -16 -4
-20 -14 -20 -46 0 -23 -4 -41 -10 -41 -6 0 -10 26 -10 58 0 35 4 52 9 43 6 -9
11 -10 15 -2z m117 1 c14 -8 19 -21 19 -54 l0 -44 -42 2 c-33 1 -44 5 -46 19
-5 25 16 47 45 47 14 0 21 4 18 10 -3 6 -17 10 -31 10 -13 0 -24 5 -24 10 0
13 36 13 61 0z m79 -45 c0 -30 -4 -55 -10 -55 -5 0 -10 20 -10 45 0 25 -4 45
-10 45 -5 0 -10 5 -10 10 0 6 9 10 20 10 18 0 20 -7 20 -55z m119 36 c14 -24
14 -91 2 -91 -6 0 -11 19 -13 42 -2 33 -8 44 -22 46 -24 5 -36 -14 -36 -55 0
-18 -4 -33 -10 -33 -10 0 -15 92 -5 101 2 3 20 6 39 7 26 2 38 -2 45 -17z m61
-28 l13 -48 10 43 c13 54 35 53 52 -3 l12 -40 8 43 c4 23 12 45 16 48 12 7 11
-23 -2 -68 -12 -46 -37 -50 -46 -8 -8 44 -20 45 -27 4 -10 -49 -35 -41 -52 16
-16 53 -17 60 -5 60 5 0 14 -21 21 -47z m218 35 c7 -7 12 -31 12 -54 l0 -42
-42 2 c-39 1 -43 3 -43 26 0 19 7 27 33 36 35 11 33 24 -5 24 -12 0 -23 5 -23
10 0 14 54 12 68 -2z m62 -25 c19 -57 26 -59 39 -9 6 25 16 46 21 46 13 0 13
3 -5 -58 -20 -67 -46 -71 -64 -11 -7 23 -15 47 -18 55 -3 8 -1 14 5 14 6 0 16
-17 22 -37z m174 21 c28 -28 20 -44 -24 -44 -28 0 -40 -4 -40 -14 0 -18 30
-30 44 -16 5 5 16 10 24 10 12 0 12 -3 2 -15 -16 -19 -64 -19 -80 0 -7 8 -12
26 -12 40 0 50 52 74 86 39z m434 4 c7 -7 12 -20 12 -30 0 -14 -8 -18 -40 -18
-42 0 -50 -9 -26 -29 11 -9 20 -9 35 -2 28 15 36 14 21 -4 -15 -18 -61 -20
-78 -3 -17 17 -15 64 4 82 18 19 55 21 72 4z m174 -5 c38 -34 15 -93 -36 -93
-39 0 -58 19 -58 57 0 47 57 70 94 36z m72 6 c10 16 47 13 68 -6 39 -35 9 -98
-44 -91 -24 4 -28 1 -28 -19 0 -13 -4 -23 -10 -23 -6 0 -10 32 -10 78 0 47 4
72 9 63 6 -9 11 -10 15 -2z m194 -1 c7 -7 12 -20 12 -30 0 -14 -8 -18 -40 -18
-42 0 -50 -9 -26 -29 11 -9 20 -9 35 -2 28 15 36 14 21 -4 -15 -18 -61 -20
-78 -3 -17 17 -15 64 4 82 18 19 55 21 72 4z m119 1 c15 -13 18 -99 4 -99 -6
0 -11 19 -13 43 -2 34 -7 42 -23 42 -16 0 -21 -8 -23 -42 -4 -61 -22 -53 -22
10 0 51 0 52 32 54 17 1 38 -2 45 -8z m443 -9 c12 -23 8 -25 -19 -8 -28 17
-51 3 -51 -31 0 -36 26 -48 52 -25 21 20 37 11 18 -11 -16 -19 -64 -19 -80 0
-7 8 -12 26 -12 40 0 14 5 32 12 40 18 22 67 19 80 -5z m228 8 c7 -7 12 -30
12 -53 0 -41 0 -41 -39 -43 -33 -2 -41 1 -46 19 -8 25 15 49 47 49 10 0 18 5
18 10 0 6 -14 10 -31 10 -17 0 -28 4 -24 10 9 14 48 13 63 -2z m250 0 c7 -7
12 -31 12 -54 l0 -42 -42 2 c-39 1 -43 3 -43 26 0 19 7 27 33 36 35 11 33 24
-5 24 -12 0 -23 5 -23 10 0 14 54 12 68 -2z m62 0 c0 -9 3 -9 12 0 7 7 21 12
33 12 30 0 45 -19 45 -56 0 -39 -21 -58 -60 -52 -26 4 -30 1 -30 -19 0 -13 -4
-23 -10 -23 -6 0 -10 32 -10 75 0 43 4 75 10 75 6 0 10 -5 10 -12z m220 -8
c15 -23 12 -66 -5 -80 -8 -7 -28 -10 -45 -8 -26 4 -30 1 -30 -19 0 -13 -4 -23
-10 -23 -6 0 -10 31 -10 74 l0 74 45 -2 c28 -1 50 -7 55 -16z m-2137 -90 c-3
-11 -9 -23 -14 -26 -10 -6 -12 29 -2 39 13 13 21 7 16 -13z m2197 10 c0 -5 -7
-10 -15 -10 -8 0 -15 5 -15 10 0 6 7 10 15 10 8 0 15 -4 15 -10z m-1055 -439
c17 -10 54 -40 83 -68 l52 -49 0 -121 c0 -116 -1 -123 -26 -152 l-26 -31 -658
0 -657 0 -27 26 c-26 27 -26 27 -26 185 0 166 7 199 44 217 14 7 228 11 616
11 562 1 597 0 625 -18z m3485 -303 c21 -22 26 -54 12 -75 -6 -9 -20 3 -45 37
-20 27 -37 52 -37 55 0 15 52 2 70 -17z m2538 -188 c1 0 11 -15 22 -32 29 -48
26 -108 -6 -143 -14 -16 -29 -24 -34 -19 -5 5 -24 53 -44 106 -38 106 -36 114
29 96 16 -4 31 -8 33 -8z m-9650 -505 c-22 -44 -38 -51 -38 -14 0 32 19 59 40
59 19 0 19 -1 -2 -45z m4852 -435 c0 -7 -1138 -10 -3392 -10 -3211 0 -3395 -1
-3427 -18 -19 -9 -44 -30 -55 -45 -21 -28 -21 -29 -24 -1563 -1 -1004 -6
-1534 -12 -1534 -14 0 -14 3039 1 3077 14 37 47 73 84 89 25 11 619 13 3428
14 2258 0 3397 -3 3397 -10z m-4705 -297 c11 -108 41 -235 76 -319 38 -91 128
-229 202 -310 35 -39 43 -52 24 -40 -27 18 -27 18 -20 0 3 -11 11 -22 17 -26
7 -5 7 -8 -1 -8 -7 0 -13 -6 -13 -14 0 -8 -10 -16 -22 -18 -17 -2 -23 -9 -22
-25 1 -31 -7 -29 -58 13 -177 148 -310 435 -325 707 l-6 107 70 0 71 0 7 -67z
m1809 10 c-13 -131 -39 -199 -121 -327 -146 -226 -372 -356 -620 -356 -248 0
-445 114 -578 335 -48 80 -94 229 -102 326 l-6 79 717 0 716 0 -6 -57z m3646
48 c0 -39 -34 -172 -63 -244 -51 -129 -93 -193 -192 -293 -143 -144 -281 -204
-470 -204 -150 0 -297 45 -417 128 -64 44 -181 171 -222 242 -72 122 -116 246
-116 328 l0 52 740 0 c439 0 740 -4 740 -9z m70 5 c0 -2 -13 -6 -30 -8 -16 -3
-30 -1 -30 4 0 4 14 8 30 8 17 0 30 -2 30 -4z m960 -38 c0 -111 -22 -501 -36
-653 -47 -513 -149 -900 -273 -1035 -44 -48 -122 -90 -167 -90 -18 0 -35 -4
-38 -9 -5 -7 -56 -22 -56 -17 0 1 13 38 29 82 50 137 110 385 136 560 35 238
59 535 91 1097 l6 107 154 0 154 0 0 -42z m1540 -1213 c0 -597 -3 -905 -10
-905 -11 0 -15 1792 -3 1803 3 4 8 7 10 7 2 0 3 -407 3 -905z m-10664 758 c-9
-110 -15 -143 -28 -143 -5 0 -25 15 -44 34 -39 39 -45 86 -18 137 13 26 60 57
88 59 4 0 5 -39 2 -87z m5279 -1623 c-3 -5 -11 -10 -16 -10 -6 0 -7 5 -4 10 3
6 11 10 16 10 6 0 7 -4 4 -10z m-1780 -87 c13 -16 25 -32 25 -36 0 -15 -40
-97 -49 -97 -23 0 -41 103 -25 144 9 23 22 20 49 -11z m5897 -161 l33 -32 3
-225 c5 -336 15 -325 -308 -325 -324 0 -313 -12 -308 322 3 226 3 227 28 253
14 15 34 31 45 36 11 4 122 7 247 6 l228 -2 32 -33z m352 -94 c15 -24 0 -34
-22 -14 -33 29 -73 -5 -52 -45 11 -20 50 -27 50 -9 0 6 9 10 19 10 11 0 23 9
26 20 7 24 51 37 74 23 10 -6 16 -24 16 -44 0 -31 -3 -34 -35 -37 -23 -3 -38
2 -47 13 -11 16 -13 16 -28 1 -19 -19 -76 -21 -93 -4 -19 19 -15 85 6 97 25
15 73 9 86 -11z m226 -38 l0 -60 -40 0 c-33 0 -42 4 -51 24 -15 32 4 66 36 66
16 0 25 6 25 15 0 8 7 15 15 15 12 0 15 -13 15 -60z m820 50 c0 -5 -7 -10 -15
-10 -8 0 -15 5 -15 10 0 6 7 10 15 10 8 0 15 -4 15 -10z m-70 -10 c0 -5 7 -10
15 -10 8 0 15 -4 15 -10 0 -5 -7 -10 -15 -10 -9 0 -15 -9 -15 -25 0 -16 6 -25
15 -25 8 0 15 -5 15 -11 0 -6 -10 -9 -22 -7 -17 2 -24 11 -26 33 -2 16 -9 33
-14 36 -7 5 -6 12 3 23 16 18 29 20 29 6z m-649 -37 c8 -21 5 -23 -26 -23 -19
0 -35 -5 -35 -11 0 -7 11 -9 31 -5 22 4 29 2 27 -7 -3 -6 -19 -13 -36 -15 -40
-4 -62 31 -42 67 16 30 69 26 81 -6z m143 -27 c0 -53 -22 -79 -58 -74 -30 5
-32 28 -2 28 13 0 27 4 30 9 4 5 -3 7 -14 4 -26 -7 -50 13 -50 41 0 32 20 46
60 43 35 -3 35 -3 34 -51z m94 42 c21 -21 13 -38 -18 -38 -16 0 -30 -5 -30
-11 0 -7 11 -8 30 -4 25 5 29 4 24 -9 -8 -22 -70 -22 -78 0 -16 41 1 74 39 74
12 0 26 -5 33 -12z m102 -8 c15 -28 13 -70 -4 -70 -9 0 -16 12 -18 33 -2 17
-7 32 -13 32 -5 0 -11 -15 -13 -32 -5 -52 -32 -43 -32 10 0 43 1 44 35 45 25
1 38 -4 45 -18z m98 8 c21 -21 13 -38 -18 -38 -16 0 -30 -5 -30 -11 0 -7 11
-8 31 -4 24 5 30 4 27 -6 -6 -18 -55 -24 -74 -8 -31 25 -10 79 31 79 12 0 26
-5 33 -12z m82 2 c0 -4 -7 -10 -15 -14 -9 -3 -15 -18 -15 -36 0 -20 -5 -30
-15 -30 -11 0 -15 11 -15 38 0 21 2 41 5 44 9 8 55 6 55 -2z m78 -2 c7 -7 12
-27 12 -45 0 -32 -1 -33 -40 -33 -22 0 -40 2 -40 4 0 2 -3 11 -6 19 -4 10 4
21 23 31 26 14 26 15 6 16 -13 0 -23 5 -23 10 0 14 54 12 68 -2z m130 -36 c2
-33 0 -42 -12 -42 -11 0 -16 9 -16 29 0 16 -3 37 -6 46 -5 13 -2 16 12 13 14
-2 20 -13 22 -46z m100 36 c7 -7 12 -21 12 -33 0 -28 -19 -45 -50 -45 -31 0
-50 17 -50 45 0 12 5 26 12 33 15 15 61 15 76 0z m106 -4 c12 -31 7 -74 -9
-74 -11 0 -15 11 -15 36 0 45 -24 42 -28 -4 -5 -48 -32 -42 -32 6 0 21 3 42 7
45 13 14 71 7 77 -9z m-7749 -64 c-3 -5 -1 -10 4 -10 12 0 14 -51 5 -87 -7
-27 -33 -38 -50 -21 -17 16 -3 81 22 109 18 20 29 26 19 9z m-6895 -20 c0 -13
7 -20 20 -20 11 0 20 -7 20 -15 0 -8 -9 -15 -20 -15 -13 0 -20 -7 -20 -20 0
-11 -7 -20 -15 -20 -8 0 -15 9 -15 20 0 13 -7 20 -20 20 -11 0 -20 7 -20 15 0
8 9 15 20 15 13 0 20 7 20 20 0 11 7 20 15 20 8 0 15 -9 15 -20z m18390 0 c0
-13 7 -20 20 -20 11 0 20 -7 20 -15 0 -8 -9 -15 -20 -15 -13 0 -20 -7 -20 -20
0 -11 -7 -20 -15 -20 -8 0 -15 9 -15 20 0 13 -7 20 -20 20 -11 0 -20 7 -20 15
0 8 9 15 20 15 13 0 20 7 20 20 0 11 7 20 15 20 8 0 15 -9 15 -20z m-4971
-124 c46 -24 66 -92 37 -131 -14 -19 -15 -19 -35 -1 -12 11 -21 25 -21 32 0
18 -21 29 -29 15 -5 -8 -12 -7 -26 3 -16 12 -17 16 -6 30 7 9 23 15 35 15 20
-1 20 -2 1 -6 -37 -9 -41 -23 -5 -20 42 5 51 29 18 51 -53 34 -98 -18 -64 -74
16 -28 21 -71 10 -83 -11 -11 -35 5 -49 34 -48 91 42 182 134 135z m240 0 c38
-20 67 -96 45 -119 -11 -11 -54 16 -54 35 0 10 -7 30 -16 43 -9 14 -12 25 -8
25 5 0 2 4 -5 9 -23 14 -51 -6 -51 -35 0 -18 4 -25 14 -21 20 8 28 -4 15 -20
-9 -10 -8 -13 4 -13 9 0 17 8 20 18 4 16 4 16 12 -1 9 -22 -19 -47 -46 -40 -9
3 -26 0 -36 -6 -25 -13 -43 3 -43 38 1 77 80 122 149 87z m280 -45 c19 -45 11
-76 -19 -75 -14 1 -29 -4 -35 -11 -5 -7 -19 -15 -29 -19 -14 -5 -16 -3 -9 6
13 16 14 66 2 74 -5 3 -9 0 -9 -5 0 -6 -4 -11 -10 -11 -14 0 -12 27 3 34 10 5
10 7 0 12 -23 10 -14 34 12 34 25 0 37 -30 13 -30 -8 -1 -6 -6 5 -14 9 -7 17
-24 17 -37 0 -23 2 -22 21 9 20 31 20 34 4 58 -16 25 -16 25 3 15 11 -6 25
-23 31 -40z m-152 10 c-4 -17 0 -36 8 -47 20 -26 18 -33 -7 -43 -39 -15 -51
34 -23 89 20 38 29 38 22 1z m-177 -1 c0 -5 -4 -10 -10 -10 -5 0 -10 5 -10 10
0 6 5 10 10 10 6 0 10 -4 10 -10z m-6336 -72 c9 -35 7 -73 -3 -62 -13 14 -23
84 -13 84 5 0 12 -10 16 -22z m33 -205 c-3 -10 -5 -2 -5 17 0 19 2 27 5 18 2
-10 2 -26 0 -35z"/>
<path d="M950 9035 c0 -22 4 -26 23 -23 14 2 22 10 22 23 0 13 -8 21 -22 23
-19 3 -23 -1 -23 -23z"/>
<path d="M950 8955 c0 -23 4 -26 28 -23 19 2 27 9 27 23 0 14 -8 21 -27 23
-24 3 -28 0 -28 -23z"/>
<path d="M1233 8953 c-7 -2 -13 -11 -13 -20 0 -20 34 -12 38 10 3 17 -3 20
-25 10z"/>
<path d="M1841 8946 c-9 -10 -9 -16 -1 -21 12 -7 40 11 40 26 0 14 -26 10 -39
-5z"/>
<path d="M2140 9000 c0 -5 12 -10 26 -10 14 0 23 4 19 10 -3 6 -15 10 -26 10
-10 0 -19 -4 -19 -10z"/>
<path d="M9590 7221 l0 -81 50 0 c61 0 100 31 100 78 0 49 -27 72 -92 79 l-58
6 0 -82z"/>
<path d="M11272 7183 c-20 -8 -42 -59 -42 -98 0 -67 74 -115 131 -85 24 13 49
61 49 95 0 33 -24 81 -45 89 -19 7 -74 7 -93 -1z"/>
<path d="M6702 7167 c-62 -66 -19 -177 69 -177 11 0 34 13 50 29 39 40 41 109
4 146 -33 34 -93 34 -123 2z"/>
<path d="M7285 7165 c-37 -37 -35 -106 4 -146 81 -80 191 25 136 130 -16 33
-33 41 -81 41 -24 0 -43 -8 -59 -25z"/>
<path d="M7955 7188 c-22 -12 -45 -37 -45 -50 0 -4 36 -8 80 -8 l80 0 -11 24
c-11 23 -47 46 -72 46 -7 0 -21 -6 -32 -12z"/>
<path d="M9103 7190 c-19 -8 -43 -38 -43 -54 0 -3 34 -6 75 -6 56 0 75 3 75
13 0 34 -67 64 -107 47z"/>
<path d="M9981 7166 c-52 -56 -27 -158 41 -171 49 -9 87 9 104 51 18 43 11 89
-19 122 -29 32 -95 31 -126 -2z"/>
<path d="M12703 7190 c-19 -8 -43 -38 -43 -54 0 -3 34 -6 75 -6 56 0 75 3 75
13 0 34 -67 64 -107 47z"/>
<path d="M5939 6498 c-12 -40 -24 -79 -27 -85 -3 -10 13 -13 63 -13 50 0 66 3
62 13 -2 6 -15 45 -28 85 -12 39 -28 72 -35 72 -7 0 -22 -33 -35 -72z"/>
<path d="M11050 6525 l0 -55 53 0 c61 0 77 11 77 55 0 44 -16 55 -77 55 l-53
0 0 -55z"/>
<path d="M11050 6340 l0 -60 63 0 c72 0 87 10 87 56 0 44 -30 64 -97 64 l-53
0 0 -60z"/>
<path d="M5121 6446 c-52 -56 -27 -158 41 -171 49 -9 87 9 104 51 18 43 11 89
-19 122 -29 32 -95 31 -126 -2z"/>
<path d="M9022 6464 c-58 -24 -70 -107 -23 -155 62 -61 141 -23 141 68 0 26
-7 56 -14 66 -21 27 -67 37 -104 21z"/>
<path d="M13883 6470 c-19 -8 -43 -38 -43 -54 0 -3 34 -6 75 -6 56 0 75 3 75
13 0 34 -67 64 -107 47z"/>
<path d="M7526 6344 c-9 -8 -16 -24 -16 -34 0 -21 36 -50 62 -50 28 0 58 37
58 70 0 29 -2 30 -44 30 -27 0 -51 -6 -60 -16z"/>
<path d="M11686 6339 c-23 -33 4 -79 46 -79 27 0 68 45 68 75 0 23 -3 25 -49
25 -39 0 -53 -4 -65 -21z"/>
<path d="M13156 6344 c-9 -8 -16 -24 -16 -34 0 -21 35 -50 61 -50 26 0 57 32
64 68 l7 32 -50 0 c-33 0 -56 -6 -66 -16z"/>
<path d="M8071 5690 c-14 -42 -15 -40 15 -40 22 0 24 3 18 23 -14 47 -21 51
-33 17z"/>
<path d="M8990 5695 c0 -27 26 -35 47 -14 17 17 4 39 -23 39 -19 0 -24 -5 -24
-25z"/>
<path d="M8990 5635 c0 -21 5 -25 30 -25 23 0 30 5 30 19 0 19 -18 31 -46 31
-8 0 -14 -10 -14 -25z"/>
<path d="M10751 5661 c-13 -23 -6 -47 16 -55 23 -9 44 14 41 43 -4 33 -42 41
-57 12z"/>
<path d="M11904 5666 c-12 -31 0 -51 31 -51 27 0 30 3 30 30 0 25 -4 30 -28
33 -17 2 -29 -2 -33 -12z"/>
<path d="M6207 5674 c-15 -15 -6 -24 24 -24 20 0 29 4 27 13 -5 14 -40 21 -51
11z"/>
<path d="M6320 5626 c0 -22 19 -30 35 -16 22 18 18 30 -10 30 -15 0 -25 -6
-25 -14z"/>
<path d="M6937 5674 c-15 -15 -6 -24 24 -24 20 0 29 4 27 13 -5 14 -40 21 -51
11z"/>
<path d="M7240 5661 c-12 -23 -5 -47 16 -55 20 -8 54 11 54 29 0 45 -49 64
-70 26z"/>
<path d="M7547 5674 c-15 -15 -6 -24 24 -24 20 0 29 4 27 13 -5 14 -40 21 -51
11z"/>
<path d="M7797 5674 c-12 -12 -8 -51 7 -63 24 -20 58 4 54 37 -2 20 -9 28 -28
30 -14 2 -29 0 -33 -4z"/>
<path d="M9200 5626 c0 -22 19 -30 35 -16 22 18 18 30 -10 30 -15 0 -25 -6
-25 -14z"/>
<path d="M9670 5626 c0 -19 14 -28 34 -20 25 10 19 34 -9 34 -15 0 -25 -6 -25
-14z"/>
<path d="M9907 5674 c-15 -15 -6 -24 24 -24 20 0 29 4 27 13 -5 14 -40 21 -51
11z"/>
<path d="M10286 5665 c-11 -29 -7 -44 15 -55 27 -15 51 5 47 39 -2 20 -9 27
-29 29 -17 2 -29 -3 -33 -13z"/>
<path d="M10415 5669 c-4 -5 -4 -21 -1 -35 5 -17 13 -24 31 -24 18 0 26 7 31
24 8 32 -2 46 -31 46 -13 0 -27 -5 -30 -11z"/>
<path d="M10630 5626 c0 -22 19 -30 35 -16 22 18 18 30 -10 30 -15 0 -25 -6
-25 -14z"/>
<path d="M10887 5674 c-15 -15 -6 -24 24 -24 20 0 29 4 27 13 -5 14 -40 21
-51 11z"/>
<path d="M11167 5673 c-14 -13 -6 -53 12 -62 28 -16 56 9 47 42 -5 20 -13 27
-30 27 -12 0 -26 -3 -29 -7z"/>
<path d="M11554 5654 c-9 -35 18 -59 48 -43 30 16 21 63 -14 67 -23 3 -29 -2
-34 -24z"/>
<path d="M11770 5661 c-12 -23 -5 -47 16 -55 21 -8 42 3 49 25 14 42 -44 68
-65 30z"/>
<path d="M7940 5375 c0 -20 5 -25 24 -25 25 0 36 15 29 38 -3 6 -16 12 -29 12
-19 0 -24 -5 -24 -25z"/>
<path d="M7940 5315 c0 -21 5 -25 30 -25 23 0 30 5 30 19 0 19 -18 31 -46 31
-8 0 -14 -10 -14 -25z"/>
<path d="M10046 5368 c-9 -35 -8 -38 14 -38 11 0 20 3 20 8 0 19 -13 52 -20
52 -4 0 -10 -10 -14 -22z"/>
<path d="M8150 5306 c0 -22 19 -30 35 -16 22 18 18 30 -10 30 -15 0 -25 -6
-25 -14z"/>
<path d="M8620 5306 c0 -19 14 -28 34 -20 25 10 19 34 -9 34 -15 0 -25 -6 -25
-14z"/>
<path d="M8857 5354 c-15 -15 -6 -24 24 -24 20 0 29 4 27 13 -5 14 -40 21 -51
11z"/>
<path d="M9287 5354 c-15 -15 -6 -24 24 -24 20 0 29 4 27 13 -5 14 -40 21 -51
11z"/>
<path d="M9457 5354 c-14 -14 -7 -53 12 -63 26 -14 54 8 49 40 -2 17 -10 25
-28 27 -14 2 -29 0 -33 -4z"/>
<path d="M9597 5353 c-12 -11 -8 -50 7 -62 28 -23 63 12 51 50 -6 19 -44 26
-58 12z"/>
<path d="M9727 5354 c-15 -15 -6 -24 24 -24 20 0 29 4 27 13 -5 14 -40 21 -51
11z"/>
<path d="M10524 5309 c-9 -15 12 -33 30 -26 9 4 16 13 16 22 0 17 -35 21 -46
4z"/>
<path d="M10770 5306 c0 -19 14 -28 34 -20 25 10 19 34 -9 34 -15 0 -25 -6
-25 -14z"/>
<path d="M10901 5346 c-15 -18 -6 -52 16 -60 23 -9 44 13 41 43 -4 30 -38 40
-57 17z"/>
<path d="M11034 5334 c-9 -35 18 -59 48 -43 30 16 21 63 -14 67 -23 3 -29 -2
-34 -24z"/>
<path d="M9124 4656 c-3 -8 -4 -25 -2 -38 4 -29 51 -33 56 -5 2 10 -3 17 -12
17 -10 0 -13 -6 -9 -17 5 -17 5 -17 -12 -1 -19 17 -13 38 11 38 8 0 14 5 14
10 0 15 -40 12 -46 -4z"/>
<path d="M9200 4630 c0 -37 2 -40 28 -39 16 1 20 3 10 6 -22 5 -24 23 -3 23
21 0 19 18 -2 23 -17 4 -17 5 0 6 27 2 20 21 -8 21 -22 0 -25 -4 -25 -40z"/>
<path d="M9270 4660 c0 -5 7 -10 15 -10 10 0 16 -11 16 -32 l2 -33 4 30 c3 16
12 35 21 42 15 11 12 12 -20 13 -21 0 -38 -4 -38 -10z"/>
<path d="M9434 4658 c-4 -6 2 -19 14 -29 28 -22 28 -32 0 -24 -18 6 -20 4 -12
-5 16 -16 48 -9 52 11 1 9 -7 21 -20 27 -18 8 -19 11 -5 11 9 1 17 6 17 11 0
14 -37 13 -46 -2z"/>
<path d="M9513 4656 c9 -7 17 -25 17 -40 0 -14 5 -26 10 -26 6 0 10 14 10 30
0 17 5 30 10 30 6 0 10 5 10 10 0 6 -17 10 -37 10 -34 -1 -36 -2 -20 -14z"/>
<path d="M9599 4643 c-5 -16 -12 -34 -14 -40 -2 -7 0 -13 5 -13 6 0 10 5 10
10 0 14 28 12 33 -2 11 -31 15 2 5 35 -14 44 -25 47 -39 10z"/>
<path d="M9670 4630 c0 -22 5 -40 10 -40 6 0 10 8 10 18 1 16 1 16 11 0 5 -10
15 -18 21 -18 7 0 7 4 0 13 -7 8 -7 18 -2 27 11 18 -6 40 -31 40 -15 0 -19 -8
-19 -40z m40 16 c0 -3 -4 -8 -10 -11 -5 -3 -10 -1 -10 4 0 6 5 11 10 11 6 0
10 -2 10 -4z"/>
<path d="M9740 4660 c0 -5 5 -10 10 -10 6 0 10 -13 10 -30 0 -16 5 -30 10 -30
6 0 10 14 10 30 0 17 5 30 10 30 6 0 10 5 10 10 0 6 -13 10 -30 10 -16 0 -30
-4 -30 -10z"/>
<path d="M9830 4630 c0 -37 2 -40 28 -39 l27 0 -25 11 c-21 9 -22 12 -7 15 9
3 17 9 17 14 0 5 -8 9 -17 10 -14 0 -13 2 5 9 29 12 28 20 -3 20 -22 0 -25 -4
-25 -40z"/>
<path d="M9900 4630 c0 -37 2 -41 21 -38 12 2 27 11 33 21 14 22 -3 51 -33 55
-19 3 -21 -1 -21 -38z m40 0 c0 -11 -4 -20 -10 -20 -5 0 -10 9 -10 20 0 11 5
20 10 20 6 0 10 -9 10 -20z"/>
<path d="M13100 649 c0 -5 5 -7 10 -4 6 3 10 8 10 11 0 2 -4 4 -10 4 -5 0 -10
-5 -10 -11z"/>
<path d="M13091 621 c-7 -5 -9 -11 -4 -14 5 -3 15 -2 23 3 7 4 20 6 28 2 10
-3 13 -1 8 6 -8 14 -35 15 -55 3z"/>
<path d="M13069 572 c5 -9 11 -37 13 -62 3 -36 9 -47 28 -57 33 -16 32 -34 -4
-46 -31 -10 -49 4 -39 30 4 11 0 11 -21 3 -21 -8 -26 -7 -26 6 0 12 -4 13 -22
3 -22 -12 -22 -12 -3 -20 11 -4 15 -8 9 -8 -15 -1 -6 -47 13 -63 12 -9 19 -9
35 1 11 7 17 8 13 2 -4 -7 7 -11 32 -10 21 0 32 3 26 6 -10 3 -10 10 -1 26 16
31 28 37 62 30 22 -5 33 -1 43 13 14 18 15 18 33 -6 16 -20 22 -23 37 -14 22
13 27 34 13 54 -9 13 -11 13 -21 0 -9 -12 -10 -11 -6 8 3 12 1 22 -5 22 -5 0
-6 4 -3 10 3 5 -6 15 -21 22 -22 10 -28 10 -39 -5 -12 -16 -31 -25 -22 -9 3 4
-2 13 -10 21 -13 12 -14 11 -8 -8 5 -18 2 -21 -19 -21 -15 0 -26 -7 -29 -17
-4 -14 -5 -12 -6 5 -1 13 5 22 14 22 25 0 17 17 -22 49 -42 35 -58 40 -44 13z
m119 -98 c16 -5 22 -13 20 -28 -4 -27 -33 -28 -33 -1 0 11 -7 23 -15 27 -19 8
-2 10 28 2z m-143 -80 c0 -10 -8 -20 -17 -22 -18 -3 -26 27 -11 42 12 11 28 0
28 -20z"/>
<path d="M13160 570 c0 -5 5 -10 11 -10 5 0 7 5 4 10 -3 6 -8 10 -11 10 -2 0
-4 -4 -4 -10z"/>
<path d="M13794 675 c-7 -18 3 -35 21 -35 15 0 24 19 18 38 -6 17 -32 15 -39
-3z"/>
<path d="M13904 676 c-7 -19 3 -36 22 -36 10 0 14 8 12 22 -4 26 -26 36 -34
14z"/>
<path d="M14015 680 c-3 -5 3 -10 15 -10 12 0 18 5 15 10 -3 6 -10 10 -15 10
-5 0 -12 -4 -15 -10z"/>
<path d="M14150 665 c0 -20 4 -26 18 -23 9 2 17 12 17 23 0 11 -8 21 -17 23
-14 3 -18 -3 -18 -23z"/>
<path d="M14260 680 c0 -5 7 -10 15 -10 8 0 15 5 15 10 0 6 -7 10 -15 10 -8 0
-15 -4 -15 -10z"/>
<path d="M14460 680 c0 -5 7 -10 15 -10 8 0 15 5 15 10 0 6 -7 10 -15 10 -8 0
-15 -4 -15 -10z"/>
<path d="M14620 650 c0 -5 7 -10 15 -10 8 0 15 5 15 10 0 6 -7 10 -15 10 -8 0
-15 -4 -15 -10z"/>
<path d="M14847 684 c-16 -16 -7 -44 14 -44 15 0 20 5 17 22 -3 22 -19 33 -31
22z"/>
<path d="M11722 1109 c-19 -7 -23 -15 -20 -46 4 -51 33 -58 41 -11 3 18 8 41
12 51 8 19 1 20 -33 6z"/>
<path d="M11555 1023 c-101 -66 -168 -126 -236 -211 -132 -164 -220 -339 -289
-573 -12 -41 -30 -89 -41 -106 -13 -24 -15 -33 -5 -33 22 0 46 -35 46 -68 l0
-31 139 0 138 0 14 27 13 27 4 -27 c3 -27 5 -28 67 -28 l63 0 7 47 c4 27 22
109 40 183 36 147 43 186 50 273 2 33 8 64 14 70 5 7 12 44 16 82 4 39 11 72
15 75 11 7 43 238 34 251 -5 9 -11 7 -20 -6 -11 -15 -12 -11 -11 26 1 24 6 50
10 57 11 17 10 16 -68 -35z m-137 -535 c4 -56 -12 -138 -28 -138 -6 0 -10 3
-11 8 -3 28 0 105 6 150 10 66 26 55 33 -20z m-287 -388 c13 -8 19 -20 18 -43
-2 -30 -2 -30 -6 -5 -2 15 -14 35 -26 43 -24 17 -15 20 14 5z"/>
<path d="M10880 105 c-10 -12 -10 -15 4 -15 9 0 16 7 16 15 0 8 -2 15 -4 15
-2 0 -9 -7 -16 -15z"/>
</g>
</svg>
