<?xml version="1.0" standalone="no"?>
<!DOCTYPE svg PUBLIC "-//W3C//DTD SVG 20010904//EN"
 "http://www.w3.org/TR/2001/REC-SVG-20010904/DTD/svg10.dtd">
<svg version="1.0" xmlns="http://www.w3.org/2000/svg"
 width="1515.000000pt" height="930.000000pt" viewBox="0 0 1515.000000 930.000000"
 preserveAspectRatio="xMidYMid meet">

<g transform="translate(0.000000,930.000000) scale(0.100000,-0.100000)"
fill="#000000" stroke="none">
<path d="M0 4650 l0 -4650 7575 0 7575 0 0 4650 0 4650 -7575 0 -7575 0 0
-4650z m1200 4430 c0 -27 -4 -40 -14 -40 -7 0 -25 -9 -40 -21 -47 -37 -28
-121 31 -132 40 -7 73 9 86 43 10 26 16 30 49 30 33 0 38 -3 38 -24 0 -65
-104 -144 -173 -131 -111 21 -168 131 -121 231 18 37 85 84 122 84 19 0 22 -5
22 -40z m11390 -118 l0 -59 -32 -1 c-39 -1 -58 13 -58 43 0 29 24 49 50 42 15
-4 20 0 20 14 0 10 5 19 10 19 6 0 10 -26 10 -58z m820 -8 c0 -30 -4 -54 -10
-54 -6 0 -10 27 -10 61 0 37 4 58 10 54 6 -3 10 -31 10 -61z m40 62 c0 -3 -4
-8 -10 -11 -5 -3 -10 -1 -10 4 0 6 5 11 10 11 6 0 10 -2 10 -4z m-12213 -33
c14 -20 13 -24 -11 -48 -21 -21 -29 -24 -46 -15 -32 17 -41 44 -24 69 20 28
61 25 81 -6z m9063 2 c0 -20 5 -25 25 -25 20 0 25 5 25 25 0 14 5 25 10 25 6
0 10 -25 10 -55 0 -30 -4 -55 -10 -55 -5 0 -10 11 -10 25 0 20 -5 25 -25 25
-20 0 -25 -5 -25 -25 0 -14 -4 -25 -10 -25 -5 0 -10 25 -10 55 0 30 5 55 10
55 6 0 10 -11 10 -25z m898 18 c-36 -5 -40 -42 -5 -44 l22 -2 -22 -4 c-16 -3
-23 -11 -23 -29 0 -13 -4 -24 -10 -24 -5 0 -10 25 -10 55 l0 55 38 -1 c30 -2
32 -3 10 -6z m280 -13 c15 -1 15 -2 0 -11 -10 -5 -18 -21 -18 -34 0 -13 8 -29
18 -34 15 -9 15 -10 -4 -11 -18 0 -23 7 -26 43 -5 43 2 82 10 59 2 -7 11 -12
20 -12z m837 -10 c0 -17 -7 -26 -25 -30 -15 -3 -27 -15 -31 -30 -5 -17 -7 -7
-8 33 l-1 58 33 -3 c26 -2 32 -7 32 -28z m521 15 c9 -8 11 -15 5 -15 -15 0
-14 -67 2 -73 7 -3 5 -6 -5 -6 -17 -1 -25 18 -29 64 -3 48 3 55 27 30z m524 0
c15 -18 7 -19 -20 -3 -28 18 -55 -1 -55 -37 0 -37 27 -55 56 -37 11 7 23 11
26 9 9 -9 -37 -28 -60 -25 -12 2 -28 15 -36 29 -13 24 -13 29 2 53 20 30 67
36 87 11z m336 0 c9 -8 11 -15 5 -15 -15 0 -14 -67 2 -73 7 -3 5 -6 -5 -6 -17
-1 -25 18 -29 64 -3 48 3 55 27 30z m-11566 -32 c0 -34 1 -35 18 -20 26 24 50
23 29 -1 -10 -10 -17 -22 -17 -27 0 -5 7 -17 17 -27 15 -17 15 -18 -1 -18 -9
0 -19 7 -22 15 -4 8 -10 15 -15 15 -5 0 -9 -7 -9 -15 0 -8 -4 -15 -10 -15 -6
0 -10 28 -10 65 0 37 4 65 10 65 6 0 10 -16 10 -37z m-700 2 c0 -20 5 -25 25
-25 20 0 25 5 25 25 0 16 6 25 15 25 13 0 15 -11 13 -62 -3 -62 -20 -83 -26
-33 -3 19 -9 25 -27 25 -18 0 -24 -6 -27 -25 -6 -50 -23 -29 -26 33 -2 51 0
62 13 62 9 0 15 -9 15 -25z m414 1 c8 -14 8 -20 -1 -23 -9 -3 -10 -9 -1 -22
19 -31 3 -51 -42 -51 l-40 0 0 61 0 60 36 -3 c23 -2 41 -10 48 -22z m8620 8
c19 -18 20 -28 6 -55 -21 -39 -90 -16 -90 30 0 16 30 41 50 41 10 0 26 -7 34
-16z m164 3 c14 -11 17 -77 3 -77 -6 0 -11 15 -13 33 -2 24 -8 32 -23 32 -15
0 -21 -8 -23 -32 -4 -44 -22 -42 -22 2 0 28 -4 35 -20 35 -16 0 -20 -7 -20
-35 0 -19 -4 -35 -10 -35 -5 0 -10 20 -10 45 l0 45 63 -2 c34 0 68 -5 75 -11z
m100 1 c23 -23 13 -38 -23 -38 -19 0 -35 -4 -35 -9 0 -14 32 -23 44 -11 16 16
30 12 16 -5 -26 -32 -80 -12 -80 30 0 27 18 45 45 45 12 0 26 -5 33 -12z m580
0 c23 -23 13 -38 -23 -38 -19 0 -35 -5 -35 -10 0 -16 30 -24 43 -11 17 17 31
13 17 -5 -16 -19 -59 -15 -73 8 -16 25 7 68 36 68 13 0 28 -5 35 -12z m112
-35 c0 -42 -1 -43 -33 -43 -38 0 -57 15 -57 45 0 31 19 45 57 42 32 -2 33 -4
33 -44z m102 10 c4 -47 31 -53 36 -8 6 52 22 53 22 2 0 -47 0 -47 -34 -47 -37
0 -46 12 -46 61 0 42 18 36 22 -8z m128 27 c0 -4 -7 -10 -15 -14 -9 -3 -15
-18 -15 -36 0 -16 -4 -30 -10 -30 -10 0 -15 72 -5 81 8 8 45 8 45 -1z m84 -6
c25 -24 19 -34 -19 -34 -19 0 -35 -5 -35 -10 0 -18 29 -23 47 -9 14 12 16 12
11 -1 -6 -19 -45 -25 -64 -10 -7 7 -14 22 -14 34 0 43 44 61 74 30z m84 -4 c4
-12 2 -13 -9 -3 -9 7 -20 9 -29 3 -11 -7 -9 -11 12 -19 31 -12 39 -23 29 -40
-11 -17 -53 -10 -59 9 -4 12 -2 13 9 3 7 -7 19 -13 26 -13 22 0 14 20 -12 30
-24 9 -32 29 -18 44 12 11 46 2 51 -14z m562 8 c0 -4 -4 -8 -10 -8 -5 0 -10
-16 -10 -35 0 -19 -4 -35 -10 -35 -5 0 -10 20 -10 44 0 39 3 45 20 43 11 -1
20 -5 20 -9z m88 0 c7 -7 12 -25 12 -40 0 -21 -6 -29 -25 -34 -37 -9 -55 2
-55 34 0 31 16 52 40 52 9 0 21 -5 28 -12z m164 -33 c5 -45 32 -39 36 8 4 52
22 46 22 -8 0 -44 0 -45 -34 -45 -37 0 -46 12 -46 63 0 39 17 25 22 -18z m148
30 c15 -18 -1 -20 -18 -3 -16 16 -47 -14 -39 -36 8 -21 40 -33 45 -18 2 7 8
12 14 12 6 0 6 -6 -2 -15 -25 -30 -70 -11 -70 30 0 41 45 60 70 30z m670 -36
c0 -21 -4 -39 -10 -39 -5 0 -10 21 -10 46 0 27 4 43 10 39 6 -3 10 -24 10 -46z
m88 39 c23 -23 13 -38 -23 -38 -19 0 -35 -5 -35 -10 0 -17 29 -23 45 -10 9 7
18 11 20 8 12 -12 -26 -30 -50 -24 -43 11 -30 86 15 86 9 0 21 -5 28 -12z
m102 -7 c13 -25 13 -71 0 -71 -5 0 -10 15 -10 34 0 62 -45 55 -53 -7 -3 -25
-4 -22 -5 13 -2 44 -1 46 28 48 20 2 32 -4 40 -17z m148 -1 c5 -13 3 -13 -12
-1 -12 10 -20 11 -28 3 -8 -8 -4 -14 16 -22 18 -7 26 -16 24 -28 -4 -21 -49
-23 -56 -2 -4 12 -2 13 9 3 7 -7 19 -13 26 -13 22 0 14 20 -12 30 -24 9 -32
29 -18 44 12 11 46 2 51 -14z m-12168 -30 c24 -44 -17 -88 -64 -70 -21 8 -26
16 -26 43 0 42 5 47 46 47 23 0 37 -6 44 -20z m108 8 c20 -20 14 -56 -13 -74
-23 -15 -27 -15 -50 0 -44 29 -28 86 25 86 14 0 31 -5 38 -12z m242 -34 l0
-41 -47 1 c-45 1 -48 3 -51 29 -6 48 3 57 53 55 l45 -2 0 -42z m110 26 c15
-29 12 -70 -5 -70 -10 0 -15 10 -15 34 0 20 -6 36 -14 39 -20 8 -26 -2 -26
-40 0 -23 -5 -33 -15 -33 -11 0 -15 12 -15 44 l0 44 40 0 c29 1 43 -4 50 -18z
m8285 -1000 c-19 -8 -19 -9 -1 -9 11 -1 81 4 155 10 115 10 152 9 241 -5 187
-28 224 -37 278 -62 30 -14 60 -23 68 -20 8 3 14 1 14 -4 0 -6 12 -10 26 -10
14 0 23 -4 19 -10 -3 -5 -4 -10 -1 -10 2 0 13 -3 23 -6 15 -5 16 -4 3 6 -13 9
-12 11 5 7 11 -2 19 -9 17 -16 -1 -7 2 -10 8 -6 6 4 16 3 23 -2 7 -5 44 -21
83 -36 39 -15 86 -39 104 -52 19 -14 37 -25 41 -25 10 0 105 -65 148 -101 48
-39 39 -31 145 -139 51 -52 104 -105 117 -117 44 -40 68 -68 78 -93 6 -14 27
-45 45 -70 19 -25 35 -52 35 -61 1 -9 10 -24 21 -34 11 -10 20 -26 20 -35 0
-9 16 -31 35 -50 19 -19 35 -41 35 -51 0 -9 7 -22 15 -29 8 -7 15 -23 15 -36
0 -12 4 -25 9 -28 5 -3 12 -27 16 -53 4 -27 10 -55 15 -63 4 -8 10 -28 14 -43
5 -22 4 -27 -6 -22 -7 4 -5 0 4 -8 9 -7 18 -30 20 -50 1 -20 5 -37 9 -37 4 0
7 -19 7 -42 -1 -61 1 -70 10 -64 5 3 8 -14 8 -36 -1 -23 5 -48 12 -55 7 -7 10
-13 7 -13 -4 0 -1 -10 7 -23 10 -15 13 -30 7 -44 -4 -12 -4 -25 0 -28 5 -3 8
-20 6 -37 -1 -18 2 -39 8 -45 6 -8 6 -13 0 -13 -6 0 -9 -28 -7 -65 1 -37 -2
-65 -7 -65 -6 0 -7 -4 -4 -10 7 -12 -8 -42 -21 -41 -5 0 -7 -13 -5 -30 2 -21
-1 -29 -8 -25 -6 4 -11 0 -11 -8 0 -9 -6 -16 -14 -16 -21 0 -45 -38 -39 -61 3
-11 8 -18 10 -15 9 9 103 -87 103 -105 0 -29 -56 -76 -183 -151 -67 -40 -128
-78 -135 -85 -7 -7 -20 -13 -28 -13 -8 0 -14 -10 -15 -22 0 -13 -3 -17 -6 -10
-5 13 -23 7 -23 -8 0 -5 13 -8 30 -7 16 1 30 5 30 10 0 4 5 7 11 7 5 0 8 -4 5
-9 -3 -5 1 -14 9 -21 8 -7 15 -19 15 -27 0 -11 4 -13 13 -5 8 7 16 6 25 -4 7
-8 8 -14 3 -14 -6 0 -13 -11 -17 -25 -3 -14 -11 -22 -17 -18 -5 3 -7 1 -4 -5
4 -5 16 -8 27 -5 11 3 17 10 13 16 -3 6 -1 7 5 3 6 -3 15 2 21 11 13 23 14 12
1 -23 -11 -29 3 -59 25 -50 15 5 13 -41 -4 -71 -11 -22 -8 -28 13 -24 5 1 4
-5 -4 -13 -10 -14 -10 -16 6 -17 11 0 14 -3 6 -6 -6 -2 -10 -8 -7 -13 3 -5 0
-21 -5 -36 -9 -24 -9 -25 5 -14 20 16 20 1 1 -45 -13 -31 -13 -38 4 -37 3 0 6
-11 6 -24 1 -15 -4 -24 -12 -24 -8 0 -14 -5 -14 -11 0 -5 5 -7 11 -3 7 4 4 -7
-6 -24 -10 -17 -23 -28 -28 -25 -6 3 -7 1 -4 -4 4 -6 -6 -32 -21 -58 -15 -26
-35 -61 -45 -78 -10 -18 -33 -44 -50 -59 -18 -15 -26 -28 -19 -28 12 0 -47
-87 -97 -142 -14 -16 -19 -28 -12 -28 15 0 0 -23 -52 -79 l-36 -40 75 0 c157
-1 281 -98 320 -253 37 -141 -39 -298 -174 -365 -50 -24 -69 -28 -147 -28 -78
0 -97 4 -140 27 -65 34 -129 101 -156 163 -28 64 -36 166 -16 222 8 24 13 43
11 43 -3 0 -62 -31 -133 -70 -91 -49 -179 -87 -303 -129 -157 -53 -187 -60
-288 -66 -90 -6 -111 -5 -105 5 6 10 -4 11 -49 6 -64 -8 -169 2 -160 15 3 5 2
9 -1 9 -6 0 -128 -67 -335 -182 -23 -13 -28 -14 -15 -3 23 18 181 110 1160
678 380 219 709 415 733 434 31 25 42 42 42 61 0 34 -28 75 -46 68 -7 -3 -16
0 -20 6 -5 7 -2 8 6 3 9 -6 11 -4 6 4 -5 7 -14 10 -22 7 -7 -3 -16 0 -20 6 -5
7 -2 8 7 4 8 -4 5 0 -6 9 -44 35 -245 146 -255 140 -6 -4 -9 -1 -8 5 2 6 -26
28 -62 48 l-66 36 -694 -399 c-382 -219 -728 -414 -768 -433 -93 -44 -150 -42
-250 9 -105 54 -722 412 -718 417 2 2 19 -4 38 -13 28 -14 30 -14 14 0 -11 8
-25 15 -30 15 -6 0 0 9 14 21 45 36 -148 -70 -562 -308 -5 -2 -8 -2 -8 0 0 5
133 83 392 233 l108 62 -232 133 c-251 146 -288 173 -288 213 0 35 42 64 327
227 128 74 233 137 233 140 0 4 -37 28 -82 54 -164 94 -523 308 -533 317 -6 6
-2 7 10 3 16 -5 14 -1 -9 20 -25 23 -27 29 -17 54 7 15 11 32 10 37 -4 22 3
24 31 9 26 -13 29 -14 24 0 -4 8 -15 15 -25 15 -10 0 -19 5 -19 11 0 5 -6 7
-12 3 -8 -4 -10 -3 -5 2 5 5 14 9 20 9 7 1 11 6 10 13 -2 6 6 16 18 22 16 9
18 14 8 26 -9 11 -8 14 2 15 10 0 11 2 2 6 -16 6 -10 11 67 72 30 24 54 48 53
52 -2 5 3 6 11 3 8 -3 17 0 22 7 5 8 3 10 -6 4 -8 -5 -11 -4 -6 3 4 6 13 9 21
6 8 -4 18 1 21 10 3 9 10 13 15 10 5 -3 9 -1 9 4 0 6 20 22 45 36 57 34 58 43
3 16 l-43 -21 25 21 c14 12 20 19 13 16 -16 -8 -22 15 -10 38 7 15 6 18 -6 13
-11 -4 -14 -2 -10 8 3 8 8 13 12 11 3 -2 7 15 9 37 3 40 34 153 53 189 5 10 9
26 9 36 0 10 7 27 15 38 8 10 15 27 15 36 0 14 14 48 42 98 4 8 14 29 22 46 8
17 19 35 25 38 6 4 11 15 11 25 0 10 7 24 15 31 8 7 15 20 15 30 0 9 9 25 20
35 11 10 20 23 20 28 0 5 17 29 38 53 20 23 51 61 67 83 74 101 142 182 169
200 12 8 40 32 63 53 24 21 47 38 52 38 5 0 29 16 53 34 23 19 57 46 73 59 17
13 46 29 65 37 19 7 58 26 87 42 62 34 200 82 298 104 39 9 98 25 133 36 34
11 70 17 78 14 8 -3 12 -2 9 4 -4 6 11 10 37 9 33 0 38 -2 23 -9z m-1812 -35
c120 -31 231 -111 296 -214 95 -149 96 -363 2 -510 -92 -143 -244 -225 -416
-224 -265 2 -475 213 -475 478 0 311 298 547 593 470z m2537 -35 c8 -5 11 -10
5 -10 -5 0 -17 5 -25 10 -8 5 -10 10 -5 10 6 0 17 -5 25 -10z m-8970 -990 c0
-5 -4 -10 -10 -10 -5 0 -10 5 -10 10 0 6 5 10 10 10 6 0 10 -4 10 -10z m1590
-16 c0 -8 10 -14 23 -14 33 0 47 -19 47 -62 0 -49 -18 -50 -22 0 -2 30 -7 38
-25 40 -21 3 -23 -1 -23 -37 0 -23 -4 -41 -10 -41 -6 0 -10 30 -10 71 0 44 4
68 10 64 6 -3 10 -13 10 -21z m-2062 -18 c2 -19 -4 -36 -19 -52 l-22 -24 26 0
c15 0 27 -4 27 -10 0 -5 -20 -10 -45 -10 -25 0 -45 4 -45 8 0 5 14 21 30 37
31 30 39 59 18 71 -6 4 -17 -1 -24 -11 -16 -21 -30 -14 -20 10 4 11 16 15 38
13 28 -3 34 -7 36 -32z m114 9 c8 -17 8 -37 2 -63 -8 -34 -12 -37 -44 -37 -32
0 -36 3 -43 35 -13 53 5 90 43 90 23 0 33 -6 42 -25z m76 -3 c4 -28 -24 -40
-45 -19 -14 13 -14 19 -3 32 18 22 44 15 48 -13z m52 21 c-1 -17 -67 -117 -79
-121 -10 -3 -8 5 6 29 11 19 29 49 39 67 17 29 35 42 34 25z m153 -4 c29 -16
37 -28 37 -61 0 -33 -33 -58 -77 -58 l-33 0 0 58 c0 32 3 62 7 65 10 11 42 8
66 -4z m837 1 c0 -5 -11 -10 -25 -10 -34 0 -36 -39 -2 -41 l22 -2 -22 -4 c-18
-3 -23 -11 -23 -34 0 -16 -4 -29 -10 -29 -6 0 -10 28 -10 65 l0 65 35 0 c19 0
35 -4 35 -10z m280 -55 c0 -37 -4 -65 -10 -65 -5 0 -10 25 -10 55 0 30 -4 55
-10 55 -5 0 -10 5 -10 10 0 6 9 10 20 10 18 0 20 -7 20 -65z m121 7 l20 -46
24 53 c14 29 29 50 35 46 13 -8 13 -125 1 -125 -6 0 -11 17 -13 38 l-3 37 -17
-37 c-9 -21 -21 -38 -26 -38 -4 0 -16 15 -25 33 l-16 32 0 -32 c-1 -22 -6 -33
-16 -33 -12 0 -15 13 -15 58 0 88 18 93 51 14z m375 28 c8 0 14 -4 14 -10 0
-5 -7 -10 -15 -10 -9 0 -15 -9 -15 -25 0 -14 7 -28 15 -31 21 -9 19 -24 -4
-24 -22 0 -29 17 -33 70 -2 40 14 78 20 48 2 -10 10 -18 18 -18z m-930 5 c9
-8 11 -15 5 -15 -15 0 -14 -63 2 -79 10 -10 8 -12 -8 -9 -16 2 -21 13 -25 50
-8 67 -1 81 26 53z m1202 -42 c20 -55 21 -86 1 -50 -12 21 -57 23 -65 2 -4 -8
-10 -15 -15 -15 -4 0 2 27 13 60 12 33 27 60 34 60 6 0 21 -26 32 -57z m638
42 c9 -8 11 -15 5 -15 -15 0 -14 -63 2 -79 10 -10 8 -12 -8 -9 -16 2 -21 13
-25 50 -8 67 -1 81 26 53z m-3266 -9 c0 -3 -4 -8 -10 -11 -5 -3 -10 -1 -10 4
0 6 5 11 10 11 6 0 10 -2 10 -4z m60 -4 c0 -14 -69 -76 -77 -69 -3 4 9 23 27
42 33 34 50 43 50 27z m760 -42 c0 -27 -4 -50 -10 -50 -5 0 -10 23 -10 50 0
28 5 50 10 50 6 0 10 -22 10 -50z m90 35 c14 -17 0 -21 -17 -4 -11 11 -33 5
-33 -9 0 -4 14 -13 31 -19 21 -8 30 -17 27 -30 -4 -23 -50 -29 -68 -9 -14 18
0 22 17 5 12 -12 33 -4 33 12 0 5 -6 9 -13 9 -7 0 -22 6 -32 14 -16 12 -17 16
-6 30 17 20 45 21 61 1z m110 0 c14 -17 7 -19 -20 -5 -14 7 -23 6 -34 -6 -20
-19 -20 -25 -2 -50 13 -16 18 -17 35 -6 28 16 36 15 21 -3 -15 -18 -51 -20
-68 -3 -7 7 -12 24 -12 38 0 14 5 31 12 38 17 17 53 15 68 -3z m109 1 c16 -19
10 -66 -10 -79 -26 -16 -68 0 -75 29 -12 47 55 87 85 50z m67 -66 c21 -18 44
5 44 46 0 19 5 34 10 34 6 0 10 -22 10 -49 l0 -49 -42 2 -43 1 -1 50 c-1 34 0
38 3 13 2 -20 11 -42 19 -48z m161 68 c15 -12 18 -88 3 -88 -5 0 -10 18 -10
39 0 24 -5 41 -14 44 -21 8 -36 -13 -36 -50 0 -18 -4 -33 -10 -33 -5 0 -10 22
-10 48 0 48 0 49 32 50 18 0 38 -4 45 -10z m322 -2 c16 -19 10 -66 -10 -79
-26 -16 -68 0 -75 29 -12 47 55 87 85 50z m81 4 c0 -4 -7 -10 -15 -14 -9 -3
-15 -19 -15 -41 0 -19 -4 -35 -10 -35 -5 0 -10 22 -10 49 0 45 2 49 25 49 14
0 25 -4 25 -8z m414 -6 c9 -8 16 -22 16 -30 0 -55 -66 -75 -96 -29 -15 23 -15
27 0 50 19 29 56 33 80 9z m114 4 c14 -14 16 -88 3 -88 -6 0 -11 17 -13 38 -2
30 -7 38 -25 40 -21 3 -23 -1 -23 -37 0 -30 -4 -41 -15 -41 -11 0 -15 11 -15
43 0 24 3 47 7 50 11 12 68 8 81 -5z m462 -3 c14 -17 7 -19 -20 -5 -14 7 -23
6 -34 -6 -20 -19 -20 -25 -2 -50 13 -16 18 -17 35 -6 28 16 36 15 21 -3 -15
-18 -51 -20 -68 -3 -7 7 -12 24 -12 38 0 14 5 31 12 38 17 17 53 15 68 -3z
m110 0 c14 -17 7 -19 -20 -5 -14 7 -23 6 -34 -6 -20 -19 -20 -25 -2 -50 13
-16 18 -17 35 -6 28 16 36 15 21 -3 -15 -18 -51 -20 -68 -3 -7 7 -12 24 -12
38 0 14 5 31 12 38 17 17 53 15 68 -3z m108 3 c7 -7 12 -24 12 -38 0 -48 -45
-67 -82 -33 -22 20 -23 32 -2 61 17 24 53 29 72 10z m52 -27 c0 -27 5 -41 17
-45 22 -9 35 6 43 51 8 38 8 38 9 -12 l1 -51 -34 -2 c-26 -2 -38 3 -45 17 -14
25 -14 81 -1 81 6 0 10 -18 10 -39z m177 27 c15 -12 18 -88 3 -88 -5 0 -10 18
-10 39 0 39 -12 53 -37 43 -8 -2 -13 -21 -13 -43 0 -21 -4 -39 -10 -39 -5 0
-10 22 -10 48 0 48 0 49 32 50 18 0 38 -4 45 -10z m-2592 -63 c0 -22 -31 -33
-47 -17 -17 17 -1 44 24 40 15 -2 23 -10 23 -23z m-545 5 c0 -5 -5 -10 -11
-10 -5 0 -7 5 -4 10 3 6 8 10 11 10 2 0 4 -4 4 -10z m210 -587 c0 -81 1 -85
18 -70 52 46 160 40 213 -12 39 -39 49 -88 49 -233 l0 -128 -55 0 -55 0 0 133
c0 120 -2 135 -20 155 -38 41 -92 40 -130 -1 -18 -18 -20 -35 -20 -154 l0
-133 -55 0 -55 0 0 265 0 265 55 0 55 0 0 -87z m1201 -105 l114 -173 3 173 2
172 50 0 50 0 0 -255 0 -255 -52 0 -53 0 -110 167 -110 166 -3 -166 -2 -167
-50 0 -50 0 0 255 0 255 49 0 49 0 113 -172z m-1381 122 l0 -40 -65 0 -65 0 0
-210 0 -210 -50 0 -50 0 0 210 0 210 -70 0 -70 0 0 40 0 40 185 0 185 0 0 -40z
m2650 -10 l0 -50 46 0 45 0 -3 -42 c-3 -43 -3 -43 -46 -46 l-43 -3 3 -107 3
-107 43 -3 42 -3 0 -45 0 -44 -55 0 c-63 0 -108 19 -127 53 -6 12 -14 75 -16
140 -4 106 -6 117 -23 117 -16 0 -19 8 -19 45 0 38 3 45 20 45 17 0 20 7 20
50 l0 50 55 0 55 0 0 -50z m2638 -15 c46 -9 115 -34 172 -62 79 -38 109 -60
181 -132 72 -72 94 -102 132 -181 136 -280 86 -581 -133 -800 -140 -141 -292
-204 -490 -204 -198 0 -350 63 -490 204 -142 141 -204 290 -205 485 0 134 13
191 72 315 39 80 59 108 132 181 72 72 102 94 181 132 151 74 291 93 448 62z
m-4503 -36 c84 -23 133 -86 138 -176 l2 -48 -148 -3 c-148 -3 -148 -3 -142
-25 19 -64 104 -88 151 -42 20 20 35 25 74 25 58 0 62 -10 28 -60 -42 -62
-135 -92 -216 -71 -51 14 -110 64 -128 108 -18 42 -18 144 0 186 16 40 77 95
114 103 15 3 32 7 37 9 20 7 51 5 90 -6z m1185 -17 c53 -28 90 -87 97 -155 l6
-57 -151 0 -151 0 11 -30 c21 -63 93 -80 147 -34 25 21 39 25 81 22 l50 -3
-18 -35 c-55 -103 -211 -130 -303 -53 -92 78 -92 249 0 326 18 15 45 30 59 33
15 3 32 7 37 10 20 8 100 -7 135 -24z m276 -37 c20 -30 40 -55 45 -55 4 0 22
25 39 55 l31 55 55 0 c30 0 54 -2 54 -5 0 -3 -27 -46 -60 -95 -33 -49 -60 -94
-60 -100 0 -6 27 -51 60 -100 33 -49 60 -92 60 -95 0 -3 -26 -5 -57 -5 l-58 1
-33 54 c-18 30 -37 55 -42 55 -5 0 -23 -25 -40 -55 l-31 -55 -55 0 c-64 0 -65
-5 18 117 26 40 48 77 48 83 0 6 -27 51 -60 100 -33 49 -60 92 -60 95 0 3 25
5 55 5 l55 0 36 -55z m8489 -795 c3 -5 1 -10 -4 -10 -6 0 -11 5 -11 10 0 6 2
10 4 10 3 0 8 -4 11 -10z m-7998 -26 c15 -24 15 -29 2 -53 -20 -35 -80 -42
-102 -11 -28 41 -1 90 49 90 25 0 38 -7 51 -26z m-2714 -62 c32 -17 57 -40 73
-67 13 -23 24 -45 24 -48 0 -4 -25 -7 -55 -7 -43 0 -56 4 -64 19 -17 30 -78
54 -127 48 -85 -9 -134 -72 -134 -170 0 -59 23 -104 73 -141 38 -28 126 -28
164 0 33 25 67 79 58 94 -3 5 -42 10 -86 10 l-79 0 0 35 0 35 135 0 135 0 0
-38 c0 -87 -56 -179 -133 -218 -48 -25 -145 -30 -205 -10 -54 18 -112 68 -138
119 -26 49 -30 158 -9 212 55 146 224 204 368 127z m2455 -24 l3 -48 45 0 45
0 -3 -42 c-3 -43 -3 -43 -48 -48 l-45 -5 -3 -85 c-4 -118 0 -128 48 -136 39
-6 40 -8 40 -45 l0 -39 -47 0 c-66 0 -115 26 -130 70 -7 19 -12 81 -12 137 -1
98 -2 102 -23 105 -19 2 -24 10 -26 46 -3 39 -1 42 22 42 24 0 26 3 26 51 l0
50 53 -3 52 -3 3 -47z m7920 -43 c-3 -3 -9 2 -12 12 -6 14 -5 15 5 6 7 -7 10
-15 7 -18z m85 -48 c-3 -6 -1 -7 5 -3 10 6 102 -39 102 -49 0 -9 -37 2 -45 13
-6 7 -29 15 -50 17 -22 1 -47 4 -55 4 -12 1 -12 4 3 15 17 13 16 15 -10 36
l-28 21 42 -22 c23 -12 39 -27 36 -32z m-10016 32 c68 -25 113 -97 113 -181
l0 -38 -145 0 c-139 0 -145 -1 -145 -20 0 -12 11 -32 25 -45 32 -33 98 -35
131 -4 17 16 32 20 73 17 l53 -3 -24 -34 c-39 -58 -71 -75 -147 -79 -100 -6
-161 29 -196 111 -31 74 -10 194 41 238 54 47 154 64 221 38z m293 -10 l0 -21
34 21 c43 27 126 28 168 4 61 -37 72 -72 77 -235 l3 -148 -50 0 -50 0 -4 136
-3 136 -29 25 c-25 21 -37 24 -70 20 -68 -9 -76 -28 -76 -183 l0 -134 -50 0
-50 0 0 200 0 200 50 0 c44 0 50 -3 50 -21z m633 7 c67 -28 107 -93 107 -172
l0 -44 -145 0 c-161 0 -167 -3 -119 -59 21 -25 33 -31 67 -31 27 0 48 7 63 21
17 16 32 20 73 17 l53 -3 -24 -34 c-13 -19 -35 -43 -50 -54 -57 -42 -174 -37
-236 9 -110 84 -90 295 33 350 39 17 137 18 178 0z m287 -11 l0 -24 36 24 c20
14 47 25 60 25 22 0 24 -4 24 -49 l0 -48 -42 -6 c-70 -9 -78 -28 -78 -173 l0
-124 -50 0 -50 0 0 200 0 200 50 0 c47 0 50 -2 50 -25z m434 0 c20 -14 38 -25
40 -25 2 0 1 11 -2 25 -4 24 -3 25 52 25 l56 0 0 -200 0 -200 -50 0 c-47 0
-50 2 -50 25 0 30 -11 32 -34 6 -35 -38 -133 -45 -193 -12 -65 34 -105 144
-85 232 23 100 81 149 173 149 43 0 65 -6 93 -25z m623 -42 c-4 -38 -7 -128
-7 -200 l0 -133 -45 0 -45 0 0 123 c0 68 -3 158 -6 200 l-7 77 58 0 58 0 -6
-67z m360 56 c67 -25 122 -109 123 -187 0 -82 -58 -170 -128 -193 -61 -20
-137 -14 -186 15 -60 35 -87 82 -93 159 -4 54 -1 69 24 116 37 70 90 101 174
101 32 0 70 -5 86 -11z m293 -9 c0 -25 2 -25 42 0 45 27 129 27 173 0 55 -34
65 -69 65 -234 l0 -146 -45 0 -45 0 -1 113 c0 61 -5 128 -12 147 -16 45 -52
65 -100 56 -60 -11 -71 -39 -76 -188 l-3 -128 -44 0 -44 0 0 200 0 200 45 0
c38 0 45 -3 45 -20z m3760 -603 c0 -2 -12 -14 -27 -28 l-28 -24 24 28 c23 25
31 32 31 24z m-2810 -332 l0 -85 33 20 c43 26 121 27 164 0 56 -34 67 -68 71
-222 l4 -138 -51 0 -51 0 0 115 c0 152 -16 186 -88 185 -64 -1 -82 -44 -82
-191 l0 -109 -50 0 -50 0 0 248 c0 137 3 252 7 255 3 4 26 7 50 7 l43 0 0 -85z
m1158 -172 l2 -253 -50 0 c-43 0 -50 3 -50 20 0 25 -4 25 -41 -2 -70 -52 -193
-16 -235 69 -28 57 -26 156 5 209 44 79 155 109 229 64 18 -11 35 -20 37 -20
3 0 5 38 5 86 l0 85 48 -3 47 -3 3 -252z m-5573 205 c61 -32 90 -96 75 -164
-17 -76 -81 -114 -192 -114 l-58 0 0 -90 0 -90 -45 0 -45 0 0 241 0 241 118
-4 c80 -3 126 -9 147 -20z m3206 -148 c40 -93 75 -170 78 -170 4 0 39 75 78
168 l71 167 56 3 56 3 0 -241 0 -240 -50 0 -49 0 -3 143 -3 142 -59 -142 -58
-143 -38 0 c-42 0 -32 -18 -127 214 l-28 70 -3 -142 -3 -142 -49 0 -50 0 0
240 0 240 54 0 54 0 73 -170z m-491 115 l0 -45 40 0 40 0 0 -40 0 -40 -40 0
-41 0 3 -107 3 -108 38 -3 c36 -3 37 -4 37 -43 l0 -39 -50 0 c-108 0 -130 32
-130 190 l0 110 -26 0 c-23 0 -25 3 -22 38 2 30 7 38 26 40 19 3 22 9 22 48
l0 44 50 0 50 0 0 -45z m1460 0 l0 -45 40 0 40 0 0 -40 0 -40 -40 0 -41 0 3
-107 3 -108 38 -3 c36 -3 37 -4 37 -44 l0 -40 -65 4 c-100 6 -109 19 -115 171
-5 117 -6 122 -27 125 -19 3 -23 10 -23 43 0 35 3 39 25 39 23 0 25 4 25 45
l0 45 50 0 50 0 0 -45z m-3791 -71 l31 -26 0 26 c0 25 3 26 50 26 l50 0 0
-190 0 -190 -50 0 c-42 0 -50 3 -50 18 0 18 -4 17 -50 -6 -67 -33 -125 -25
-180 24 -49 44 -63 87 -58 175 4 76 21 108 78 147 49 33 137 31 179 -4z m331
-91 c23 -65 46 -122 50 -126 4 -5 28 47 52 115 l45 123 52 3 c28 2 51 -1 51
-5 0 -5 -51 -130 -114 -278 l-113 -270 -52 -3 c-61 -4 -61 -8 -6 113 l34 73
-70 168 c-93 227 -90 204 -26 204 l54 0 43 -117z m400 95 c0 -20 1 -20 19 -4
42 38 150 33 196 -10 27 -25 28 -25 49 -6 35 32 62 42 113 42 58 0 105 -26
130 -72 14 -26 18 -63 21 -170 l4 -138 -51 0 -51 0 0 121 c0 120 0 121 -29
150 -36 36 -70 37 -108 5 -28 -24 -28 -26 -31 -150 l-4 -126 -49 0 -49 0 0
129 c0 129 0 130 -27 151 -21 17 -36 20 -63 16 -61 -10 -70 -31 -70 -172 l0
-124 -50 0 -50 0 0 190 0 190 50 0 c45 0 50 -2 50 -22z m863 8 c61 -25 107
-102 107 -178 l0 -28 -140 0 c-154 0 -162 -4 -117 -55 30 -35 86 -38 120 -7
18 17 35 22 75 22 l53 0 -15 -27 c-40 -77 -129 -117 -212 -95 -87 23 -132 76
-141 166 -9 89 33 172 102 202 39 17 127 18 168 0z m267 -6 c0 -20 0 -20 33 0
43 26 121 27 164 0 56 -34 67 -68 71 -222 l4 -138 -51 0 -51 0 0 115 c0 152
-16 186 -88 185 -64 -1 -82 -44 -82 -191 l0 -109 -50 0 -50 0 0 183 c0 101 3
187 7 190 3 4 26 7 50 7 36 0 43 -3 43 -20z m1647 4 c55 -27 86 -76 91 -145
l4 -59 -136 0 c-125 0 -136 -1 -136 -18 0 -55 99 -85 144 -43 16 15 35 21 69
21 59 0 62 -18 9 -70 -66 -66 -166 -76 -244 -25 -108 72 -104 270 7 332 49 28
140 31 192 7z m1168 -18 c52 -40 78 -103 73 -176 -9 -123 -125 -203 -246 -171
-114 31 -174 165 -123 276 35 76 89 106 187 103 60 -3 76 -8 109 -32z m683
-252 c48 -33 8 -117 -47 -99 -51 16 -65 61 -31 95 24 24 48 25 78 4z m1722
-173 c54 -28 80 -74 80 -139 0 -51 -3 -57 -44 -98 -41 -41 -47 -44 -98 -44
-123 0 -195 116 -137 220 41 72 128 99 199 61z m740 -233 c55 -38 75 -89 75
-188 l-1 -86 78 -23 c43 -13 81 -22 84 -19 2 3 18 58 33 122 16 65 37 126 47
137 26 29 71 24 103 -10 36 -38 49 -85 57 -204 8 -116 5 -113 148 -103 211 15
235 18 252 37 9 10 49 25 92 35 43 9 135 32 206 51 70 19 169 39 220 43 50 5
120 15 156 24 89 21 181 20 270 -5 104 -28 116 -37 50 -37 -36 0 -76 -8 -115
-24 -77 -31 -147 -76 -140 -88 3 -5 0 -7 -8 -4 -9 3 -22 -4 -31 -18 -9 -12
-16 -18 -16 -13 -1 6 -9 1 -18 -11 -10 -11 -23 -23 -29 -25 -15 -5 -193 -142
-189 -146 1 -1 31 9 66 23 35 15 91 28 124 31 34 2 74 9 89 15 20 8 31 8 40
-1 17 -17 59 -13 87 9 44 34 150 21 150 -19 0 -18 -61 -63 -85 -63 -14 0 -28
-4 -31 -9 -3 -5 3 -6 13 -2 15 6 16 4 5 -9 -9 -11 -10 -23 -2 -42 14 -38 13
-91 -3 -104 -7 -6 -40 -20 -73 -30 -54 -17 -262 -139 -309 -182 -32 -29 -165
-89 -183 -83 -10 4 -5 -6 12 -25 16 -18 28 -33 25 -35 -32 -25 -71 -48 -65
-38 7 10 0 12 -35 6 -52 -9 -56 -12 -41 -27 7 -7 12 -25 12 -40 0 -20 5 -28
18 -29 10 0 12 -2 4 -6 -7 -3 -33 12 -59 34 -25 21 -62 50 -83 64 l-38 27 -21
-21 c-11 -11 -24 -18 -27 -14 -4 4 0 13 9 20 9 6 19 24 23 39 5 23 1 33 -24
56 -20 19 -44 62 -67 123 -47 121 -48 123 -75 129 -29 7 -50 58 -29 71 10 6
11 9 2 9 -7 0 -13 7 -13 16 0 19 39 10 58 -14 11 -14 12 -14 12 1 0 24 -48 52
-90 52 -20 0 -56 -9 -79 -19 -51 -24 -61 -53 -38 -115 11 -32 13 -49 6 -58 -8
-8 -6 -35 5 -89 20 -96 20 -104 -1 -105 -14 0 -13 -3 5 -11 12 -6 22 -19 22
-29 0 -30 11 -49 30 -49 10 0 20 -5 22 -11 2 -7 23 -2 56 15 29 14 52 23 52
18 0 -4 -25 -20 -55 -35 l-56 -27 -44 30 c-24 16 -48 30 -54 30 -6 0 -11 5
-11 10 0 16 -4 22 -35 58 -16 18 -30 37 -31 40 -2 25 -28 100 -38 112 -7 8
-16 24 -20 35 -6 16 -9 17 -16 5 -7 -11 -10 -8 -15 13 -4 15 -10 25 -15 22 -7
-4 -40 101 -40 129 0 8 -7 16 -15 20 -8 3 -15 10 -15 15 0 6 6 8 13 5 7 -2 13
4 14 15 1 13 -6 21 -20 23 -33 5 -35 38 -3 38 18 0 26 5 26 18 0 10 5 23 11
29 9 9 5 14 -14 18 -26 7 -27 9 -26 80 1 61 -3 77 -19 93 l-20 20 -34 -56
c-63 -108 -72 -130 -58 -147 7 -8 20 -15 29 -16 10 0 7 -4 -9 -12 -25 -11 -40
-26 -40 -38 0 -4 17 -3 38 2 58 13 72 11 72 -11 0 -20 -23 -26 -88 -22 -20 1
-22 -2 -16 -32 8 -44 -8 -53 -51 -27 -38 22 -38 16 -4 -44 46 -79 61 -147 68
-322 1 -7 8 -13 17 -13 11 0 4 -9 -17 -23 -27 -18 -35 -30 -37 -59 -4 -52 12
-78 48 -78 17 0 30 -4 30 -10 0 -5 -11 -10 -24 -10 -29 0 -76 52 -76 83 0 27
35 87 51 87 8 0 8 4 -1 15 -6 8 -9 18 -6 24 3 5 0 11 -7 14 -7 3 -19 36 -26
73 -13 72 -55 169 -95 218 -21 25 -26 27 -47 15 -21 -11 -23 -11 -11 3 10 13
9 16 -8 21 -11 3 -27 21 -35 42 -13 30 -14 40 -3 63 7 14 22 31 34 37 16 8 19
15 13 30 -5 14 -8 16 -9 5 -4 -27 -18 44 -20 100 -2 45 -4 51 -11 30 -9 -26
-6 40 7 152 8 72 0 117 -31 162 -14 20 -25 39 -25 41 0 14 51 2 80 -17z m-184
-308 l-24 -85 -2 60 c-2 110 0 119 23 139 22 18 22 18 25 -5 1 -13 -9 -62 -22
-109z m2634 79 c43 -10 100 -51 100 -73 0 -5 -12 2 -27 16 -16 14 -38 31 -50
37 l-22 11 24 -47 c13 -27 29 -79 36 -117 9 -46 15 -62 20 -50 5 14 10 5 23
-35 16 -55 21 -145 10 -175 -8 -21 -34 -21 -34 0 0 8 -4 13 -9 10 -5 -4 -5 9
-1 30 8 36 -1 128 -14 141 -4 4 -11 2 -15 -5 -6 -10 -12 -7 -24 12 -21 32 -77
50 -139 44 -63 -7 -114 -46 -151 -119 -26 -49 -28 -61 -24 -127 5 -64 4 -73
-11 -70 -23 4 -35 80 -22 141 19 90 72 163 147 201 38 19 116 23 156 7 15 -6
27 -7 27 -3 0 8 -66 121 -76 132 -3 3 -44 10 -92 16 l-87 12 60 1 c33 1 67 6
75 11 19 12 63 12 120 -1z m-9910 -30 c-13 -7 -13 -10 -1 -18 9 -6 10 -11 2
-15 -6 -4 -12 -26 -13 -49 l-1 -42 -4 40 c-3 22 -9 45 -15 52 -7 9 -7 13 1 13
6 0 11 6 11 14 0 8 6 16 13 19 18 7 23 -3 7 -14z m2925 11 c3 -5 1 -10 -4 -10
-6 0 -11 5 -11 10 0 6 2 10 4 10 3 0 8 -4 11 -10z m460 0 c3 -5 1 -10 -4 -10
-6 0 -11 5 -11 10 0 6 2 10 4 10 3 0 8 -4 11 -10z m65 1 c0 -5 -6 -12 -12 -14
-10 -4 -9 -8 2 -16 10 -7 11 -11 3 -11 -9 0 -13 -16 -13 -45 0 -25 -4 -45 -9
-45 -15 0 -17 101 -3 121 14 20 32 25 32 10z m-4402 -17 c45 -31 19 -114 -36
-114 -84 0 -81 123 3 129 6 1 21 -6 33 -15z m2752 -3 c0 -14 5 -18 20 -14 32
8 50 -15 49 -61 l-1 -41 -8 38 c-8 45 -21 60 -43 51 -12 -4 -17 -18 -17 -45 0
-21 -4 -39 -10 -39 -6 0 -10 28 -10 65 0 37 4 65 10 65 6 0 10 -9 10 -19z
m310 -44 l0 -64 -37 -1 c-45 -2 -63 12 -63 48 0 35 22 54 55 46 20 -5 25 -3
25 14 0 11 5 20 10 20 6 0 10 -28 10 -63z m160 -2 c0 -37 -4 -65 -10 -65 -6 0
-10 28 -10 65 0 37 4 65 10 65 6 0 10 -28 10 -65z m780 2 l0 -64 -37 -1 c-45
-2 -63 12 -63 48 0 35 22 54 55 46 20 -5 25 -3 25 14 0 11 5 20 10 20 6 0 10
-28 10 -63z m6563 56 c-13 -2 -33 -2 -45 0 -13 2 -3 4 22 4 25 0 35 -2 23 -4z
m-10257 -18 c9 -8 11 -15 5 -15 -15 0 -14 -77 2 -84 6 -3 3 -5 -8 -3 -16 2
-21 12 -25 49 -8 67 -1 81 26 53z m1250 0 c9 -8 11 -15 5 -15 -19 0 -13 -68 7
-80 15 -9 14 -10 -8 -8 -22 3 -26 9 -30 49 -8 68 -1 82 26 54z m1140 0 c9 -8
11 -15 5 -15 -15 0 -14 -77 2 -84 6 -3 3 -5 -8 -3 -16 2 -21 12 -25 49 -8 67
-1 81 26 53z m960 0 c9 -8 11 -15 5 -15 -19 0 -13 -68 7 -80 15 -9 14 -10 -8
-8 -22 3 -26 9 -30 49 -8 68 -1 82 26 54z m634 -8 c12 -4 11 -6 -2 -6 -14 -1
-18 -10 -18 -36 0 -22 6 -38 18 -45 15 -10 15 -10 -3 -8 -15 2 -21 12 -23 38
-2 19 -7 39 -12 44 -5 5 -3 14 3 21 7 7 14 9 17 5 3 -4 12 -10 20 -13z m6425
3 c-3 -5 -12 -10 -20 -10 -8 0 -17 5 -20 10 -4 6 5 10 20 10 15 0 24 -4 20
-10z m-10639 -80 c21 -19 44 5 44 47 0 20 4 32 10 28 6 -3 10 -26 10 -50 l0
-43 -42 2 -43 1 -1 50 c-1 34 0 38 3 13 2 -20 11 -42 19 -48z m134 70 c0 -4
-7 -10 -15 -14 -9 -3 -15 -19 -15 -41 0 -19 -4 -35 -10 -35 -5 0 -10 22 -10
49 0 45 2 49 25 49 14 0 25 -4 25 -8z m208 -2 c7 -7 12 -20 12 -30 0 -14 -8
-18 -42 -18 -40 0 -41 -1 -25 -17 14 -15 21 -15 37 -5 27 16 35 15 20 -3 -15
-18 -51 -20 -68 -3 -7 7 -12 24 -12 38 0 31 17 50 45 50 12 0 26 -5 33 -12z
m132 -38 l0 -47 -37 -1 c-45 -2 -63 12 -63 47 0 37 17 51 62 49 l38 -1 0 -47z
m95 40 c4 -6 14 -5 25 3 32 20 55 -2 56 -54 1 -38 1 -39 -3 -7 -8 73 -61 73
-65 -1 l-1 -36 -4 37 c-8 71 -63 73 -63 2 0 -19 -4 -34 -10 -34 -5 0 -10 22
-10 48 0 49 0 49 35 50 19 1 37 -3 40 -8z m243 -2 c7 -7 12 -24 12 -38 0 -53
-57 -69 -86 -25 -15 23 -15 27 0 50 18 27 54 33 74 13z m220 0 c7 -7 12 -20
12 -30 0 -14 -8 -18 -42 -18 -40 0 -41 -1 -25 -17 14 -15 21 -15 37 -5 27 16
35 15 20 -3 -15 -18 -51 -20 -68 -3 -7 7 -12 24 -12 38 0 31 17 50 45 50 12 0
26 -5 33 -12z m51 -5 c10 -17 12 -17 25 0 20 26 30 20 12 -8 -15 -23 -15 -27
0 -50 9 -14 12 -25 6 -25 -6 0 -16 8 -22 18 -10 16 -10 16 -20 0 -6 -10 -15
-18 -21 -18 -5 0 -2 11 7 25 15 23 15 27 0 50 -9 14 -12 25 -7 25 6 0 15 -8
20 -17z m155 1 c34 -33 8 -90 -37 -82 -23 4 -27 2 -27 -18 0 -12 -4 -26 -10
-29 -6 -4 -10 21 -10 67 l0 73 34 2 c21 2 41 -3 50 -13z m110 0 c29 -28 20
-44 -26 -44 -40 0 -41 -1 -25 -17 15 -15 20 -16 38 -5 18 11 20 11 17 0 -3 -7
-16 -14 -31 -16 -19 -2 -30 4 -43 22 -15 24 -15 28 0 51 19 29 47 32 70 9z
m86 6 c0 -4 -7 -10 -15 -14 -9 -3 -15 -19 -15 -41 0 -19 -4 -35 -10 -35 -5 0
-10 22 -10 49 0 45 2 49 25 49 14 0 25 -4 25 -8z m148 -10 c5 -13 3 -13 -11
-2 -16 14 -37 9 -37 -8 0 -5 10 -12 23 -16 29 -9 39 -25 25 -41 -13 -16 -54
-17 -63 -2 -11 16 3 23 19 10 8 -7 20 -10 26 -6 17 11 11 23 -15 29 -30 8 -44
34 -24 47 20 13 52 7 57 -11z m108 -60 c21 -19 44 5 44 47 0 20 4 32 10 28 6
-3 10 -26 10 -50 l0 -43 -42 2 -43 1 -1 50 c-1 34 0 38 3 13 2 -20 11 -42 19
-48z m152 62 c3 -11 0 -12 -16 -3 -16 8 -23 8 -28 -1 -4 -6 -3 -13 3 -15 50
-17 56 -67 6 -61 -14 2 -28 9 -31 16 -3 11 -1 11 17 1 15 -10 23 -11 32 -2 8
8 3 15 -20 27 -30 16 -39 35 -24 50 12 11 56 2 61 -12z m107 2 c23 -24 13 -39
-28 -42 -20 -2 -37 -7 -37 -12 0 -15 31 -20 52 -9 16 9 19 8 16 -3 -12 -37
-88 -10 -88 32 0 43 54 65 85 34z m95 1 c14 -17 0 -21 -17 -4 -11 11 -33 5
-33 -9 0 -4 14 -13 31 -19 21 -8 30 -17 27 -30 -4 -23 -50 -29 -68 -9 -14 18
0 22 17 5 12 -12 33 -4 33 12 0 5 -6 9 -14 9 -8 0 -22 7 -31 16 -12 12 -13 19
-4 30 15 18 43 18 59 -1z m170 -35 c0 -44 -1 -45 -35 -47 -27 -2 -38 2 -51 22
-15 23 -15 27 0 50 13 20 24 24 51 22 34 -2 35 -3 35 -47z m155 40 c4 -6 13
-5 25 3 31 19 54 -2 58 -52 2 -24 -1 -41 -7 -41 -6 0 -11 18 -11 39 0 39 -12
53 -37 43 -8 -2 -13 -21 -13 -43 0 -21 -4 -39 -10 -39 -5 0 -10 18 -10 39 0
26 -5 41 -16 45 -25 10 -34 -2 -34 -45 0 -21 -4 -39 -10 -39 -5 0 -10 21 -10
48 0 46 0 47 34 49 19 2 38 -1 41 -7z m183 -2 c7 -7 12 -20 12 -30 0 -14 -8
-18 -35 -18 -19 0 -35 -5 -35 -10 0 -16 30 -24 43 -11 17 17 31 13 17 -4 -15
-18 -51 -20 -68 -3 -7 7 -12 24 -12 38 0 31 17 50 45 50 12 0 26 -5 33 -12z
m293 2 c22 -12 26 -59 7 -78 -28 -28 -88 -2 -88 38 0 22 26 50 46 50 9 0 24
-5 35 -10z m244 -10 c24 -27 13 -68 -22 -76 -34 -9 -57 6 -61 40 -6 53 47 76
83 36z m161 -5 c15 -23 15 -27 0 -50 -29 -44 -86 -28 -86 25 0 53 57 69 86 25z
m124 -42 c0 -53 -3 -64 -21 -74 -24 -12 -69 2 -69 22 0 8 4 8 14 -1 20 -16 60
-9 64 12 3 15 -2 17 -26 12 -25 -5 -33 -2 -47 20 -16 24 -16 28 -1 51 13 20
24 24 51 22 l35 -2 0 -62z m51 29 l16 -37 16 38 c17 40 33 51 21 15 -14 -48
-55 -131 -60 -125 -3 3 -1 14 5 25 8 16 6 31 -9 67 -22 52 -23 55 -12 55 4 0
14 -17 23 -38z m274 18 c24 -27 13 -68 -22 -76 -34 -9 -57 6 -61 40 -6 53 47
76 83 36z m92 -57 c-2 -16 -4 -3 -4 27 0 30 2 43 4 28 2 -16 2 -40 0 -55z
m231 65 c7 -7 12 -20 12 -30 0 -14 -8 -18 -35 -18 -19 0 -35 -5 -35 -10 0 -16
30 -24 43 -11 17 17 31 13 17 -4 -15 -18 -51 -20 -68 -3 -7 7 -12 24 -12 38 0
31 17 50 45 50 12 0 26 -5 33 -12z m109 0 c7 -6 12 -28 11 -52 l-1 -41 -4 37
c-8 71 -63 73 -63 2 0 -19 -4 -34 -10 -34 -5 0 -10 22 -10 48 0 48 0 49 32 50
18 0 38 -4 45 -10z m120 -65 c-2 -16 -4 -3 -4 27 0 30 2 43 4 28 2 -16 2 -40
0 -55z m114 39 l16 -37 16 38 c17 40 33 51 21 15 -14 -48 -55 -131 -60 -125
-3 3 -1 14 5 25 8 16 6 31 -9 67 -22 52 -23 55 -12 55 4 0 14 -17 23 -38z
m7111 -46 c227 -46 422 -86 433 -90 21 -5 -61 2 -105 10 -24 4 -24 4 -2 -5 33
-15 27 -22 -15 -15 -37 6 -98 -2 -258 -31 -44 -8 -99 -17 -122 -21 -24 -4 -43
-9 -43 -13 0 -3 -29 -6 -64 -6 -66 0 -101 -17 -92 -42 4 -11 0 -13 -14 -8 -13
4 -20 2 -20 -7 0 -7 -16 -32 -34 -56 l-34 -43 -27 58 c-31 66 -36 79 -60 145
-17 49 -64 108 -86 108 -9 0 -8 -5 3 -17 9 -10 21 -29 28 -43 12 -23 10 -23
-17 5 -17 17 -33 41 -36 55 -3 14 -8 35 -12 47 -6 18 -1 25 26 37 19 8 57 15
86 15 29 1 235 -36 465 -83z m-1127 54 c11 -5 14 -9 7 -9 -7 -1 -11 -5 -8 -9
10 -16 -88 -30 -167 -25 -77 6 -108 18 -65 27 119 23 203 29 233 16z m53 -71
c-16 -12 -25 -26 -21 -35 3 -8 -2 -23 -12 -34 -22 -25 -64 -17 -92 18 l-21 27
41 7 c23 3 58 13 77 22 48 21 60 19 28 -5z m-2804 -114 c65 -33 225 -156 246
-189 24 -38 76 -76 151 -112 100 -48 228 -143 235 -174 17 -75 26 -101 39
-114 12 -12 12 -15 0 -19 -7 -3 -16 -1 -18 6 -3 7 -7 5 -12 -6 -7 -17 -11 -16
-39 12 -39 37 -236 171 -252 171 -17 0 -24 24 -15 57 5 18 3 37 -6 56 -18 35
-24 35 -11 -1 14 -36 5 -73 -26 -108 l-23 -28 -43 21 c-23 12 -48 19 -56 16
-8 -3 -14 0 -14 6 0 6 5 11 10 11 6 0 15 10 20 23 5 13 9 16 10 7 1 -8 6 1 13
20 15 44 60 55 72 18 21 -62 23 -64 24 -27 1 45 -16 61 -62 57 -49 -3 -116 53
-207 172 -19 25 -42 51 -52 58 -10 7 -30 26 -46 42 -15 16 -40 36 -57 45 l-30
17 47 -5 c26 -2 72 -17 102 -32z m4363 29 c-3 -3 -12 -4 -19 -1 -8 3 -5 6 6 6
11 1 17 -2 13 -5z m-3792 -54 c18 -8 17 -9 -7 -9 -16 -1 -28 4 -28 9 0 12 8
12 35 0z m45 -50 c0 -29 -2 -30 -45 -30 -40 0 -45 2 -45 23 0 32 7 37 52 37
36 0 38 -2 38 -30z m-7620 10 c0 -5 -5 -10 -11 -10 -5 0 -7 5 -4 10 3 6 8 10
11 10 2 0 4 -4 4 -10z m1275 0 c3 -5 1 -10 -4 -10 -6 0 -11 5 -11 10 0 6 2 10
4 10 3 0 8 -4 11 -10z m684 -6 c-10 -13 -10 -17 2 -25 10 -6 10 -9 2 -9 -9 0
-13 -16 -13 -45 0 -62 -17 -57 -22 6 -3 51 11 89 34 89 6 0 5 -6 -3 -16z m46
6 c3 -5 1 -10 -4 -10 -6 0 -11 5 -11 10 0 6 2 10 4 10 3 0 8 -4 11 -10z
m-2685 -19 c0 -15 5 -18 21 -14 15 4 27 0 35 -12 16 -22 19 -85 4 -85 -5 0
-10 18 -10 39 0 26 -5 41 -16 45 -25 10 -34 -2 -34 -45 0 -21 -4 -39 -10 -39
-6 0 -10 28 -10 65 0 37 4 65 10 65 6 0 10 -9 10 -19z m640 -44 l0 -64 -37 -1
c-45 -2 -63 12 -63 48 0 35 22 54 55 46 20 -5 25 -3 25 14 0 11 5 20 10 20 6
0 10 -28 10 -63z m570 1 l0 -63 -35 -2 c-27 -2 -38 2 -51 22 -15 23 -15 27 1
51 14 21 22 25 46 20 24 -5 29 -2 29 14 0 11 2 20 5 20 3 0 5 -28 5 -62z m700
-3 c0 -37 -4 -65 -10 -65 -6 0 -10 28 -10 65 0 37 4 65 10 65 6 0 10 -28 10
-65z m90 28 l1 -38 18 23 c11 12 25 22 32 22 7 0 3 -11 -11 -25 l-23 -25 23
-25 c18 -19 20 -25 8 -25 -9 0 -23 10 -31 23 l-16 22 0 -22 c-1 -13 -5 -23
-11 -23 -6 0 -10 28 -10 65 0 37 4 65 10 65 6 0 10 -17 10 -37z m200 -28 c0
-37 -4 -65 -10 -65 -6 0 -10 28 -10 65 0 37 4 65 10 65 6 0 10 -28 10 -65z
m1500 3 l0 -63 -35 -2 c-27 -2 -38 2 -51 22 -15 23 -15 27 1 51 14 21 22 25
46 20 24 -5 29 -2 29 14 0 11 2 20 5 20 3 0 5 -28 5 -62z m236 -1 c7 -45 16
-39 33 21 14 50 20 48 42 -16 l15 -46 14 47 c7 26 17 50 23 54 6 4 8 0 5 -8
-3 -8 -11 -38 -18 -66 -8 -29 -19 -53 -25 -53 -6 0 -17 21 -24 48 l-14 47 -15
-48 c-9 -26 -20 -46 -25 -44 -11 3 -37 82 -37 112 0 31 18 -2 26 -48z m4401
41 c-3 -8 -6 -5 -6 6 -1 11 2 17 5 13 3 -3 4 -12 1 -19z m-8389 -8 c15 -1 15
-2 0 -11 -11 -6 -18 -22 -18 -39 0 -17 7 -34 18 -40 15 -10 15 -10 -3 -8 -15
3 -21 13 -26 48 -6 44 0 88 9 62 2 -7 11 -12 20 -12z m788 5 c9 -8 11 -15 5
-15 -19 0 -13 -68 7 -80 15 -9 14 -10 -8 -8 -22 3 -26 9 -30 49 -8 68 -1 82
26 54z m1070 0 c9 -8 11 -15 5 -15 -19 0 -13 -68 7 -80 15 -9 14 -10 -8 -8
-22 3 -26 9 -30 49 -8 68 -1 82 26 54z m600 0 c9 -8 11 -15 5 -15 -19 0 -13
-68 7 -80 15 -9 14 -10 -8 -8 -22 3 -26 9 -30 49 -8 68 -1 82 26 54z m344 -8
c12 -4 11 -6 -2 -6 -14 -1 -18 -10 -18 -36 0 -22 6 -38 18 -45 15 -10 15 -10
-3 -8 -15 2 -21 12 -23 38 -2 19 -7 39 -12 44 -5 5 -3 14 3 21 7 7 14 9 17 5
3 -4 12 -10 20 -13z m-2582 -9 c7 -7 12 -20 12 -30 0 -14 -8 -18 -35 -18 -19
0 -35 -5 -35 -10 0 -16 30 -24 43 -11 17 17 31 13 17 -4 -15 -18 -51 -20 -68
-3 -15 15 -15 61 0 76 7 7 21 12 33 12 12 0 26 -5 33 -12z m162 -3 c14 -17 0
-21 -16 -5 -18 18 -44 0 -44 -31 0 -32 24 -49 43 -30 17 17 31 13 17 -4 -15
-18 -51 -20 -68 -3 -7 7 -12 24 -12 38 0 14 5 31 12 38 17 17 53 15 68 -3z
m80 5 c0 -4 -7 -10 -15 -14 -9 -3 -15 -19 -15 -41 0 -19 -4 -35 -10 -35 -5 0
-10 22 -10 49 0 45 2 49 25 49 14 0 25 -4 25 -8z m98 -2 c7 -7 12 -20 12 -30
0 -14 -8 -18 -42 -18 -40 0 -41 -1 -25 -17 14 -15 21 -15 37 -5 27 16 35 15
20 -3 -15 -18 -51 -20 -68 -3 -7 7 -12 24 -12 38 0 31 17 50 45 50 12 0 26 -5
33 -12z m172 -38 c0 -27 -4 -50 -10 -50 -5 0 -10 23 -10 50 0 28 5 50 10 50 6
0 10 -22 10 -50z m220 35 c8 -9 9 -15 2 -15 -6 0 -14 5 -17 10 -11 18 -35 10
-47 -15 -10 -21 -9 -29 5 -43 14 -14 21 -14 37 -4 27 16 35 15 20 -3 -15 -18
-51 -20 -68 -3 -7 7 -12 24 -12 38 0 14 5 31 12 38 17 17 53 15 68 -3z m130
-36 l0 -46 -37 -1 c-45 -2 -63 12 -63 47 0 37 16 50 61 48 l39 -1 0 -47z m70
41 c0 -4 -7 -10 -15 -14 -9 -3 -15 -19 -15 -41 0 -19 -4 -35 -10 -35 -5 0 -10
22 -10 49 0 45 2 49 25 49 14 0 25 -4 25 -8z m208 -8 c3 -11 0 -12 -16 -3 -16
8 -23 8 -28 -1 -4 -6 -3 -13 3 -15 50 -17 56 -67 6 -61 -14 2 -28 9 -31 16 -3
11 -1 11 17 1 15 -10 23 -11 32 -2 8 8 3 15 -20 27 -30 16 -39 35 -24 50 12
11 56 2 61 -12z m147 8 c4 -6 14 -5 25 3 32 20 55 -2 56 -54 1 -38 1 -39 -3
-7 -8 73 -61 73 -65 -1 l-1 -36 -4 37 c-8 71 -63 73 -63 2 0 -19 -4 -34 -10
-34 -5 0 -10 22 -10 48 0 49 0 49 35 50 19 1 37 -3 40 -8z m193 -2 c7 -7 12
-24 12 -38 0 -53 -57 -69 -86 -25 -15 23 -15 27 0 50 18 27 54 33 74 13z m100
-8 c5 -13 3 -13 -11 -2 -16 14 -37 9 -37 -8 0 -5 10 -12 23 -16 29 -9 39 -25
25 -41 -13 -16 -54 -17 -63 -2 -11 16 3 23 19 10 8 -7 20 -10 26 -6 17 11 11
23 -15 29 -30 8 -44 34 -24 47 20 13 52 7 57 -11z m199 -57 c-2 -16 -4 -3 -4
27 0 30 2 43 4 28 2 -16 2 -40 0 -55z m201 65 c7 -7 12 -20 12 -30 0 -14 -8
-18 -35 -18 -19 0 -35 -5 -35 -10 0 -16 30 -24 43 -11 17 17 31 13 17 -4 -15
-18 -51 -20 -68 -3 -7 7 -12 24 -12 38 0 31 17 50 45 50 12 0 26 -5 33 -12z
m103 -26 l16 -37 16 38 c17 40 33 51 21 15 -14 -48 -55 -131 -60 -125 -3 3 -1
14 5 25 8 16 6 31 -9 67 -22 52 -23 55 -12 55 4 0 14 -17 23 -38z m274 18 c24
-27 13 -68 -22 -76 -34 -9 -57 6 -61 40 -6 53 47 76 83 36z m152 -57 c-2 -16
-4 -3 -4 27 0 30 2 43 4 28 2 -16 2 -40 0 -55z m169 40 l17 -38 15 38 c8 20
18 37 23 37 10 0 2 -22 -35 -100 -19 -40 -24 -47 -21 -25 3 17 -1 47 -10 68
-26 63 -16 82 11 20z m155 27 c22 -12 26 -59 7 -78 -28 -28 -88 -2 -88 38 0
22 26 50 46 50 9 0 24 -5 35 -10z m61 -32 c2 -35 7 -43 23 -43 16 0 21 8 23
43 4 58 22 53 22 -6 0 -48 0 -49 -32 -50 -44 -1 -58 13 -58 59 0 53 18 50 22
-3z m134 26 c-11 -7 -22 -30 -26 -51 -8 -38 -8 -38 -9 12 -1 48 0 50 26 52 26
1 27 0 9 -13z m151 4 c7 -6 12 -29 12 -52 l-1 -41 -8 38 c-8 45 -21 60 -43 51
-12 -4 -17 -18 -17 -45 0 -21 -4 -39 -10 -39 -5 0 -10 22 -10 48 0 48 0 49 32
50 18 0 38 -4 45 -10z m118 -4 c23 -24 13 -39 -28 -42 -20 -2 -37 -7 -37 -12
0 -15 31 -20 52 -9 16 9 19 8 16 -3 -12 -37 -88 -10 -88 32 0 43 54 65 85 34z
m109 0 c29 -28 20 -44 -26 -44 -40 0 -41 -1 -25 -17 15 -15 20 -16 38 -5 18
11 20 11 17 0 -3 -7 -16 -14 -31 -16 -19 -2 -30 4 -43 22 -15 24 -15 28 0 51
19 29 47 32 70 9z m224 -2 c3 -11 0 -12 -16 -3 -16 8 -23 8 -28 -1 -4 -6 -3
-13 3 -15 50 -17 56 -67 6 -61 -14 2 -28 9 -31 16 -3 11 -1 11 17 1 15 -10 23
-11 32 -2 8 8 3 15 -20 27 -30 16 -39 35 -24 50 12 11 56 2 61 -12z m367 2
c23 -24 13 -39 -28 -42 -20 -2 -37 -7 -37 -12 0 -15 31 -20 52 -9 16 9 19 8
16 -3 -12 -37 -88 -10 -88 32 0 43 54 65 85 34z m6903 -13 c2 -13 1 -39 -3
-57 -5 -28 -10 -34 -32 -34 -25 0 -26 2 -19 46 3 26 6 53 6 61 0 26 45 11 48
-16z m-2345 -8 c-7 -2 -19 -2 -25 0 -7 3 -2 5 12 5 14 0 19 -2 13 -5z m-4883
-53 c0 -5 -4 -10 -10 -10 -5 0 -10 5 -10 10 0 6 5 10 10 10 6 0 10 -4 10 -10z
m5198 -24 c-7 -8 -15 -12 -17 -11 -5 6 10 25 20 25 5 0 4 -6 -3 -14z m1408
-65 c-17 -27 -368 -171 -417 -171 -7 0 14 16 47 36 32 19 66 42 75 50 9 8 56
34 105 58 49 24 105 55 124 69 l35 25 18 -29 c10 -16 16 -33 13 -38z m-1299
27 c-3 -8 -6 -5 -6 6 -1 11 2 17 5 13 3 -3 4 -12 1 -19z m1733 3 c0 -26 -29
-49 -40 -32 -5 9 -19 11 -41 7 -31 -5 -29 -3 16 19 60 30 65 30 65 6z m-267
-46 c19 -26 16 -45 -7 -45 -14 0 -46 42 -46 60 0 19 35 9 53 -15z m263 -52
c-18 -53 -46 -97 -46 -72 0 8 9 29 20 47 11 18 20 41 20 51 0 18 10 34 18 27
2 -3 -3 -26 -12 -53z m-386 12 c13 -14 33 -25 44 -26 23 -1 -4 -14 -205 -103
-70 -30 -185 -87 -257 -126 -151 -82 -217 -110 -339 -145 -48 -14 -95 -28
-103 -30 -11 -4 -16 3 -18 20 -1 20 4 26 32 33 18 6 67 35 108 66 40 30 107
71 148 91 41 19 62 33 45 30 -16 -4 -41 -9 -55 -11 -56 -12 57 44 130 64 41
12 156 52 255 90 99 39 183 70 186 71 3 1 16 -10 29 -24z m-10055 -45 c3 -5 1
-10 -4 -10 -6 0 -11 5 -11 10 0 6 2 10 4 10 3 0 8 -4 11 -10z m3355 1 c0 -5
-6 -12 -12 -14 -10 -4 -9 -8 2 -16 10 -7 11 -11 3 -11 -9 0 -13 -16 -13 -45 0
-25 -4 -45 -9 -45 -15 0 -17 101 -3 121 14 20 32 25 32 10z m-2453 -98 c-2
-21 -4 -6 -4 32 0 39 2 55 4 38 2 -18 2 -50 0 -70z m2330 0 c-2 -21 -4 -6 -4
32 0 39 2 55 4 38 2 -18 2 -50 0 -70z m8520 12 c495 -124 507 -128 511 -153 3
-19 -14 -15 -235 49 -131 38 -326 95 -433 125 -184 52 -218 64 -193 64 6 0
163 -38 350 -85z m-10101 60 c9 -8 11 -15 5 -15 -15 0 -14 -77 2 -84 6 -3 3
-5 -8 -3 -16 2 -21 12 -25 49 -8 67 -1 81 26 53z m662 -5 c15 -1 15 -2 0 -11
-11 -6 -18 -22 -18 -39 0 -17 7 -34 18 -40 15 -10 15 -10 -3 -8 -15 3 -21 13
-26 48 -6 44 0 88 9 62 2 -7 11 -12 20 -12z m-2760 -12 c7 -7 12 -20 12 -30 0
-14 -8 -18 -35 -18 -19 0 -35 -5 -35 -10 0 -16 30 -24 43 -11 17 17 31 13 17
-4 -15 -18 -51 -20 -68 -3 -15 15 -15 61 0 76 7 7 21 12 33 12 12 0 26 -5 33
-12z m58 -5 c12 -17 14 -17 28 2 18 24 20 15 4 -20 -9 -19 -9 -28 0 -37 20
-20 13 -32 -8 -13 -18 16 -20 16 -26 1 -3 -9 -11 -16 -16 -16 -6 0 -4 10 5 23
13 20 13 26 1 50 -16 30 -8 37 12 10z m164 -34 l0 -46 -37 -1 c-45 -2 -63 12
-63 47 0 37 16 50 61 48 l39 -1 0 -47z m95 41 c4 -6 14 -5 25 3 32 20 55 -2
56 -54 1 -38 1 -39 -3 -7 -8 73 -61 73 -65 -1 l-1 -36 -4 37 c-8 71 -63 73
-63 2 0 -19 -4 -34 -10 -34 -5 0 -10 22 -10 48 0 49 0 49 35 50 19 1 37 -3 40
-8z m135 -46 c0 -24 -4 -44 -10 -44 -5 0 -10 23 -10 51 0 31 4 48 10 44 6 -3
10 -26 10 -51z m97 44 c7 -6 12 -28 11 -52 l-1 -41 -4 37 c-8 71 -63 73 -63 2
0 -19 -4 -34 -10 -34 -5 0 -10 22 -10 48 0 48 0 49 32 50 18 0 38 -4 45 -10z
m117 -4 c29 -28 20 -44 -26 -44 -40 0 -41 -1 -25 -17 15 -15 20 -16 38 -5 18
11 20 11 17 0 -3 -7 -16 -14 -31 -16 -19 -2 -30 4 -43 22 -15 24 -15 28 0 51
19 29 47 32 70 9z m176 -34 c0 -44 -1 -45 -35 -47 -27 -2 -38 2 -51 22 -15 23
-15 27 0 50 13 20 24 24 51 22 34 -2 35 -3 35 -47z m110 31 c13 -25 13 -81 0
-81 -5 0 -10 18 -10 39 0 26 -5 41 -16 45 -25 10 -34 -2 -34 -45 0 -21 -4 -39
-10 -39 -5 0 -10 21 -10 48 0 47 0 47 35 49 25 2 37 -2 45 -16z m107 7 c7 -6
12 -28 11 -52 l-1 -41 -4 37 c-8 71 -63 73 -63 2 0 -19 -4 -34 -10 -34 -5 0
-10 22 -10 48 0 48 0 49 32 50 18 0 38 -4 45 -10z m63 -33 c0 -37 10 -48 34
-39 11 4 16 19 16 45 0 21 5 39 10 39 6 0 10 -22 10 -48 0 -48 0 -49 -32 -50
-18 0 -38 4 -45 10 -15 12 -18 92 -3 83 6 -3 10 -21 10 -40z m190 -5 l0 -47
-37 -1 c-45 -2 -63 12 -63 47 0 37 17 51 62 49 l38 -1 0 -47z m204 34 c34 -33
8 -90 -37 -82 -23 4 -27 2 -27 -18 0 -12 -4 -26 -10 -29 -6 -4 -10 21 -10 67
l0 73 34 2 c21 2 41 -3 50 -13z m114 4 c7 -7 12 -20 12 -30 0 -14 -8 -18 -42
-18 -40 0 -41 -1 -25 -17 14 -15 21 -15 37 -5 27 16 35 15 20 -3 -15 -18 -51
-20 -68 -3 -7 7 -12 24 -12 38 0 31 17 50 45 50 12 0 26 -5 33 -12z m82 2 c0
-4 -7 -10 -15 -14 -9 -3 -15 -19 -15 -41 0 -19 -4 -35 -10 -35 -5 0 -10 22
-10 49 0 45 2 49 25 49 14 0 25 -4 25 -8z m84 4 c9 -3 16 -10 16 -15 0 -6 -9
-5 -21 1 -39 21 -68 -32 -33 -61 12 -10 20 -10 35 -1 12 8 19 8 19 2 0 -15
-26 -23 -54 -16 -30 7 -40 43 -20 73 15 23 30 28 58 17z m120 -10 c29 -28 20
-44 -26 -44 -40 0 -41 -1 -25 -17 15 -15 20 -16 38 -5 18 11 20 11 17 0 -3 -7
-16 -14 -31 -16 -19 -2 -30 4 -43 22 -15 24 -15 28 0 51 19 29 47 32 70 9z
m113 4 c7 -6 12 -29 12 -52 l-1 -41 -8 38 c-8 45 -21 60 -43 51 -12 -4 -17
-18 -17 -45 0 -21 -4 -39 -10 -39 -5 0 -10 22 -10 48 0 48 0 49 32 50 18 0 38
-4 45 -10z m203 -39 l0 -46 -37 -1 c-45 -2 -63 12 -63 47 0 37 16 50 61 48
l39 -1 0 -47z m120 -10 c0 -75 -24 -102 -74 -83 -9 3 -16 12 -16 20 0 11 4 12
19 3 22 -14 51 -6 51 14 0 10 -8 13 -25 9 -32 -6 -55 13 -55 47 0 37 17 51 62
49 l38 -1 0 -58z m98 49 c7 -7 12 -20 12 -30 0 -14 -8 -18 -35 -18 -19 0 -35
-5 -35 -10 0 -16 30 -24 43 -11 17 17 31 13 17 -4 -15 -18 -51 -20 -68 -3 -7
7 -12 24 -12 38 0 31 17 50 45 50 12 0 26 -5 33 -12z m132 2 c0 -4 -7 -10 -15
-14 -9 -3 -15 -19 -15 -41 0 -19 -4 -35 -10 -35 -5 0 -10 22 -10 49 0 45 2 49
25 49 14 0 25 -4 25 -8z m120 -41 l0 -46 -37 -1 c-45 -2 -63 12 -63 47 0 37
16 50 61 48 l39 -1 0 -47z m164 35 c29 -28 20 -44 -26 -44 -40 0 -41 -1 -25
-17 15 -15 20 -16 38 -5 18 11 20 11 17 0 -3 -7 -16 -14 -31 -16 -19 -2 -30 4
-43 22 -15 24 -15 28 0 51 19 29 47 32 70 9z m104 -2 c3 -11 0 -12 -16 -3 -16
8 -23 8 -28 -1 -4 -6 -3 -13 3 -15 50 -17 56 -67 6 -61 -14 2 -28 9 -31 16 -3
11 -1 11 17 1 15 -10 23 -11 32 -2 8 8 3 15 -20 27 -30 16 -39 35 -24 50 12
11 56 2 61 -12z m202 -32 c0 -44 -1 -45 -35 -47 -27 -2 -38 2 -51 22 -15 23
-15 27 0 50 13 20 24 24 51 22 34 -2 35 -3 35 -47z m110 31 c13 -25 13 -81 0
-81 -5 0 -10 18 -10 39 0 26 -5 41 -16 45 -25 10 -34 -2 -34 -45 0 -21 -4 -39
-10 -39 -5 0 -10 21 -10 48 0 47 0 47 35 49 25 2 37 -2 45 -16z m107 7 c7 -6
12 -28 11 -52 l-1 -41 -4 37 c-8 71 -63 73 -63 2 0 -19 -4 -34 -10 -34 -5 0
-10 22 -10 48 0 48 0 49 32 50 18 0 38 -4 45 -10z m63 -33 c0 -37 10 -48 34
-39 11 4 16 19 16 45 0 21 5 39 10 39 6 0 10 -22 10 -48 0 -48 0 -49 -32 -50
-18 0 -38 4 -45 10 -15 12 -18 92 -3 83 6 -3 10 -21 10 -40z m190 -5 l0 -47
-37 -1 c-45 -2 -63 12 -63 47 0 37 17 51 62 49 l38 -1 0 -47z m254 34 c29 -28
20 -44 -26 -44 -40 0 -41 -1 -25 -17 15 -15 20 -16 38 -5 18 11 20 11 17 0 -3
-7 -16 -14 -31 -16 -19 -2 -30 4 -43 22 -15 24 -15 28 0 51 19 29 47 32 70 9z
m110 0 c29 -28 20 -44 -26 -44 -40 0 -41 -1 -25 -17 15 -15 20 -16 38 -5 18
11 20 11 17 0 -3 -7 -16 -14 -31 -16 -19 -2 -30 4 -43 22 -15 24 -15 28 0 51
19 29 47 32 70 9z m104 -2 c3 -11 0 -12 -16 -3 -16 8 -23 8 -28 -1 -4 -6 -3
-13 3 -15 50 -17 56 -67 6 -61 -14 2 -28 9 -31 16 -3 11 -1 11 17 1 15 -10 23
-11 32 -2 8 8 3 15 -20 27 -30 16 -39 35 -24 50 12 11 56 2 61 -12z m-1105
-82 c-3 -11 -10 -23 -16 -27 -7 -4 -8 0 -4 11 4 10 7 22 7 27 0 5 4 9 9 9 5 0
7 -9 4 -20z m1147 10 c0 -5 -4 -10 -10 -10 -5 0 -10 5 -10 10 0 6 5 10 10 10
6 0 10 -4 10 -10z m4815 -34 c13 -24 16 -45 12 -75 -7 -52 -7 -52 -48 -54 -20
-1 -34 3 -37 13 -4 12 -3 13 10 2 29 -24 68 10 68 60 0 55 -65 92 -89 51 -10
-17 -10 -17 -11 -1 0 20 26 37 56 38 14 0 27 -12 39 -34z m-195 -55 c0 -11
-16 -16 -72 -26 -30 -5 -38 -3 -38 9 0 14 10 16 93 24 9 1 17 -2 17 -7z m-398
-47 c-86 -38 -48 -160 40 -126 30 11 30 11 13 -8 -24 -27 -61 -25 -90 5 -50
50 -14 144 55 144 8 -1 0 -7 -18 -15z m888 -12 c0 -13 -99 -56 -107 -47 -5 4
-3 9 2 12 6 2 28 12 50 22 46 22 55 24 55 13z m-952 -104 c-6 -18 -28 -21 -28
-4 0 9 7 16 16 16 9 0 14 -5 12 -12z m410 0 c-3 -7 -13 -15 -24 -17 -16 -3
-17 -1 -5 13 16 19 34 21 29 4z m-48 -28 c0 -5 -9 -10 -19 -10 -11 0 -23 5
-26 10 -4 6 5 10 19 10 14 0 26 -4 26 -10z m940 6 c0 -2 -9 -6 -20 -9 -11 -3
-18 -1 -14 4 5 9 34 13 34 5z m-900 -1581 c0 -8 11 -17 25 -21 26 -6 55 -39
55 -61 0 -16 -52 -17 -68 -1 -9 9 -12 4 -12 -22 0 -31 5 -37 40 -52 68 -28 64
-104 -7 -138 -17 -8 -34 -23 -36 -33 -6 -20 -27 -23 -27 -3 0 8 -17 23 -37 33
-21 10 -43 29 -50 43 -12 24 -11 25 19 28 21 2 34 -2 40 -12 15 -26 28 -18 28
17 0 30 -4 36 -40 50 -80 31 -73 134 11 152 16 4 29 13 29 21 0 8 7 14 15 14
8 0 15 -7 15 -15z m-8482 -30 c27 -32 28 -65 4 -95 -18 -23 -18 -24 0 -42 29
-29 24 -92 -8 -117 -39 -31 -113 -29 -148 4 -36 34 -35 65 3 65 20 0 30 -6 34
-20 7 -26 62 -28 75 -2 17 32 -4 62 -45 62 -17 0 -23 6 -23 23 0 17 8 25 33
32 25 8 32 15 32 35 0 20 -6 26 -29 28 -19 2 -32 -2 -38 -12 -5 -9 -22 -16
-38 -16 -34 0 -34 -1 -20 35 22 57 125 69 168 20z m249 9 c32 -20 40 -61 19
-97 -16 -28 -16 -31 1 -49 42 -47 5 -131 -63 -144 -42 -8 -100 11 -119 39 -21
30 -19 83 4 106 16 16 17 21 6 32 -25 26 -22 83 5 107 40 34 100 36 147 6z
m239 11 c49 -20 67 -68 62 -163 -3 -69 -6 -76 -36 -103 -23 -21 -43 -29 -70
-29 -73 0 -112 54 -112 157 0 77 24 124 70 140 45 15 45 15 86 -2z m296 -25
c52 -56 46 -206 -9 -250 -47 -36 -131 -22 -156 27 -35 69 -26 192 16 231 44
40 107 36 149 -8z m3475 8 c16 -15 23 -33 23 -60 0 -49 -12 -72 -63 -125 l-41
-43 57 0 c54 0 57 -1 57 -25 l0 -25 -100 0 c-98 0 -100 0 -100 23 0 16 22 46
66 89 58 59 65 70 62 100 -2 28 -7 34 -30 36 -22 3 -30 -2 -38 -22 -12 -34
-60 -38 -60 -5 0 33 19 60 53 75 40 17 84 10 114 -18z m239 1 c30 -28 32 -79
4 -104 -20 -18 -20 -18 -1 -32 39 -27 35 -97 -8 -130 -9 -7 -38 -13 -64 -13
-41 0 -53 5 -78 29 -16 16 -29 37 -29 45 0 24 52 21 68 -5 16 -25 60 -23 76 4
16 25 -4 51 -43 55 -25 3 -31 8 -31 28 0 19 5 24 24 24 51 0 63 62 13 68 -18
2 -29 -2 -33 -12 -9 -23 -64 -21 -64 2 1 65 111 92 166 41z m217 20 c31 -8 42
-18 58 -52 34 -75 20 -189 -28 -227 -51 -40 -142 -17 -162 41 -16 47 -14 155
5 190 8 17 30 37 47 44 39 17 34 17 80 4z m4051 -3 c38 -16 59 -60 49 -107 -3
-17 -28 -55 -55 -85 l-50 -54 56 0 c53 0 56 -1 56 -25 l0 -25 -100 0 c-99 0
-100 0 -100 24 0 18 16 39 55 72 64 56 91 104 75 134 -16 29 -58 26 -70 -5
-12 -33 -60 -36 -60 -4 0 33 19 60 53 74 41 18 50 18 91 1z m235 3 c17 -6 36
-19 41 -29 15 -28 12 -71 -6 -91 -14 -16 -14 -20 6 -47 18 -24 21 -38 16 -66
-9 -46 -39 -66 -98 -66 -51 0 -91 26 -103 68 -5 19 -3 22 22 22 17 0 33 -8 41
-20 8 -13 23 -20 42 -20 23 0 31 5 36 25 8 31 -9 53 -44 57 -19 2 -28 10 -30
26 -3 18 1 22 21 22 52 0 65 62 14 68 -18 2 -29 -2 -33 -12 -4 -10 -18 -16
-35 -16 -36 0 -39 27 -6 57 37 34 65 40 116 22z m256 -3 c19 -8 41 -28 49 -45
19 -35 21 -143 5 -190 -20 -58 -111 -81 -162 -41 -64 51 -60 236 6 268 51 25
59 25 102 8z m228 -108 c22 -54 43 -98 46 -98 4 0 25 44 48 98 40 95 42 97 77
100 l36 3 0 -145 0 -146 -30 0 -30 0 0 81 c0 44 -4 78 -9 75 -4 -3 -21 -39
-37 -81 -25 -66 -32 -75 -54 -75 -23 0 -29 10 -60 87 l-35 87 -3 -87 -3 -87
-29 0 -30 0 0 146 0 145 36 -3 c36 -3 37 -4 77 -100z m-8483 22 l0 -40 40 0
c36 0 40 -2 40 -25 0 -22 -4 -25 -40 -25 l-40 0 0 -40 c0 -38 -2 -40 -30 -40
-28 0 -30 2 -30 40 0 39 -1 40 -35 40 -31 0 -35 3 -35 25 0 22 4 25 35 25 34
0 35 1 35 40 0 38 2 40 30 40 28 0 30 -2 30 -40z m3980 0 c0 -39 1 -40 35 -40
31 0 35 -3 35 -25 0 -22 -4 -25 -35 -25 -34 0 -35 -1 -35 -40 0 -38 -2 -40
-30 -40 -28 0 -30 2 -30 40 l0 40 -40 0 c-36 0 -40 3 -40 25 0 23 4 25 40 25
l40 0 0 40 c0 38 2 40 30 40 28 0 30 -2 30 -40z m4900 0 l0 -40 40 0 c36 0 40
-2 40 -25 0 -22 -4 -25 -40 -25 l-40 0 0 -40 c0 -38 -2 -40 -30 -40 -28 0 -30
2 -30 40 0 39 -1 40 -35 40 -31 0 -35 3 -35 25 0 22 4 25 35 25 34 0 35 1 35
40 0 38 2 40 30 40 28 0 30 -2 30 -40z m-8600 -110 c38 -25 58 -3 63 70 l3 55
2 -62 c2 -52 -1 -64 -17 -73 -53 -28 -82 1 -80 78 l2 57 6 -58 c4 -35 12 -62
21 -67z m188 102 c3 -11 0 -11 -16 -1 -10 7 -27 9 -36 6 -27 -11 -14 -40 21
-50 48 -14 55 -59 12 -72 -23 -7 -59 2 -59 16 0 5 8 4 19 -2 10 -7 26 -9 35
-6 27 11 18 37 -18 52 -39 16 -48 32 -34 58 11 21 69 20 76 -1z m87 9 c-21 -4
-31 -13 -33 -29 -3 -19 1 -22 30 -23 l33 -1 -30 -7 c-24 -5 -30 -12 -30 -31 0
-19 6 -26 30 -31 29 -6 29 -7 -7 -8 l-38 -1 0 70 0 70 38 -1 c36 -1 36 -2 7
-8z m146 -19 c6 -17 4 -27 -11 -39 -17 -15 -17 -19 -4 -37 15 -23 18 -36 7
-36 -5 0 -16 14 -25 30 -22 38 -38 38 -38 0 0 -16 -4 -30 -10 -30 -6 0 -10 30
-10 71 l0 70 41 -3 c33 -2 44 -8 50 -26z m176 -38 c25 -69 26 -74 13 -74 -5 0
-10 7 -10 15 0 11 -11 15 -35 15 -22 0 -38 -6 -41 -15 -4 -8 -10 -15 -15 -15
-6 0 8 51 36 128 10 26 30 5 52 -54z m163 51 c18 -22 4 -31 -18 -12 -23 21
-41 21 -64 0 -27 -24 -23 -69 7 -89 23 -15 27 -15 51 1 30 20 48 10 20 -11
-68 -49 -149 35 -100 104 18 27 84 31 104 7z m119 8 c-16 -4 -28 -46 -30 -108
-1 -40 -6 -23 -14 47 -5 41 -11 58 -23 61 -9 3 6 5 33 5 28 0 43 -2 34 -5z
m52 -78 l-7 -60 -7 64 c-7 64 -1 96 13 70 5 -8 5 -41 1 -74z m64 31 c10 -30
22 -53 26 -50 4 2 15 27 24 54 9 28 21 50 26 50 13 0 12 -2 -17 -75 -15 -36
-31 -64 -37 -62 -5 1 -18 23 -27 47 -27 70 -32 90 -22 90 5 0 17 -24 27 -54z
m158 47 c-27 -4 -33 -9 -33 -29 0 -19 5 -24 28 -25 l27 -1 -25 -7 c-38 -11
-35 -54 5 -62 27 -6 26 -7 -12 -8 l-43 -1 0 70 0 70 43 -2 c36 -1 38 -2 10 -5z
m2855 0 c-15 -4 -18 -16 -18 -69 0 -36 -4 -64 -10 -64 -6 0 -10 28 -10 64 0
53 -3 65 -17 69 -10 3 2 5 27 5 25 0 37 -2 28 -5z m126 -9 c21 -20 20 -31 -3
-51 -18 -15 -18 -18 -4 -40 9 -13 13 -26 10 -29 -3 -3 -13 8 -22 25 -21 41
-43 40 -48 -1 -2 -18 -5 0 -5 40 l-2 72 29 0 c16 0 37 -7 45 -16z m68 -101 c6
-7 16 -13 22 -13 28 1 41 22 47 77 l6 58 2 -57 c2 -77 -27 -106 -80 -78 -16 9
-19 21 -17 73 l2 62 3 -55 c3 -30 9 -60 15 -67z m196 99 c3 -11 0 -11 -16 -1
-10 7 -27 9 -36 6 -27 -11 -14 -40 21 -50 34 -10 46 -27 37 -52 -12 -31 -84
-30 -84 1 0 13 2 13 16 -1 20 -20 48 -16 52 8 2 12 -7 22 -31 32 -40 16 -49
32 -35 58 11 21 69 20 76 -1z m105 8 c-20 -8 -23 -17 -25 -72 l-1 -63 -6 64
c-5 52 -10 66 -26 72 -14 5 -4 8 30 8 40 0 45 -2 28 -9z m92 1 c-21 -4 -31
-13 -33 -29 -3 -19 1 -22 30 -23 l33 -1 -30 -7 c-24 -5 -30 -12 -30 -31 0 -19
6 -26 30 -31 29 -6 29 -7 -7 -8 l-38 -1 0 70 0 70 38 -1 c36 -1 36 -2 7 -8z
m155 -11 c20 -20 26 -65 12 -86 -12 -19 -49 -34 -81 -34 l-31 0 0 70 0 70 40
0 c27 0 47 -7 60 -20z m186 -20 c1 -19 5 -42 8 -51 10 -24 -20 -49 -60 -49
l-34 0 0 71 0 70 43 -3 c41 -3 42 -4 43 -38z m64 10 c7 -16 16 -30 20 -30 4 0
13 14 20 30 7 17 16 30 21 30 14 0 11 -12 -11 -45 -11 -16 -20 -45 -20 -62 0
-18 -4 -33 -10 -33 -5 0 -10 13 -10 30 0 16 -9 44 -20 62 -22 36 -25 48 -11
48 5 0 14 -13 21 -30z m265 10 c16 -18 16 -20 2 -20 -10 0 -17 4 -17 10 0 5
-11 12 -25 16 -54 13 -86 -55 -45 -96 24 -24 29 -24 58 -4 28 20 45 8 18 -12
-31 -23 -72 -17 -95 12 -41 53 -13 114 52 114 21 0 41 -8 52 -20z m157 3 c24
-22 24 -77 -2 -103 -43 -43 -120 -11 -120 50 0 59 77 93 122 53z m94 -40 l25
-58 26 58 c14 31 30 57 34 57 5 0 8 -33 7 -72 -1 -48 -3 -59 -5 -30 -2 23 -8
42 -12 42 -4 0 -16 -18 -26 -40 -10 -22 -21 -40 -25 -40 -4 0 -17 21 -28 48
l-20 47 -1 -47 c-1 -27 -5 -48 -11 -48 -6 0 -10 30 -10 70 0 41 4 70 10 70 6
0 22 -26 36 -57z m218 35 c16 -26 -4 -52 -43 -56 -27 -3 -31 -7 -31 -33 0 -16
-4 -29 -10 -29 -6 0 -10 30 -10 71 l0 70 41 -3 c27 -2 46 -9 53 -20z m115 -43
c13 -36 21 -69 17 -72 -3 -3 -8 2 -12 11 -8 22 -63 21 -80 -1 -23 -32 -22 -9
4 60 14 37 30 67 37 67 6 0 22 -29 34 -65z m102 13 l34 -53 3 53 c4 77 22 63
22 -18 0 -38 -4 -70 -9 -70 -5 0 -24 24 -42 52 l-34 53 -3 -53 c-4 -77 -22
-63 -22 18 0 39 4 70 9 70 5 0 24 -24 42 -52z m109 39 c0 -7 6 -22 14 -32 13
-18 14 -17 30 13 9 18 21 32 26 32 6 0 1 -18 -10 -40 -11 -21 -20 -53 -20 -70
0 -16 -4 -30 -10 -30 -5 0 -10 11 -10 25 0 14 -9 43 -20 65 -23 45 -24 50 -10
50 6 0 10 -6 10 -13z m2853 6 c-21 -4 -23 -11 -25 -71 l-1 -67 -6 64 c-5 52
-10 66 -26 72 -13 5 -4 7 30 7 28 0 40 -3 28 -5z m127 -12 c13 -25 13 -27 -6
-46 -14 -13 -15 -21 -5 -42 17 -37 5 -41 -14 -4 -21 41 -45 41 -46 -1 -1 -23
-4 -17 -10 22 -11 75 -5 90 36 90 24 0 38 -6 45 -19z m121 -36 c29 -77 31 -85
20 -85 -6 0 -11 7 -11 15 0 22 -66 20 -79 -2 -5 -10 -12 -16 -14 -13 -8 9 45
141 55 138 6 -2 19 -26 29 -53z m111 -3 l38 -57 0 58 c0 31 5 57 10 57 6 0 10
-30 10 -70 0 -40 -4 -70 -10 -70 -5 0 -27 26 -47 57 l-38 57 -6 -60 -6 -59 -1
73 c-1 39 1 72 6 72 4 0 24 -26 44 -58z m173 47 c11 -17 -3 -23 -20 -9 -8 7
-22 10 -30 6 -26 -10 -16 -35 20 -50 36 -16 46 -41 23 -64 -15 -15 -51 -15
-66 0 -19 19 -14 33 6 15 22 -20 36 -21 50 -4 15 17 3 32 -33 44 -30 10 -42
31 -31 59 6 16 71 19 81 3z m124 -54 c13 -36 21 -69 17 -72 -3 -3 -8 2 -12 11
-8 21 -70 22 -78 1 -3 -8 -9 -15 -14 -15 -5 0 2 32 16 70 13 39 30 70 36 70 7
0 23 -29 35 -65z m166 45 c16 -18 16 -20 2 -20 -10 0 -17 4 -17 10 0 5 -11 12
-25 16 -54 13 -86 -55 -45 -96 24 -24 29 -24 58 -4 28 20 45 8 18 -12 -31 -23
-72 -17 -95 12 -41 53 -13 114 52 114 21 0 41 -8 52 -20z m114 13 c-16 -4 -28
-46 -30 -108 -1 -40 -6 -23 -14 47 -5 41 -11 58 -23 61 -9 3 6 5 33 5 28 0 43
-2 34 -5z m54 -74 l-7 -64 -8 60 c-9 65 -4 95 12 79 6 -6 7 -36 3 -75z m151
59 c35 -50 5 -118 -52 -118 -62 0 -95 77 -52 120 28 28 84 27 104 -2z m97 -30
l34 -53 3 53 c4 77 22 63 22 -18 0 -38 -4 -70 -9 -70 -5 0 -24 24 -42 52 l-34
53 -3 -53 c-4 -77 -22 -63 -22 18 0 39 4 70 9 70 5 0 24 -24 42 -52z"/>
<path d="M12522 8968 c-25 -25 0 -64 32 -52 21 8 21 50 0 58 -20 8 -18 8 -32
-6z"/>
<path d="M12260 8980 c0 -16 5 -21 23 -18 12 2 22 10 22 18 0 8 -10 16 -22 18
-18 3 -23 -2 -23 -18z"/>
<path d="M1780 8955 c0 -11 7 -15 23 -13 12 2 22 8 22 13 0 6 -10 11 -22 13
-16 2 -23 -2 -23 -13z"/>
<path d="M1780 8905 c0 -9 9 -15 25 -15 16 0 25 6 25 15 0 9 -9 15 -25 15 -16
0 -25 -6 -25 -15z"/>
<path d="M10406 8953 c-4 -9 0 -23 9 -32 13 -14 17 -14 31 1 9 9 14 24 11 32
-8 21 -43 20 -51 -1z"/>
<path d="M10675 8960 c-4 -6 5 -10 19 -10 14 0 26 5 26 10 0 6 -9 10 -19 10
-11 0 -23 -4 -26 -10z"/>
<path d="M11263 8973 c-22 -8 -14 -23 12 -23 14 0 25 4 25 9 0 11 -21 19 -37
14z"/>
<path d="M11361 8970 c-7 -4 -11 -18 -9 -31 5 -35 42 -33 46 2 3 28 -16 43
-37 29z"/>
<path d="M11693 8973 c-22 -8 -14 -23 12 -23 14 0 25 4 25 9 0 11 -21 19 -37
14z"/>
<path d="M12422 8968 c-16 -16 -15 -33 4 -48 22 -19 54 12 38 37 -14 22 -27
26 -42 11z"/>
<path d="M13490 8965 c-11 -13 -8 -15 20 -15 28 0 31 2 20 15 -7 8 -16 15 -20
15 -4 0 -13 -7 -20 -15z"/>
<path d="M1553 8924 c-3 -8 -1 -20 5 -26 16 -16 42 -2 42 22 0 24 -38 28 -47
4z"/>
<path d="M1670 8915 c0 -18 5 -25 20 -25 15 0 20 7 20 25 0 18 -5 25 -20 25
-15 0 -20 -7 -20 -25z"/>
<path d="M1900 8935 c-16 -20 -5 -45 20 -45 14 0 20 7 20 24 0 28 -24 41 -40
21z"/>
<path d="M10258 6963 c7 -3 16 -2 19 1 4 3 -2 6 -13 5 -11 0 -14 -3 -6 -6z"/>
<path d="M10178 6923 c6 -2 18 -2 25 0 6 3 1 5 -13 5 -14 0 -19 -2 -12 -5z"/>
<path d="M10026 6881 c-4 -5 3 -7 14 -4 23 6 26 13 6 13 -8 0 -17 -4 -20 -9z"/>
<path d="M9915 6860 c-16 -7 -17 -9 -3 -9 9 -1 20 4 23 9 7 11 7 11 -20 0z"/>
<path d="M10078 6863 c6 -2 18 -2 25 0 6 3 1 5 -13 5 -14 0 -19 -2 -12 -5z"/>
<path d="M9624 6844 c-18 -14 -18 -15 4 -4 12 6 22 13 22 15 0 8 -5 6 -26 -11z"/>
<path d="M9958 6838 c12 -6 22 -18 22 -27 0 -14 2 -14 10 -1 7 11 3 18 -13 27
-12 7 -26 12 -32 12 -5 0 0 -5 13 -11z"/>
<path d="M9554 6804 c-18 -14 -18 -15 4 -4 12 6 22 13 22 15 0 8 -5 6 -26 -11z"/>
<path d="M9890 6790 c8 -5 20 -10 25 -10 6 0 3 5 -5 10 -8 5 -19 10 -25 10 -5
0 -3 -5 5 -10z"/>
<path d="M9504 6774 c-18 -14 -18 -15 4 -4 12 6 22 13 22 15 0 8 -5 6 -26 -11z"/>
<path d="M9850 6781 c0 -10 19 -25 25 -20 1 2 -3 10 -11 17 -8 7 -14 8 -14 3z"/>
<path d="M9800 6770 c-12 -7 -10 -9 8 -7 12 0 22 5 22 9 0 11 -12 10 -30 -2z"/>
<path d="M9899 6753 c-13 -16 -12 -17 4 -4 16 13 21 21 13 21 -2 0 -10 -8 -17
-17z"/>
<path d="M9437 6737 c-21 -13 -34 -27 -30 -32 4 -4 3 -5 -4 -1 -11 6 -213
-101 -213 -114 0 -3 66 -44 148 -90 81 -46 254 -146 384 -222 131 -76 240
-138 242 -138 2 0 6 23 9 51 8 67 38 127 94 189 25 27 41 50 37 50 -4 0 -3 5
3 11 9 9 9 15 0 23 -16 15 -69 17 -60 2 4 -6 -1 -4 -12 4 -16 14 -17 13 -11
-7 4 -12 2 -24 -3 -28 -7 -3 -8 0 -5 10 5 13 1 15 -19 11 -14 -2 -27 0 -29 5
-2 6 -13 11 -25 11 -12 1 -19 7 -16 15 3 7 10 10 16 6 5 -3 7 -1 4 4 -10 15
-56 22 -88 13 -21 -6 -31 -4 -43 9 -17 19 -46 24 -46 8 0 -5 8 -6 18 -2 13 5
14 4 5 -6 -10 -10 -15 -9 -27 1 -9 7 -13 17 -9 23 4 7 0 8 -11 4 -14 -6 -17
-3 -12 8 4 11 0 15 -12 13 -10 -2 -16 2 -14 11 1 7 -5 19 -14 26 -13 9 -14 14
-4 20 8 5 11 4 7 -2 -3 -5 8 -18 26 -28 l32 -18 -23 22 c-12 12 -19 27 -16 33
4 7 2 8 -4 4 -7 -4 -12 -2 -12 3 0 6 11 11 24 11 14 0 31 9 40 21 8 12 19 18
25 15 5 -4 13 -1 17 6 4 7 4 10 -1 6 -4 -4 -26 3 -49 14 -41 22 -68 24 -96 7
-10 -6 -3 -7 17 -3 18 4 46 1 63 -6 25 -10 28 -15 19 -31 -13 -25 -59 -25 -91
0 -15 12 -25 15 -25 8 0 -7 -4 -20 -8 -29 -5 -13 -3 -18 8 -18 8 0 17 6 20 13
4 9 7 9 18 -1 12 -11 11 -15 -4 -27 -10 -7 -18 -17 -18 -22 -1 -4 -3 -10 -6
-13 -4 -3 -3 0 0 6 4 6 -5 16 -18 22 -14 7 -25 19 -25 28 0 13 -3 14 -15 4 -8
-7 -16 -10 -16 -6 -5 24 -4 33 5 44 8 11 5 14 -14 12 -46 -4 -71 0 -65 10 3 6
1 10 -4 10 -6 0 -11 -5 -11 -11 0 -5 -5 -7 -10 -4 -6 4 -7 11 -4 17 5 7 2 8
-7 3 -19 -12 -49 -14 -43 -3 4 5 13 7 22 3 9 -3 13 -3 9 1 -4 4 1 13 11 20 27
21 11 16 -31 -9z m214 -80 c-10 -9 -11 -8 -5 6 3 10 9 15 12 12 3 -3 0 -11 -7
-18z m-94 -3 c-3 -3 -12 -4 -19 -1 -8 3 -5 6 6 6 11 1 17 -2 13 -5z m39 -23
c-2 -3 5 -14 15 -23 10 -9 20 -12 23 -7 2 5 4 5 3 -1 -2 -7 -7 -12 -12 -12 -6
0 -18 -4 -28 -10 -35 -19 -106 30 -80 56 8 8 83 5 79 -3z m298 -133 c-5 -8 -1
-9 12 -4 14 5 16 4 7 -5 -13 -13 -37 -3 -28 12 4 5 8 9 11 9 3 0 2 -5 -2 -12z
m61 -48 c-3 -5 -12 -10 -18 -10 -7 0 -6 4 3 10 19 12 23 12 15 0z"/>
<path d="M9538 6613 c7 -3 16 -2 19 1 4 3 -2 6 -13 5 -11 0 -14 -3 -6 -6z"/>
<path d="M9764 6736 c11 -9 27 -16 35 -15 14 0 14 1 1 6 -8 3 -24 10 -35 15
-20 9 -20 9 -1 -6z"/>
<path d="M9848 6738 c5 -5 16 -8 23 -6 8 3 3 7 -10 11 -17 4 -21 3 -13 -5z"/>
<path d="M9596 6685 c-11 -8 -16 -15 -10 -15 5 0 18 7 28 15 11 8 16 15 10 15
-5 0 -18 -7 -28 -15z"/>
<path d="M9690 6690 c20 -13 43 -13 35 0 -3 6 -16 10 -28 10 -18 0 -19 -2 -7
-10z"/>
<path d="M10310 6550 c-8 -5 -10 -10 -5 -10 6 0 17 5 25 10 8 5 11 10 5 10 -5
0 -17 -5 -25 -10z"/>
<path d="M9990 6510 c-12 -7 -10 -9 7 -7 12 0 19 5 17 9 -6 10 -6 10 -24 -2z"/>
<path d="M10225 6510 c-3 -6 1 -7 9 -4 18 7 21 14 7 14 -6 0 -13 -4 -16 -10z"/>
<path d="M10174 6481 c-24 -14 -35 -16 -50 -8 -16 9 -17 8 -7 -4 10 -12 10
-18 0 -29 -10 -10 -9 -11 3 -4 55 33 90 57 90 60 0 6 -3 5 -36 -15z"/>
<path d="M11878 6443 c-1 -5 -43 -28 -93 -53 -49 -25 -95 -51 -103 -57 -7 -7
-24 -16 -38 -19 -13 -3 -24 -10 -24 -14 0 -5 -16 -14 -35 -20 -19 -6 -35 -15
-35 -20 0 -4 -10 -11 -22 -15 -21 -6 -19 -8 22 -27 25 -11 47 -24 50 -27 3 -4
28 -17 55 -29 44 -19 51 -19 61 -6 10 12 13 12 17 2 4 -8 8 -5 12 10 4 12 12
22 17 22 5 0 7 4 3 9 -3 6 3 8 14 6 14 -2 18 1 14 11 -3 8 0 14 7 14 15 0 50
38 50 55 0 7 9 20 20 30 16 14 17 21 8 32 -6 8 -7 13 -2 12 21 -4 28 2 14 11
-9 6 -10 10 -3 10 7 0 17 10 24 21 8 15 8 19 0 15 -6 -4 -11 -1 -11 8 0 16
-16 31 -22 19z m15 -37 c4 -10 1 -13 -9 -9 -15 6 -19 23 -5 23 5 0 11 -7 14
-14z m-106 -148 c-3 -8 -6 -5 -6 6 -1 11 2 17 5 13 3 -3 4 -12 1 -19z"/>
<path d="M11520 6311 c5 -11 15 -23 21 -27 6 -3 3 5 -6 20 -20 30 -30 35 -15
7z"/>
<path d="M11574 6304 c-18 -14 -18 -15 4 -4 12 6 22 13 22 15 0 8 -5 6 -26
-11z"/>
<path d="M11869 6283 c-13 -16 -12 -17 4 -4 9 7 17 15 17 17 0 8 -8 3 -21 -13z"/>
<path d="M8700 6160 c-13 -8 -12 -10 3 -10 9 0 17 5 17 10 0 12 -1 12 -20 0z"/>
<path d="M8598 6143 c6 -2 18 -2 25 0 6 3 1 5 -13 5 -14 0 -19 -2 -12 -5z"/>
<path d="M10095 5411 c-16 -10 -122 -71 -235 -136 -113 -64 -209 -122 -215
-127 -5 -6 1 -5 13 2 30 15 80 22 86 11 6 -10 64 -2 72 10 3 5 23 0 45 -11 53
-28 50 -18 -6 14 -25 15 -45 31 -45 37 0 10 34 33 107 71 41 22 43 22 80 5 22
-10 31 -12 21 -4 -13 10 -15 16 -6 25 7 7 9 12 6 12 -9 0 63 72 92 92 33 23
23 22 -15 -1z"/>
<path d="M9927 5269 c-15 -9 -16 -13 -5 -27 12 -15 11 -16 -4 -4 -14 11 -23
10 -54 -6 l-38 -19 25 -13 c13 -7 34 -20 47 -28 12 -8 22 -12 22 -9 0 3 -15
15 -32 27 -24 16 -27 20 -10 15 16 -5 22 -2 22 10 0 10 6 15 13 12 7 -2 24 4
37 15 l25 21 -25 -8 c-21 -6 -23 -5 -12 6 10 11 19 11 45 1 29 -10 30 -10 13
3 -23 17 -44 19 -69 4z"/>
<path d="M9793 5134 c-3 -9 0 -20 8 -25 23 -14 34 -10 13 5 -24 18 -10 34 16
18 28 -17 38 -15 14 3 -25 19 -43 19 -51 -1z"/>
<path d="M9754 5129 c-3 -6 2 -18 12 -27 17 -16 17 -16 4 1 -12 16 -12 20 1
28 9 5 10 9 2 9 -6 0 -15 -5 -19 -11z"/>
<path d="M9711 5113 c-1 -13 46 -53 63 -53 6 0 -3 9 -20 19 -18 11 -34 25 -37
33 -3 8 -6 9 -6 1z"/>
<path d="M9250 4836 c0 -3 9 -10 20 -16 11 -6 20 -8 20 -6 0 3 -9 10 -20 16
-11 6 -20 8 -20 6z"/>
<path d="M9839 4693 c-13 -17 -13 -17 6 -3 11 8 22 16 24 17 2 2 0 3 -6 3 -6
0 -17 -8 -24 -17z"/>
<path d="M9944 4646 c-10 -8 -17 -17 -14 -19 3 -3 16 3 29 14 27 22 15 26 -15
5z"/>
<path d="M10010 4615 c-17 -10 -20 -14 -9 -15 9 0 22 7 29 15 15 18 12 18 -20
0z"/>
<path d="M10104 4555 c-10 -8 -14 -14 -9 -15 15 0 40 18 34 24 -3 3 -14 -1
-25 -9z"/>
<path d="M10530 3960 c-9 -6 -10 -10 -3 -10 6 0 15 5 18 10 8 12 4 12 -15 0z"/>
<path d="M1694 6836 c-8 -35 4 -66 26 -66 22 0 34 31 26 66 -4 15 -14 24 -26
24 -12 0 -22 -9 -26 -24z"/>
<path d="M1806 6861 c-4 -7 -5 -15 -2 -18 9 -9 19 4 14 18 -4 11 -6 11 -12 0z"/>
<path d="M1990 6810 c0 -39 4 -50 16 -50 31 0 54 20 54 48 0 34 -16 52 -47 52
-21 0 -23 -4 -23 -50z"/>
<path d="M3886 6826 c-8 -32 -4 -39 17 -34 13 2 13 8 3 33 l-13 30 -7 -29z"/>
<path d="M2377 6828 c-34 -19 -9 -76 27 -62 19 7 22 60 3 67 -7 3 -21 1 -30
-5z"/>
<path d="M2927 6828 c-34 -19 -9 -76 27 -62 19 7 22 60 3 67 -7 3 -21 1 -30
-5z"/>
<path d="M3410 6801 c0 -33 20 -45 45 -27 25 18 11 56 -21 56 -20 0 -24 -5
-24 -29z"/>
<path d="M4217 6828 c-20 -11 -22 -41 -3 -57 26 -22 63 10 50 43 -8 20 -27 26
-47 14z"/>
<path d="M1870 6775 c0 -8 5 -15 10 -15 6 0 10 7 10 15 0 8 -4 15 -10 15 -5 0
-10 -7 -10 -15z"/>
<path d="M6382 6161 c-148 -37 -295 -131 -379 -244 -164 -221 -188 -481 -68
-724 79 -160 214 -278 390 -340 72 -25 93 -28 215 -28 126 0 141 2 221 31 174
62 305 178 385 339 119 241 94 506 -70 722 -155 205 -442 306 -694 244z m359
-481 c15 0 19 -7 19 -37 0 -21 -5 -45 -10 -53 -7 -11 -10 -5 -10 23 l0 38 -48
-40 c-68 -58 -78 -50 -12 9 l55 49 -37 1 c-21 0 -38 5 -38 11 0 8 11 9 31 5
17 -3 40 -6 50 -6z m-357 -21 c16 -14 -2 -23 -19 -9 -20 17 -62 5 -70 -20 -15
-46 45 -82 75 -45 11 13 8 15 -14 15 -14 0 -26 5 -26 10 0 6 16 10 35 10 41 0
46 -19 15 -50 -24 -24 -48 -25 -78 -4 -33 23 -28 83 8 101 25 12 56 9 74 -8z
m166 1 c0 -5 7 -10 15 -10 8 0 15 -4 15 -10 0 -5 -7 -10 -15 -10 -21 0 -19
-47 2 -59 21 -11 11 -26 -12 -18 -8 4 -15 18 -15 35 0 15 -5 33 -10 38 -6 6
-8 18 -4 27 7 18 24 23 24 7z m-50 -29 c17 -33 11 -41 -31 -41 -27 0 -38 -4
-33 -11 4 -6 19 -9 36 -5 21 4 28 2 26 -7 -7 -19 -53 -20 -72 -2 -9 9 -16 25
-16 35 0 45 69 69 90 31z m-200 -211 c0 -6 -4 -10 -10 -10 -5 0 -10 5 -10 10
0 6 -9 10 -20 10 -31 0 -24 -30 10 -41 22 -8 30 -17 30 -35 0 -28 -41 -44 -65
-24 -21 17 -12 24 13 11 15 -8 23 -7 31 3 13 16 -1 32 -34 38 -30 5 -32 46 -3
57 24 9 58 -2 58 -19z m310 15 c0 -8 8 -15 18 -15 16 -1 16 -1 0 -14 -19 -14
-25 -66 -8 -66 6 0 10 -5 10 -11 0 -6 -8 -9 -17 -7 -28 5 -39 128 -12 128 5 0
9 -7 9 -15z m250 -49 l0 -64 -42 2 c-37 1 -44 5 -52 29 -14 38 3 62 43 62 23
0 31 4 31 17 0 10 5 18 10 18 6 0 10 -28 10 -64z m-510 44 c0 -5 8 -10 18 -10
16 -1 16 -1 0 -14 -10 -7 -18 -23 -18 -36 0 -13 8 -29 18 -36 15 -12 15 -13 1
-14 -9 0 -21 6 -26 13 -12 14 -22 77 -16 95 6 14 23 16 23 2z m140 -60 c0 -46
0 -47 -35 -48 -37 -1 -65 19 -65 48 0 29 28 49 65 48 35 -1 35 -2 35 -48z m80
40 c0 -4 -7 -10 -15 -14 -9 -3 -15 -19 -15 -41 0 -19 -4 -35 -10 -35 -5 0 -10
22 -10 49 0 45 2 49 25 49 14 0 25 -4 25 -8z m164 -12 c20 -28 12 -38 -30 -38
-31 0 -50 -18 -21 -21 17 -2 20 -1 42 7 18 7 18 6 6 -9 -16 -20 -52 -22 -69
-5 -7 7 -12 24 -12 38 0 50 55 69 84 28z"/>
<path d="M6435 5620 c-4 -6 7 -10 25 -10 18 0 29 4 25 10 -3 6 -15 10 -25 10
-10 0 -22 -4 -25 -10z"/>
<path d="M6784 5386 c-10 -26 4 -48 28 -44 17 2 23 10 23 28 0 18 -6 26 -23
28 -13 2 -25 -3 -28 -12z"/>
<path d="M6414 5386 c-10 -26 4 -48 28 -44 17 2 23 10 23 28 0 18 -6 26 -23
28 -13 2 -25 -3 -28 -12z"/>
<path d="M6675 5390 c-4 -6 5 -10 19 -10 14 0 26 5 26 10 0 6 -9 10 -19 10
-11 0 -23 -4 -26 -10z"/>
<path d="M2058 6050 c-14 -11 -28 -29 -31 -40 -5 -19 -1 -20 89 -20 60 0 94 4
94 11 0 6 -13 24 -29 40 -35 35 -86 39 -123 9z"/>
<path d="M3195 6045 c-46 -46 -35 -55 65 -55 50 0 90 2 90 5 0 2 -5 15 -11 28
-23 51 -104 63 -144 22z"/>
<path d="M1705 5034 c-44 -47 -35 -54 70 -54 106 0 115 7 69 54 -38 37 -105
37 -139 0z"/>
<path d="M2626 5029 c-14 -17 -26 -35 -26 -40 0 -5 43 -9 95 -9 61 0 95 4 95
11 0 6 -13 24 -29 40 -42 42 -99 41 -135 -2z"/>
<path d="M3396 5045 c-37 -20 -53 -41 -61 -82 -11 -62 46 -143 102 -143 73 0
128 81 103 154 -22 68 -89 101 -144 71z"/>
<path d="M4365 5051 c-43 -18 -60 -50 -60 -113 0 -55 3 -62 33 -89 84 -75 198
16 163 131 -18 62 -80 94 -136 71z"/>
<path d="M6655 4051 c-40 -17 -60 -51 -60 -103 0 -43 4 -53 33 -79 51 -46 118
-34 147 26 20 44 19 73 -5 113 -27 45 -71 61 -115 43z"/>
<path d="M1148 4154 c-5 -4 -8 -36 -8 -71 l0 -63 53 0 c70 0 97 19 97 69 0 21
-6 44 -14 50 -17 15 -118 26 -128 15z"/>
<path d="M1588 4044 c-36 -19 -48 -43 -48 -99 0 -38 5 -52 29 -76 48 -47 116
-38 146 21 30 58 9 136 -42 159 -32 14 -52 13 -85 -5z"/>
<path d="M3153 4045 c-11 -8 -23 -24 -26 -35 -5 -19 -1 -20 79 -20 68 0 84 3
84 15 0 47 -90 73 -137 40z"/>
<path d="M5055 4035 c-40 -39 -32 -45 60 -45 94 0 107 11 59 49 -37 29 -89 27
-119 -4z"/>
<path d="M6209 4045 c-35 -19 -53 -65 -46 -118 13 -96 128 -121 172 -37 30 58
13 130 -36 156 -35 17 -57 17 -90 -1z"/>
<path d="M9615 3128 c19 -46 19 -71 1 -111 -8 -18 -17 -45 -20 -60 -6 -24 -9
-27 -21 -17 -13 11 -13 7 1 -25 12 -29 13 -44 5 -69 -10 -29 -10 -30 5 -11 11
14 14 32 10 58 -4 21 -2 37 3 37 14 0 41 96 41 146 0 27 -7 50 -20 65 l-20 24
15 -37z"/>
<path d="M10304 3044 c3 -9 6 -18 6 -20 0 -2 8 -4 18 -5 9 0 12 -3 6 -5 -8 -4
-8 -14 0 -39 19 -55 26 -52 23 11 -2 61 -9 74 -41 74 -12 0 -16 -5 -12 -16z"/>
<path d="M9506 2925 c-19 -19 -21 -76 -4 -93 18 -18 46 -14 58 8 16 30 8 71
-16 87 -19 12 -24 12 -38 -2z"/>
<path d="M9992 2890 c0 -14 2 -19 5 -12 2 6 2 18 0 25 -3 6 -5 1 -5 -13z"/>
<path d="M10330 2741 c0 -6 4 -13 10 -16 6 -3 7 1 4 9 -7 18 -14 21 -14 7z"/>
<path d="M10031 2662 c1 -20 4 -49 8 -64 l6 -26 43 39 c40 35 43 40 29 59 -7
11 -16 18 -19 15 -2 -3 -19 -1 -36 4 -32 10 -32 10 -31 -27z"/>
<path d="M1043 3174 c-7 -3 -13 -21 -13 -40 0 -27 5 -37 25 -46 22 -10 29 -9
47 10 41 41 -5 99 -59 76z"/>
<path d="M4096 3144 c-20 -19 -20 -25 -2 -50 12 -15 18 -17 33 -8 23 14 28 41
13 59 -16 19 -25 19 -44 -1z"/>
<path d="M5036 3144 c-20 -19 -20 -25 -2 -50 12 -15 18 -17 33 -8 23 14 28 41
13 59 -16 19 -25 19 -44 -1z"/>
<path d="M1474 3145 c-18 -13 -16 -14 20 -15 33 0 37 2 26 15 -15 19 -21 19
-46 0z"/>
<path d="M1593 3153 c-19 -7 -16 -60 3 -67 34 -13 59 35 32 62 -13 13 -16 13
-35 5z"/>
<path d="M1942 3148 c-21 -21 -8 -68 19 -68 10 0 39 30 39 40 0 10 -29 40 -39
40 -4 0 -12 -5 -19 -12z"/>
<path d="M2164 3145 c-18 -13 -16 -14 20 -15 33 0 37 2 26 15 -15 19 -21 19
-46 0z"/>
<path d="M2373 3153 c-18 -7 -16 -60 2 -67 37 -14 62 33 33 62 -13 13 -16 13
-35 5z"/>
<path d="M2480 3145 c-11 -13 -8 -15 19 -15 33 0 42 14 15 24 -21 8 -20 8 -34
-9z"/>
<path d="M3080 3145 c-11 -13 -8 -15 19 -15 33 0 42 14 15 24 -21 8 -20 8 -34
-9z"/>
<path d="M3330 3145 c-15 -18 -10 -45 13 -59 15 -9 21 -7 33 8 18 25 18 31 -2
50 -19 20 -28 20 -44 1z"/>
<path d="M3693 3153 c-24 -9 -13 -23 18 -23 27 0 30 2 19 15 -13 16 -17 17
-37 8z"/>
<path d="M3982 3148 c-27 -27 -2 -75 32 -62 21 8 21 60 0 68 -20 8 -18 8 -32
-6z"/>
<path d="M4223 3153 c-19 -7 -16 -60 3 -67 34 -13 59 35 32 62 -13 13 -16 13
-35 5z"/>
<path d="M4376 3144 c-20 -19 -20 -25 -2 -50 12 -15 18 -17 33 -8 23 14 28 41
13 59 -16 19 -25 19 -44 -1z"/>
<path d="M4490 3145 c-15 -18 -10 -45 13 -59 15 -9 21 -7 33 8 18 25 18 31 -2
50 -19 20 -28 20 -44 1z"/>
<path d="M4833 3153 c-19 -7 -16 -60 3 -67 34 -13 59 35 32 62 -13 13 -16 13
-35 5z"/>
<path d="M5163 3153 c-24 -9 -13 -23 18 -23 27 0 30 2 19 15 -13 16 -17 17
-37 8z"/>
<path d="M1666 2834 c-20 -19 -20 -25 -2 -50 12 -15 18 -17 33 -8 23 14 28 41
13 59 -16 19 -25 19 -44 -1z"/>
<path d="M2240 2835 c-15 -18 -10 -45 13 -59 15 -9 21 -7 33 8 18 25 18 31 -2
50 -19 20 -28 20 -44 1z"/>
<path d="M4730 2835 c-15 -18 -10 -45 13 -59 15 -9 21 -7 33 8 18 25 18 31 -2
50 -19 20 -28 20 -44 1z"/>
<path d="M1223 2843 c-24 -9 -13 -23 18 -23 27 0 30 2 19 15 -13 16 -17 17
-37 8z"/>
<path d="M1554 2835 c-18 -13 -16 -14 20 -15 33 0 37 2 26 15 -15 19 -21 19
-46 0z"/>
<path d="M2056 2834 c-20 -19 -20 -25 -2 -50 12 -15 18 -17 33 -8 23 14 28 41
13 59 -16 19 -25 19 -44 -1z"/>
<path d="M2692 2838 c-21 -21 -8 -68 19 -68 10 0 39 30 39 40 0 10 -29 40 -39
40 -4 0 -12 -5 -19 -12z"/>
<path d="M3203 2843 c-24 -9 -13 -23 18 -23 27 0 30 2 19 15 -13 16 -17 17
-37 8z"/>
<path d="M3573 2843 c-19 -7 -16 -60 3 -67 34 -13 59 35 32 62 -13 13 -16 13
-35 5z"/>
<path d="M4052 2838 c-27 -27 -2 -75 32 -62 21 8 21 60 0 68 -20 8 -18 8 -32
-6z"/>
<path d="M4510 2835 c-11 -13 -8 -15 19 -15 33 0 42 14 15 24 -21 8 -20 8 -34
-9z"/>
<path d="M4620 2835 c-11 -13 -8 -15 19 -15 33 0 42 14 15 24 -21 8 -20 8 -34
-9z"/>
<path d="M5210 2835 c-11 -13 -8 -15 19 -15 33 0 42 14 15 24 -21 8 -20 8 -34
-9z"/>
<path d="M11120 2411 c-64 -21 -190 -77 -190 -85 0 -5 49 12 213 74 89 34 72
42 -23 11z"/>
<path d="M1043 2533 c-24 -9 -13 -23 18 -23 27 0 30 2 19 15 -13 16 -17 17
-37 8z"/>
<path d="M1236 2524 c-20 -19 -20 -25 -2 -50 12 -15 18 -17 33 -8 23 14 28 41
13 59 -16 19 -25 19 -44 -1z"/>
<path d="M1700 2525 c-11 -13 -8 -15 19 -15 33 0 42 14 15 24 -21 8 -20 8 -34
-9z"/>
<path d="M1860 2525 c-15 -18 -10 -45 13 -59 15 -9 21 -7 33 8 18 25 18 31 -2
50 -19 20 -28 20 -44 1z"/>
<path d="M2333 2533 c-19 -7 -16 -60 3 -67 34 -13 59 35 32 62 -13 13 -16 13
-35 5z"/>
<path d="M2553 2533 c-18 -7 -16 -60 2 -67 37 -14 62 33 33 62 -13 13 -16 13
-35 5z"/>
<path d="M2664 2525 c-18 -13 -16 -14 20 -15 33 0 37 2 26 15 -15 19 -21 19
-46 0z"/>
<path d="M2950 2525 c-11 -13 -8 -15 19 -15 33 0 42 14 15 24 -21 8 -20 8 -34
-9z"/>
<path d="M3246 2524 c-20 -19 -20 -25 -2 -50 12 -15 18 -17 33 -8 23 14 28 41
13 59 -16 19 -25 19 -44 -1z"/>
<path d="M3373 2533 c-19 -7 -16 -60 3 -67 34 -13 59 35 32 62 -13 13 -16 13
-35 5z"/>
<path d="M3493 2533 c-24 -9 -13 -23 18 -23 27 0 30 2 19 15 -13 16 -17 17
-37 8z"/>
<path d="M3716 2524 c-20 -19 -20 -25 -2 -50 12 -15 18 -17 33 -8 23 14 28 41
13 59 -16 19 -25 19 -44 -1z"/>
<path d="M3900 2525 c-11 -13 -8 -15 19 -15 33 0 42 14 15 24 -21 8 -20 8 -34
-9z"/>
<path d="M4190 2525 c-15 -18 -10 -45 13 -59 15 -9 21 -7 33 8 18 25 18 31 -2
50 -19 20 -28 20 -44 1z"/>
<path d="M4663 2533 c-19 -7 -16 -60 3 -67 34 -13 59 35 32 62 -13 13 -16 13
-35 5z"/>
<path d="M4930 2525 c-11 -13 -8 -15 19 -15 33 0 42 14 15 24 -21 8 -20 8 -34
-9z"/>
<path d="M5040 2525 c-11 -13 -8 -15 19 -15 33 0 42 14 15 24 -21 8 -20 8 -34
-9z"/>
<path d="M9744 525 c-8 -19 2 -45 16 -45 5 0 10 14 10 30 0 31 -16 41 -26 15z"/>
<path d="M9800 380 c0 -18 4 -29 10 -25 6 3 10 15 10 25 0 10 -4 22 -10 25 -6
4 -10 -7 -10 -25z"/>
<path d="M1470 540 c-28 -28 -11 -60 30 -60 24 0 31 5 36 27 5 19 2 30 -11 40
-25 17 -31 17 -55 -7z"/>
<path d="M1460 416 c-19 -24 -8 -60 23 -70 23 -8 31 -6 49 12 19 18 20 25 10
47 -13 29 -61 35 -82 11z"/>
<path d="M1726 528 c-18 -26 -22 -119 -6 -149 7 -12 21 -19 40 -19 38 0 50 23
50 98 0 44 -5 63 -18 75 -25 23 -48 21 -66 -5z"/>
<path d="M1990 535 c-18 -22 -19 -137 -1 -158 21 -27 66 -22 79 8 16 34 15
104 -1 135 -15 30 -58 38 -77 15z"/>
<path d="M5966 534 c-20 -19 -22 -144 -4 -162 7 -7 25 -12 40 -12 34 0 48 28
48 98 0 77 -44 116 -84 76z"/>
<path d="M10496 528 c-18 -25 -21 -103 -6 -142 7 -20 17 -26 39 -26 35 0 46
13 54 61 15 98 -44 169 -87 107z"/>
<path d="M2950 480 c0 -23 5 -30 19 -30 28 0 47 26 31 45 -7 8 -21 15 -31 15
-14 0 -19 -7 -19 -30z"/>
<path d="M3151 467 c-14 -37 -14 -37 9 -37 21 0 24 12 10 45 -7 19 -9 18 -19
-8z"/>
<path d="M6670 480 c0 -28 3 -31 28 -28 21 2 27 8 27 28 0 20 -6 26 -27 28
-25 3 -28 0 -28 -28z"/>
<path d="M7270 450 c0 -66 13 -76 58 -44 43 30 17 104 -36 104 -20 0 -22 -5
-22 -60z"/>
<path d="M7470 485 c0 -20 5 -25 24 -25 27 0 40 22 23 39 -21 21 -47 13 -47
-14z"/>
<path d="M7470 420 c0 -23 5 -30 19 -30 28 0 47 26 31 45 -7 8 -21 15 -31 15
-14 0 -19 -7 -19 -30z"/>
<path d="M7937 492 c-25 -28 -21 -69 8 -88 23 -15 27 -15 50 0 17 11 25 26 25
46 0 53 -50 78 -83 42z"/>
<path d="M8260 486 c0 -30 13 -40 40 -31 24 8 27 40 4 49 -31 12 -44 6 -44
-18z"/>
<path d="M8402 465 c-15 -32 -12 -38 16 -33 18 3 19 6 8 32 l-12 29 -12 -28z"/>
<path d="M11570 480 c0 -28 3 -31 28 -28 21 2 27 8 27 28 0 20 -6 26 -27 28
-25 3 -28 0 -28 -28z"/>
<path d="M11716 468 c-9 -35 -8 -38 18 -38 23 0 24 2 15 30 -13 36 -24 38 -33
8z"/>
<path d="M12122 465 c-15 -32 -12 -38 16 -33 18 3 19 6 8 32 l-12 29 -12 -28z"/>
<path d="M12567 492 c-25 -28 -21 -69 8 -88 23 -15 27 -15 50 0 17 11 25 26
25 46 0 53 -50 78 -83 42z"/>
</g>
</svg>
